{
DisplayStrings = (
" /pa-deva/halant-deva/ra-deva/aaMatra-deva/ta-deva/visarga-deva/ka-deva/aaMatra-deva"
);
classes = (
{
code = "k-deva k_ss-deva kh-deva g-deva gh-deva ng-deva ng_k-deva c-deva ch-deva j-deva j_j-deva j_ny-deva jh-deva ny-deva tt-deva tt_tt-deva tth-deva dd-deva ddh-deva nn-deva t-deva t_t-deva t_r-deva th-deva d-deva d_y-deva dh-deva n-deva nnn-deva p-deva ph-deva b-deva b_r-deva bh-deva m-deva y-deva rr-deva l-deva ll-deva lll-deva v-deva v_r-deva sh-deva sh_r-deva ss-deva s-deva h-deva q-deva khh-deva ghh-deva z-deva f-deva sh-deva.loclMAR jh-deva.loclNEP sh-deva.ss02";
name = DevaHalfforms;
},
{
code = "ka-deva kha-deva ga-deva gha-deva nga-deva ca-deva cha-deva ja-deva jha-deva nya-deva tta-deva ttha-deva dda-deva ddha-deva nna-deva ta-deva tha-deva da-deva dha-deva na-deva nnna-deva pa-deva pha-deva ba-deva bha-deva ma-deva ya-deva ra-deva rra-deva la-deva lla-deva llla-deva va-deva sha-deva ssa-deva sa-deva ha-deva qa-deva khha-deva ghha-deva za-deva dddha-deva rha-deva fa-deva yya-deva zha-deva jjya-deva gga-deva jja-deva ddda-deva bba-deva ka-deva.001 dda-deva.001 ha-deva.alt ka-deva.comb na-deva.comb pa-deva.comb ra-deva.comb ya-deva.conecta la-deva.loclMAR sha-deva.loclMAR jha-deva.loclNEP zha-deva.loclNEP";
name = DevaFullforms;
},
{

glyphs = (
{
color = 0;
glyphname = A;
lastChange = "2015-06-18 07:52:54 +0000";
layers = (
{
anchors = (
{
name = bottom;
position = "{318, 0}";
},
{
name = ogonek;
position = "{650, 0}";
},
{
name = top;
position = "{322, 705}";
}
);
background = {
paths = (
{
closed = 0;
nodes = (
"427 232 LINE",
"448 172 LINE",
"475 64 LINE",
"402 44 LINE",
"406 -5 LINE",
"406 -5 OFFCURVE",
"518 0 OFFCURVE",
"549 0 CURVE",
"650 0 LINE",
"655 54 LINE",
"593 64 LINE",
"554 149 LINE",
"348 715 LINE",
"290 705 LINE",
"111 160 LINE",
"68 61 LINE",
"5 44 LINE",
"9 -5 LINE",
"9 -5 OFFCURVE",
"119 0 OFFCURVE",
"144 0 CURVE",
"230 0 LINE",
"235 54 LINE",
"165 64 LINE",
"175 127 LINE",
"207 232 LINE"
);
},
{
closed = 0;
nodes = (
"407 286 LINE",
"225 282 LINE"
);
},
{
closed = 0;
nodes = (
"207 232 LINE",
"427 232 LINE"
);
},
{
closed = 0;
nodes = (
"225 282 LINE",
"313 557 LINE",
"407 286 LINE"
);
}
);
};
layerId = UUID0;
name = Regular;
paths = (
{
closed = 1;
nodes = (
"448 172 LINE SMOOTH",
"460 137 OFFCURVE",
"467 100 OFFCURVE",
"475 64 CURVE",
"402 44 LINE",
"406 -5 LINE",
"406 -5 OFFCURVE",
"518 0 OFFCURVE",
"549 0 CURVE",
"650 0 LINE",
"655 54 LINE",
"593 64 LINE",
"580 91 OFFCURVE",
"564 120 OFFCURVE",
"554 149 CURVE SMOOTH",
"348 715 LINE",
"290 705 LINE",
"111 160 LINE SMOOTH",
"100 126 OFFCURVE",
"82 89 OFFCURVE",
"68 61 CURVE",
"5 44 LINE",
"9 -5 LINE",
"9 -5 OFFCURVE",
"119 0 OFFCURVE",
"144 0 CURVE",
"230 0 LINE",
"235 54 LINE",
"165 64 LINE",
"167 85 OFFCURVE",
"169 107 OFFCURVE",
"175 127 CURVE SMOOTH",
"313 557 LINE"
);
},
{
closed = 1;
nodes = (
"412 285 LINE",
"220 285 LINE",
"202 232 LINE",
"432 232 LINE"
);
}
);
width = 660;
},
{
anchors = (
{
name = bottom;
position = "{332, 0}";
},
{
name = ogonek;
position = "{675, 0}";
},
{
name = top;
position = "{352, 705}";
}
);
background = {
paths = (
{
closed = 1;
nodes = (
"621 80 LINE",
"613 96 OFFCURVE",
"607 111 OFFCURVE",
"601 128 CURVE SMOOTH",
"401 716 LINE",
"289 705 LINE",
"100 161 LINE SMOOTH",
"90 131 OFFCURVE",
"73 102 OFFCURVE",
"57 73 CURVE",
"13 65 LINE",
"18 -5 LINE",
"18 -5 OFFCURVE",
"128 0 OFFCURVE",
"158 0 CURVE SMOOTH",
"263 0 LINE",
"268 71 LINE",
"210 77 LINE",
"211 90 OFFCURVE",
"212 102 OFFCURVE",
"216 115 CURVE SMOOTH",
"235.384 179 LINE",
"421.908 179 LINE",
"436 129 LINE SMOOTH",
"441 112 OFFCURVE",
"440 94 OFFCURVE",
"441 76 CURVE",
"382 65 LINE",
"387 -5 LINE",
"387 -5 OFFCURVE",
"541 0 OFFCURVE",
"591 0 CURVE SMOOTH",
"675 0 LINE",
"680 71 LINE"
);
},
{
closed = 1;
nodes = (
"260.825 263 LINE",
"332 498 LINE",
"398.233 263 LINE"
);
}
);
};
guideLines = (
{
position = "{314, 65}";
}
);
layerId = "16643525-C5DD-48EC-8E99-463BF28F5E85";
name = Bold;
paths = (
{
closed = 1;
nodes = (
"289 705 LINE",
"100 161 LINE SMOOTH",
"90 131 OFFCURVE",
"73 102 OFFCURVE",
"57 73 CURVE",
"13 65 LINE",
"18 -5 LINE",
"18 -5 OFFCURVE",
"128 0 OFFCURVE",
"158 0 CURVE",
"263 0 LINE",
"268 71 LINE",
"210 77 LINE",
"211 90 OFFCURVE",
"212 102 OFFCURVE",
"216 115 CURVE SMOOTH",
"358 584 LINE"
);
},
{
closed = 1;
nodes = (
"400 263 LINE",
"259 263 LINE",
"233 179 LINE",
"424 179 LINE"
);
},
{
closed = 1;
nodes = (
"436 129 LINE SMOOTH",
"441 112 OFFCURVE",
"440 94 OFFCURVE",
"441 76 CURVE",
"382 65 LINE",
"387 -5 LINE",
"387 -5 OFFCURVE",
"541 0 OFFCURVE",
"591 0 CURVE",
"675 0 LINE",
"680 71 LINE",
"621 80 LINE",
"613 96 OFFCURVE",
"607 111 OFFCURVE",
"601 128 CURVE SMOOTH",
"401 716 LINE",
"289 705 LINE",
"308 582 LINE"
);
}
);
width = 692;
}
);
leftKerningGroup = A;
rightKerningGroup = A;
unicode = 0041;
},
{
color = 0;
glyphname = AE;
lastChange = "2015-06-18 07:52:54 +0000";
layers = (
{
anchors = (
{
name = top;
position = "{517, 705}";
}
);
background = {
paths = (
{
closed = 1;
nodes = (
"470 130 LINE",
"473 110 OFFCURVE",
"475 90 OFFCURVE",
"475 64 CURVE",
"402 44 LINE",
"406 -5 LINE",
"406 -5 OFFCURVE",
"518 0 OFFCURVE",
"549 0 CURVE",
"734 0 LINE SMOOTH",
"754 0 OFFCURVE",
"848 -4 OFFCURVE",
"848 -4 CURVE",
"867 14 LINE",
"882 165 LINE",
"827 170 LINE",
"825 154 OFFCURVE",
"816 118 OFFCURVE",
"812 103 CURVE SMOOTH",
"810 96 OFFCURVE",
"801 80 OFFCURVE",
"791 66 CURVE",
"769 62 OFFCURVE",
"734 57 OFFCURVE",
"704 57 CURVE SMOOTH",
"582 57 LINE",
"557 167 LINE",
"500 541 LINE",
"494 578 OFFCURVE",
"491 627 OFFCURVE",
"489 649 CURVE",
"670 649 LINE SMOOTH",
"698 649 OFFCURVE",
"729 646 OFFCURVE",
"751 644 CURVE",
"761 631 OFFCURVE",
"770 617 OFFCURVE",
"771 610 CURVE",
"775 595 OFFCURVE",
"780 572 OFFCURVE",
"782 556 CURVE",
"840 561 LINE",
"833 697 LINE",
"814 715 LINE",
"814 715 OFFCURVE",
"720 705 OFFCURVE",
"700 705 CURVE SMOOTH",
"403 705 LINE SMOOTH",
"383 705 OFFCURVE",
"287 710 OFFCURVE",
"287 710 CURVE",
"282 656 LINE",
"360 644 LINE",
"129 160 LINE SMOOTH",
"122 145 OFFCURVE",
"91 93 OFFCURVE",
"68 61 CURVE",
"5 44 LINE",
"9 -5 LINE",
"9 -5 OFFCURVE",
"119 0 OFFCURVE",
"144 0 CURVE",
"230 0 LINE",
"235 54 LINE",
"165 64 LINE",
"169 80 OFFCURVE",
"179 119 OFFCURVE",
"183 127 CURVE",
"400 584 LINE"
);
},
{
closed = 1;
nodes = (
"628 326 LINE",
"648 326 OFFCURVE",
"708 320 OFFCURVE",
"708 320 CURVE",
"717 257 LINE",
"765 263 LINE",
"765 263 OFFCURVE",
"762 322 OFFCURVE",
"762 372 CURVE SMOOTH",
"762 392 OFFCURVE",
"763 452 OFFCURVE",
"763 452 CURVE",
"717 457 LINE",
"708 391 LINE",
"708 391 OFFCURVE",
"668 382 OFFCURVE",
"648 382 CURVE",
"515 382 LINE",
"522 326 LINE"
);
},
{
closed = 1;
nodes = (
"453 285 LINE",
"248 285 LINE",
"230 232 LINE",
"460 232 LINE"
);
}
);
};
layerId = UUID0;
name = Regular;
paths = (
{
closed = 1;
nodes = (
"470 130 LINE SMOOTH",
"473 110 OFFCURVE",
"475 90 OFFCURVE",
"475 64 CURVE",
"402 44 LINE",
"406 -5 LINE",
"406 -5 OFFCURVE",
"518 0 OFFCURVE",
"549 0 CURVE",
"734 0 LINE SMOOTH",
"754 0 OFFCURVE",
"848 -4 OFFCURVE",
"848 -4 CURVE",
"867 14 LINE",
"882 165 LINE",
"827 170 LINE",
"825 154 OFFCURVE",
"816 118 OFFCURVE",
"812 103 CURVE SMOOTH",
"810 96 OFFCURVE",
"801 80 OFFCURVE",
"791 66 CURVE",
"769 62 OFFCURVE",
"734 57 OFFCURVE",
"704 57 CURVE SMOOTH",
"582 57 LINE",
"557 167 LINE SMOOTH",
"500 541 LINE SMOOTH",
"494 578 OFFCURVE",
"491 627 OFFCURVE",
"489 649 CURVE",
"670 649 LINE SMOOTH",
"698 649 OFFCURVE",
"729 646 OFFCURVE",
"751 644 CURVE",
"761 631 OFFCURVE",
"770 617 OFFCURVE",
"771 610 CURVE",
"775 595 OFFCURVE",
"780 572 OFFCURVE",
"782 556 CURVE",
"840 561 LINE",
"833 697 LINE",
"814 715 LINE",
"814 715 OFFCURVE",
"720 705 OFFCURVE",
"700 705 CURVE SMOOTH",
"389 705 LINE",
"129 160 LINE SMOOTH",
"122 145 OFFCURVE",
"91 93 OFFCURVE",
"68 61 CURVE",
"5 44 LINE",
"9 -5 LINE",
"9 -5 OFFCURVE",
"119 0 OFFCURVE",
"144 0 CURVE",
"230 0 LINE",
"235 54 LINE",
"165 64 LINE",
"169 80 OFFCURVE",
"179 119 OFFCURVE",
"183 127 CURVE SMOOTH",
"400 584 LINE"
);
},
{
closed = 1;
nodes = (
"628 326 LINE",
"648 326 OFFCURVE",
"708 320 OFFCURVE",
"708 320 CURVE",
"717 257 LINE",
"765 263 LINE",
"765 263 OFFCURVE",
"762 322 OFFCURVE",
"762 372 CURVE SMOOTH",
"762 392 OFFCURVE",
"763 452 OFFCURVE",
"763 452 CURVE",
"717 457 LINE",
"708 391 LINE",
"708 391 OFFCURVE",
"668 382 OFFCURVE",
"648 382 CURVE",
"515 382 LINE",
"522 326 LINE"
);
},
{
closed = 1;
nodes = (
"453 285 LINE",
"248 285 LINE",
"230 232 LINE",
"460 232 LINE"
);
}
);
width = 917;
},
{
anchors = (
{
name = top;
position = "{531, 705}";
}
);
background = {
paths = (
{
closed = 1;
nodes = (
"226 179 LINE",
"252 263 LINE",
"453 263 LINE",
"477 179 LINE"
);
},
{
closed = 1;
nodes = (
"201 115 LINE",
"186 77 LINE",
"252 71 LINE",
"247 0 LINE",
"143 0 LINE",
"113 0 OFFCURVE",
"8 -5 OFFCURVE",
"8 -5 CURVE",
"3 65 LINE",
"47 73 LINE",
"108 161 LINE",
"371 623 LINE",
"304 635 LINE",
"309 710 LINE",
"309 710 OFFCURVE",
"399 705 OFFCURVE",
"429 705 CURVE SMOOTH",
"742 705 LINE SMOOTH",
"762 705 OFFCURVE",
"856 715 OFFCURVE",
"856 715 CURVE",
"875 697 LINE",
"882 542 LINE",
"810 537 LINE",
"808 553 OFFCURVE",
"805 575 OFFCURVE",
"801 590 CURVE",
"800 594 OFFCURVE",
"796 608 OFFCURVE",
"792 618 CURVE",
"772 620 OFFCURVE",
"742 623 OFFCURVE",
"712 623 CURVE SMOOTH",
"545 623 LINE",
"546 605 OFFCURVE",
"549 558 OFFCURVE",
"551 542 CURVE",
"605 193 LINE",
"625 87 LINE",
"726 87 LINE SMOOTH",
"755 87 OFFCURVE",
"783 91 OFFCURVE",
"803 95 CURVE",
"812 114 OFFCURVE",
"821 132 OFFCURVE",
"822 138 CURVE SMOOTH",
"826 153 OFFCURVE",
"832 179 OFFCURVE",
"834 195 CURVE",
"904 190 LINE",
"889 14 LINE",
"870 -4 LINE",
"870 -4 OFFCURVE",
"776 0 OFFCURVE",
"756 0 CURVE",
"619 0 LINE",
"569 0 OFFCURVE",
"415 -5 OFFCURVE",
"415 -5 CURVE",
"410 65 LINE",
"469 76 LINE",
"464 129 LINE",
"409 487 LINE"
);
},
{
closed = 1;
nodes = (
"509 398 LINE SMOOTH",
"680 398 LINE SMOOTH",
"700 398 OFFCURVE",
"724 407 OFFCURVE",
"724 407 CURVE",
"733 471 LINE",
"795 466 LINE",
"795 466 OFFCURVE",
"794 406 OFFCURVE",
"794 386 CURVE SMOOTH",
"794 333 OFFCURVE",
"797 256 OFFCURVE",
"797 256 CURVE",
"733 250 LINE",
"724 310 LINE",
"724 310 OFFCURVE",
"680 316 OFFCURVE",
"660 316 CURVE SMOOTH",
"514 316 LINE"
);
}
);
};
layerId = "16643525-C5DD-48EC-8E99-463BF28F5E85";
leftMetricsKey = "=A";
rightMetricsKey = "=E";
name = Bold;
paths = (
{
closed = 1;
nodes = (
"226 179 LINE",
"252 263 LINE",
"453 263 LINE",
"477 179 LINE"
);
},
{
closed = 1;
nodes = (
"422 705 LINE",
"742 705 LINE SMOOTH",
"762 705 OFFCURVE",
"856 715 OFFCURVE",
"856 715 CURVE",
"875 697 LINE",
"882 542 LINE",
"810 537 LINE",
"808 553 OFFCURVE",
"805 575 OFFCURVE",
"801 590 CURVE",
"800 594 OFFCURVE",
"796 608 OFFCURVE",
"792 618 CURVE",
"772 620 OFFCURVE",
"742 623 OFFCURVE",
"712 623 CURVE SMOOTH",
"545 623 LINE",
"546 605 OFFCURVE",
"549 558 OFFCURVE",
"551 542 CURVE",
"605 193 LINE",
"625 87 LINE",
"726 87 LINE SMOOTH",
"755 87 OFFCURVE",
"783 91 OFFCURVE",
"803 95 CURVE",
"812 114 OFFCURVE",
"821 132 OFFCURVE",
"822 138 CURVE SMOOTH",
"826 153 OFFCURVE",
"832 179 OFFCURVE",
"834 195 CURVE",
"904 190 LINE",
"889 14 LINE",
"870 -4 LINE",
"870 -4 OFFCURVE",
"776 0 OFFCURVE",
"756 0 CURVE",
"619 0 LINE",
"569 0 OFFCURVE",
"415 -5 OFFCURVE",
"415 -5 CURVE",
"410 65 LINE",
"469 76 LINE",
"468 93 OFFCURVE",
"467 111 OFFCURVE",
"464 129 CURVE SMOOTH",
"409 487 LINE"
);
},
{
closed = 1;
nodes = (
"509 398 LINE SMOOTH",
"680 398 LINE SMOOTH",
"700 398 OFFCURVE",
"724 407 OFFCURVE",
"724 407 CURVE",
"733 471 LINE",
"795 466 LINE",
"795 466 OFFCURVE",
"794 406 OFFCURVE",
"794 386 CURVE SMOOTH",
"794 333 OFFCURVE",
"797 256 OFFCURVE",
"797 256 CURVE",
"733 250 LINE",
"724 310 LINE",
"724 310 OFFCURVE",
"680 316 OFFCURVE",
"660 316 CURVE SMOOTH",
"514 316 LINE"
);
},
{
closed = 1;
nodes = (
"419 487 LINE",
"211 115 LINE SMOOTH",
"205 105 OFFCURVE",
"199 85 OFFCURVE",
"196 77 CURVE",
"262 71 LINE",
"257 0 LINE",
"153 0 LINE",
"123 0 OFFCURVE",
"18 -5 OFFCURVE",
"18 -5 CURVE",
"13 65 LINE",
"52 73 LINE",
"62 86 OFFCURVE",
"101 141 OFFCURVE",
"113 161 CURVE SMOOTH",
"422 705 LINE"
);
}
);
width = 950;
}
);
leftKerningGroup = A;
leftMetricsKey = "=A";
rightKerningGroup = E;
rightMetricsKey = "=E";
unicode = 00C6;
},
{
color = 0;
glyphname = Aacute;
lastChange = "2015-06-18 08:01:47 +0000";
layers = (
{
anchors = (
{
name = _top;
position = "{322, 705}";
},
{
name = bottom;
position = "{318, 0}";
},
{
name = ogonek;
position = "{650, 0}";
},
{
name = top;
position = "{322, 705}";
}
);
layerId = UUID0;
name = Regular;
paths = (
{
closed = 1;
nodes = (
"448 172 LINE SMOOTH",
"460 137 OFFCURVE",
"467 100 OFFCURVE",
"475 64 CURVE",
"402 44 LINE",
"406 -5 LINE",
"406 -5 OFFCURVE",
"518 0 OFFCURVE",
"549 0 CURVE",
"650 0 LINE",
"655 54 LINE",
"593 64 LINE",
"580 91 OFFCURVE",
"564 120 OFFCURVE",
"554 149 CURVE SMOOTH",
"348 715 LINE",
"290 705 LINE",
"111 160 LINE SMOOTH",
"100 126 OFFCURVE",
"82 89 OFFCURVE",
"68 61 CURVE",
"5 44 LINE",
"9 -5 LINE",
"9 -5 OFFCURVE",
"119 0 OFFCURVE",
"144 0 CURVE",
"230 0 LINE",
"235 54 LINE",
"165 64 LINE",
"167 85 OFFCURVE",
"169 107 OFFCURVE",
"175 127 CURVE SMOOTH",
"313 557 LINE"
);
},
{
closed = 1;
nodes = (
"412 285 LINE",
"220 285 LINE",
"202 232 LINE",
"432 232 LINE"
);
},
{
closed = 1;
nodes = (
"441 889 LINE",
"212 788 LINE",
"227 746 LINE",
"467 824 LINE"
);
}
);
width = 660;
},
{
components = (
{
name = A;
transform = "{1, 0, 0, 1, 0, 0}";
},
{
name = acute.cap;
transform = "{1, 0, 0, 1, 192, 211}";
}
);
layerId = "16643525-C5DD-48EC-8E99-463BF28F5E85";
name = Bold;
width = 692;
}
);
unicode = 00C1;
},
{
color = 0;
glyphname = Abreve;
lastChange = "2015-06-18 08:01:47 +0000";
layers = (
{
anchors = (
{
name = _top;
position = "{322, 705}";
},
{
name = bottom;
position = "{318, 0}";
},
{
name = ogonek;
position = "{650, 0}";
},
{
name = top;
position = "{322, 705}";
}
);
layerId = UUID0;
name = Regular;
paths = (
{
closed = 1;
nodes = (
"448 172 LINE SMOOTH",
"460 137 OFFCURVE",
"467 100 OFFCURVE",
"475 64 CURVE",
"402 44 LINE",
"406 -5 LINE",
"406 -5 OFFCURVE",
"518 0 OFFCURVE",
"549 0 CURVE",
"650 0 LINE",
"655 54 LINE",
"593 64 LINE",
"580 91 OFFCURVE",
"564 120 OFFCURVE",
"554 149 CURVE SMOOTH",
"348 715 LINE",
"290 705 LINE",
"111 160 LINE SMOOTH",
"100 126 OFFCURVE",
"82 89 OFFCURVE",
"68 61 CURVE",
"5 44 LINE",
"9 -5 LINE",
"9 -5 OFFCURVE",
"119 0 OFFCURVE",
"144 0 CURVE",
"230 0 LINE",
"235 54 LINE",
"165 64 LINE",
"167 85 OFFCURVE",
"169 107 OFFCURVE",
"175 127 CURVE SMOOTH",
"313 557 LINE"
);
},
{
closed = 1;
nodes = (
"412 285 LINE",
"220 285 LINE",
"202 232 LINE",
"432 232 LINE"
);
},
{
closed = 1;
nodes = (
"405 881 LINE",
"405 831 OFFCURVE",
"372 797 OFFCURVE",
"322 797 CURVE",
"272 797 OFFCURVE",
"239 831 OFFCURVE",
"239 881 CURVE",
"183 881 LINE",
"183 791 OFFCURVE",
"232 741 OFFCURVE",
"322 741 CURVE SMOOTH",
"412 741 OFFCURVE",
"461 791 OFFCURVE",
"461 881 CURVE"
);
}
);
width = 660;
},
{
components = (
{
name = A;
transform = "{1, 0, 0, 1, 0, 0}";
},
{
name = breve.cap;
transform = "{1, 0, 0, 1, 172, 211}";
}
);
layerId = "16643525-C5DD-48EC-8E99-463BF28F5E85";
name = Bold;
width = 692;
}
);
unicode = 0102;
},
{
color = 0;
glyphname = Acircumflex;
lastChange = "2015-06-18 08:01:47 +0000";
layers = (
{
anchors = (
{
name = _top;
position = "{322, 705}";
},
{
name = bottom;
position = "{318, 0}";
},
{
name = ogonek;
position = "{650, 0}";
},
{
name = top;
position = "{322, 705}";
}
);
layerId = UUID0;
name = Regular;
paths = (
{
closed = 1;
nodes = (
"448 172 LINE SMOOTH",
"460 137 OFFCURVE",
"467 100 OFFCURVE",
"475 64 CURVE",
"402 44 LINE",
"406 -5 LINE",
"406 -5 OFFCURVE",
"518 0 OFFCURVE",
"549 0 CURVE",
"650 0 LINE",
"655 54 LINE",
"593 64 LINE",
"580 91 OFFCURVE",
"564 120 OFFCURVE",
"554 149 CURVE SMOOTH",
"348 715 LINE",
"290 705 LINE",
"111 160 LINE SMOOTH",
"100 126 OFFCURVE",
"82 89 OFFCURVE",
"68 61 CURVE",
"5 44 LINE",
"9 -5 LINE",
"9 -5 OFFCURVE",
"119 0 OFFCURVE",
"144 0 CURVE",
"230 0 LINE",
"235 54 LINE",
"165 64 LINE",
"167 85 OFFCURVE",
"169 107 OFFCURVE",
"175 127 CURVE SMOOTH",
"313 557 LINE"
);
},
{
closed = 1;
nodes = (
"412 285 LINE",
"220 285 LINE",
"202 232 LINE",
"432 232 LINE"
);
},
{
closed = 1;
nodes = (
"288 867 LINE",
"147 780 LINE",
"171 741 LINE",
"362 828 LINE",
"329 867 LINE"
);
},
{
closed = 1;
nodes = (
"281 828 LINE",
"472 741 LINE",
"496 780 LINE",
"355 867 LINE",
"314 867 LINE"
);
}
);
width = 660;
},
{
components = (
{
name = A;
transform = "{1, 0, 0, 1, 0, 0}";
},
{
name = circumflex.cap;
transform = "{1, 0, 0, 1, 172, 211}";
}
);
layerId = "16643525-C5DD-48EC-8E99-463BF28F5E85";
name = Bold;
width = 692;
}
);
unicode = 00C2;
},
{
color = 0;
glyphname = Adieresis;
lastChange = "2015-06-18 08:04:27 +0000";
layers = (
{
anchors = (
{
name = _top;
position = "{322, 705}";
},
{
name = bottom;
position = "{318, 0}";
},
{
name = ogonek;
position = "{650, 0}";
},
{
name = top;
position = "{322, 705}";
}
);
layerId = UUID0;
name = Regular;
paths = (
{
closed = 1;
nodes = (
"448 172 LINE SMOOTH",
"460 137 OFFCURVE",
"467 100 OFFCURVE",
"475 64 CURVE",
"402 44 LINE",
"406 -5 LINE",
"406 -5 OFFCURVE",
"518 0 OFFCURVE",
"549 0 CURVE",
"650 0 LINE",
"655 54 LINE",
"593 64 LINE",
"580 91 OFFCURVE",
"564 120 OFFCURVE",
"554 149 CURVE SMOOTH",
"348 715 LINE",
"290 705 LINE",
"111 160 LINE SMOOTH",
"100 126 OFFCURVE",
"82 89 OFFCURVE",
"68 61 CURVE",
"5 44 LINE",
"9 -5 LINE",
"9 -5 OFFCURVE",
"119 0 OFFCURVE",
"144 0 CURVE",
"230 0 LINE",
"235 54 LINE",
"165 64 LINE",
"167 85 OFFCURVE",
"169 107 OFFCURVE",
"175 127 CURVE SMOOTH",
"313 557 LINE"
);
},
{
closed = 1;
nodes = (
"412 285 LINE",
"220 285 LINE",
"202 232 LINE",
"432 232 LINE"
);
},
{
closed = 1;
nodes = (
"404 860 OFFCURVE",
"386 836 OFFCURVE",
"386 800 CURVE SMOOTH",
"386 764 OFFCURVE",
"404 741 OFFCURVE",
"440 741 CURVE SMOOTH",
"476 741 OFFCURVE",
"494 764 OFFCURVE",
"494 800 CURVE SMOOTH",
"494 839 OFFCURVE",
"475 860 OFFCURVE",
"440 860 CURVE SMOOTH"
);
},
{
closed = 1;
nodes = (
"168 860 OFFCURVE",
"150 836 OFFCURVE",
"150 800 CURVE SMOOTH",
"150 764 OFFCURVE",
"168 741 OFFCURVE",
"204 741 CURVE SMOOTH",
"240 741 OFFCURVE",
"258 764 OFFCURVE",
"258 800 CURVE SMOOTH",
"258 839 OFFCURVE",
"239 860 OFFCURVE",
"204 860 CURVE SMOOTH"
);
}
);
width = 660;
},
{
components = (
{
name = A;
transform = "{1, 0, 0, 1, 0, 0}";
},
{
name = dieresis.cap;
transform = "{1, 0, 0, 1, 172, 261}";
}
);
layerId = "16643525-C5DD-48EC-8E99-463BF28F5E85";
name = Bold;
width = 692;
}
);
leftKerningGroup = A;
rightKerningGroup = A;
unicode = 00C4;
},
{
color = 0;
glyphname = Agrave;
lastChange = "2015-06-18 08:01:47 +0000";
layers = (
{
anchors = (
{
name = _top;
position = "{322, 705}";
},
{
name = bottom;
position = "{318, 0}";
},
{
name = ogonek;
position = "{650, 0}";
},
{
name = top;
position = "{322, 705}";
}
);
layerId = UUID0;
name = Regular;
paths = (
{
closed = 1;
nodes = (
"448 172 LINE SMOOTH",
"460 137 OFFCURVE",
"467 100 OFFCURVE",
"475 64 CURVE",
"402 44 LINE",
"406 -5 LINE",
"406 -5 OFFCURVE",
"518 0 OFFCURVE",
"549 0 CURVE",
"650 0 LINE",
"655 54 LINE",
"593 64 LINE",
"580 91 OFFCURVE",
"564 120 OFFCURVE",
"554 149 CURVE SMOOTH",
"348 715 LINE",
"290 705 LINE",
"111 160 LINE SMOOTH",
"100 126 OFFCURVE",
"82 89 OFFCURVE",
"68 61 CURVE",
"5 44 LINE",
"9 -5 LINE",
"9 -5 OFFCURVE",
"119 0 OFFCURVE",
"144 0 CURVE",
"230 0 LINE",
"235 54 LINE",
"165 64 LINE",
"167 85 OFFCURVE",
"169 107 OFFCURVE",
"175 127 CURVE SMOOTH",
"313 557 LINE"
);
},
{
closed = 1;
nodes = (
"412 285 LINE",
"220 285 LINE",
"202 232 LINE",
"432 232 LINE"
);
},
{
closed = 1;
nodes = (
"430 746 LINE",
"445 788 LINE",
"216 889 LINE",
"190 824 LINE"
);
}
);
width = 660;
},
{
components = (
{
name = A;
transform = "{1, 0, 0, 1, 0, 0}";
},
{
name = grave.cap;
transform = "{1, 0, 0, 1, 155, 211}";
}
);
layerId = "16643525-C5DD-48EC-8E99-463BF28F5E85";
name = Bold;
width = 692;
}
);
leftKerningGroup = A;
rightKerningGroup = A;
unicode = 00C0;
},
{
color = 0;
glyphname = Amacron;
lastChange = "2015-06-18 08:01:47 +0000";
layers = (
{
anchors = (
{
name = _top;
position = "{322, 705}";
},
{
name = bottom;
position = "{318, 0}";
},
{
name = ogonek;
position = "{650, 0}";
},
{
name = top;
position = "{322, 705}";
}
);
layerId = UUID0;
name = Regular;
paths = (
{
closed = 1;
nodes = (
"448 172 LINE SMOOTH",
"460 137 OFFCURVE",
"467 100 OFFCURVE",
"475 64 CURVE",
"402 44 LINE",
"406 -5 LINE",
"406 -5 OFFCURVE",
"518 0 OFFCURVE",
"549 0 CURVE",
"650 0 LINE",
"655 54 LINE",
"593 64 LINE",
"580 91 OFFCURVE",
"564 120 OFFCURVE",
"554 149 CURVE SMOOTH",
"348 715 LINE",
"290 705 LINE",
"111 160 LINE SMOOTH",
"100 126 OFFCURVE",
"82 89 OFFCURVE",
"68 61 CURVE",
"5 44 LINE",
"9 -5 LINE",
"9 -5 OFFCURVE",
"119 0 OFFCURVE",
"144 0 CURVE",
"230 0 LINE",
"235 54 LINE",
"165 64 LINE",
"167 85 OFFCURVE",
"169 107 OFFCURVE",
"175 127 CURVE SMOOTH",
"313 557 LINE"
);
},
{
closed = 1;
nodes = (
"412 285 LINE",
"220 285 LINE",
"202 232 LINE",
"432 232 LINE"
);
},
{
closed = 1;
nodes = (
"478 755 LINE",
"483 815 LINE",
"161 815 LINE",
"161 755 LINE"
);
}
);
width = 660;
},
{
components = (
{
name = A;
transform = "{1, 0, 0, 1, 0, 0}";
},
{
name = macron.cap;
transform = "{1, 0, 0, 1, 172, 211}";
}
);
layerId = "16643525-C5DD-48EC-8E99-463BF28F5E85";
name = Bold;
width = 692;
}
);
leftKerningGroup = A;
rightKerningGroup = A;
unicode = 0100;
},
{
color = 0;
glyphname = Aogonek;
lastChange = "2015-06-18 08:01:47 +0000";
layers = (
{
anchors = (
{
name = _ogonek;
position = "{650, 0}";
},
{
name = bottom;
position = "{318, 0}";
},
{
name = ogonek;
position = "{650, 0}";
},
{
name = top;
position = "{322, 705}";
}
);
layerId = UUID0;
name = Regular;
paths = (
{
closed = 1;
nodes = (
"448 172 LINE SMOOTH",
"460 137 OFFCURVE",
"467 100 OFFCURVE",
"475 64 CURVE",
"402 44 LINE",
"406 -5 LINE",
"406 -5 OFFCURVE",
"518 0 OFFCURVE",
"549 0 CURVE",
"650 0 LINE",
"655 54 LINE",
"593 64 LINE",
"580 91 OFFCURVE",
"564 120 OFFCURVE",
"554 149 CURVE SMOOTH",
"348 715 LINE",
"290 705 LINE",
"111 160 LINE SMOOTH",
"100 126 OFFCURVE",
"82 89 OFFCURVE",
"68 61 CURVE",
"5 44 LINE",
"9 -5 LINE",
"9 -5 OFFCURVE",
"119 0 OFFCURVE",
"144 0 CURVE",
"230 0 LINE",
"235 54 LINE",
"165 64 LINE",
"167 85 OFFCURVE",
"169 107 OFFCURVE",
"175 127 CURVE SMOOTH",
"313 557 LINE"
);
},
{
closed = 1;
nodes = (
"412 285 LINE",
"220 285 LINE",
"202 232 LINE",
"432 232 LINE"
);
},
{
closed = 1;
nodes = (
"502 -29 OFFCURVE",
"473 -74 OFFCURVE",
"473 -120 CURVE SMOOTH",
"473 -189 OFFCURVE",
"537 -211 OFFCURVE",
"588 -211 CURVE SMOOTH",
"610 -211 OFFCURVE",
"634 -206 OFFCURVE",
"652 -199 CURVE",
"641 -156 LINE",
"630 -159 OFFCURVE",
"618 -161 OFFCURVE",
"607 -161 CURVE SMOOTH",
"567 -161 OFFCURVE",
"548 -141 OFFCURVE",
"548 -115 CURVE SMOOTH",
"548 -78 OFFCURVE",
"586 -26 OFFCURVE",
"650 0 CURVE",
"584 10 LINE"
);
}
);
width = 660;
},
{
components = (
{
name = A;
transform = "{1, 0, 0, 1, 0, 0}";
},
{
name = ogonek;
transform = "{1, 0, 0, 1, 368, -6}";
}
);
layerId = "16643525-C5DD-48EC-8E99-463BF28F5E85";
name = Bold;
width = 692;
}
);
unicode = 0104;
},
{
color = 0;
glyphname = Atilde;
lastChange = "2015-06-18 08:01:47 +0000";
layers = (
{
anchors = (
{
name = _top;
position = "{322, 705}";
},
{
name = bottom;
position = "{318, 0}";
},
{
name = ogonek;
position = "{650, 0}";
},
{
name = top;
position = "{322, 705}";
}
);
layerId = UUID0;
name = Regular;
paths = (
{
closed = 1;
nodes = (
"448 172 LINE SMOOTH",
"460 137 OFFCURVE",
"467 100 OFFCURVE",
"475 64 CURVE",
"402 44 LINE",
"406 -5 LINE",
"406 -5 OFFCURVE",
"518 0 OFFCURVE",
"549 0 CURVE",
"650 0 LINE",
"655 54 LINE",
"593 64 LINE",
"580 91 OFFCURVE",
"564 120 OFFCURVE",
"554 149 CURVE SMOOTH",
"348 715 LINE",
"290 705 LINE",
"111 160 LINE SMOOTH",
"100 126 OFFCURVE",
"82 89 OFFCURVE",
"68 61 CURVE",
"5 44 LINE",
"9 -5 LINE",
"9 -5 OFFCURVE",
"119 0 OFFCURVE",
"144 0 CURVE",
"230 0 LINE",
"235 54 LINE",
"165 64 LINE",
"167 85 OFFCURVE",
"169 107 OFFCURVE",
"175 127 CURVE SMOOTH",
"313 557 LINE"
);
},
{
closed = 1;
nodes = (
"412 285 LINE",
"220 285 LINE",
"202 232 LINE",
"432 232 LINE"
);
},
{
closed = 1;
nodes = (
"454 870 LINE",
"454 870 OFFCURVE",
"428 819 OFFCURVE",
"401 819 CURVE SMOOTH",
"361 819 OFFCURVE",
"276 860 OFFCURVE",
"236 860 CURVE SMOOTH",
"196 860 OFFCURVE",
"154 759 OFFCURVE",
"154 759 CURVE",
"190 738 LINE",
"190 738 OFFCURVE",
"216 792 OFFCURVE",
"243 792 CURVE SMOOTH",
"283 792 OFFCURVE",
"367 751 OFFCURVE",
"407 751 CURVE SMOOTH",
"447 751 OFFCURVE",
"490 849 OFFCURVE",
"490 849 CURVE"
);
}
);
width = 660;
},
{
components = (
{
name = A;
transform = "{1, 0, 0, 1, 0, 0}";
},
{
name = tilde.cap;
transform = "{1, 0, 0, 1, 162, 211}";
}
);
layerId = "16643525-C5DD-48EC-8E99-463BF28F5E85";
name = Bold;
width = 692;
}
);
leftKerningGroup = A;
rightKerningGroup = A;
unicode = 00C3;
},
{
color = 0;
glyphname = B;
lastChange = "2015-06-18 07:52:54 +0000";
layers = (
{
background = {
paths = (
{
closed = 1;
nodes = (
"297 710 LINE",
"297 710 OFFCURVE",
"219 705 OFFCURVE",
"159 705 CURVE SMOOTH",
"139 705 OFFCURVE",
"44 710 OFFCURVE",
"44 710 CURVE",
"39 656 LINE",
"116 644 LINE",
"118 631 OFFCURVE",
"125 585 OFFCURVE",
"125 568 CURVE SMOOTH",
"125 137 LINE SMOOTH",
"125 120 OFFCURVE",
"118 74 OFFCURVE",
"116 61 CURVE",
"37 45 LINE",
"42 -5 LINE",
"42 -5 OFFCURVE",
"152 0 OFFCURVE",
"177 0 CURVE",
"306 0 LINE",
"313 54 LINE",
"223 61 LINE",
"221 75 OFFCURVE",
"216 125 OFFCURVE",
"216 167 CURVE SMOOTH",
"216 538 LINE SMOOTH",
"216 580 OFFCURVE",
"221 630 OFFCURVE",
"223 644 CURVE",
"301 651 LINE"
);
}
);
};
layerId = UUID0;
leftMetricsKey = "=H";
name = Regular;
paths = (
{
closed = 1;
nodes = (
"44 710 CURVE",
"39 656 LINE",
"116 644 LINE",
"118 631 OFFCURVE",
"125 585 OFFCURVE",
"125 568 CURVE SMOOTH",
"125 137 LINE SMOOTH",
"125 120 OFFCURVE",
"118 74 OFFCURVE",
"116 61 CURVE",
"37 45 LINE",
"42 -5 LINE",
"42 -5 OFFCURVE",
"152 0 OFFCURVE",
"177 0 CURVE",
"227 0 OFFCURVE",
"294 -4 OFFCURVE",
"344 -4 CURVE SMOOTH",
"458 -4 OFFCURVE",
"548 69 OFFCURVE",
"548 183 CURVE SMOOTH",
"548 287 OFFCURVE",
"477 348 OFFCURVE",
"378 363 CURVE",
"378 370 LINE",
"459 390 OFFCURVE",
"517 455 OFFCURVE",
"517 543 CURVE SMOOTH",
"517 648 OFFCURVE",
"430 710 OFFCURVE",
"327 710 CURVE SMOOTH",
"277 710 OFFCURVE",
"209 705 OFFCURVE",
"159 705 CURVE SMOOTH",
"139 705 OFFCURVE",
"64 709 OFFCURVE"
);
},
{
closed = 1;
nodes = (
"248 656 OFFCURVE",
"277 656 OFFCURVE",
"306 656 CURVE SMOOTH",
"376 656 OFFCURVE",
"424 606 OFFCURVE",
"424 531 CURVE SMOOTH",
"424 442 OFFCURVE",
"362 394 OFFCURVE",
"282 394 CURVE SMOOTH",
"275 394 LINE",
"268 337 LINE",
"279 337 LINE SMOOTH",
"368 337 OFFCURVE",
"447 292 OFFCURVE",
"447 191 CURVE SMOOTH",
"447 102 OFFCURVE",
"392 54 OFFCURVE",
"313 54 CURVE SMOOTH",
"280 54 OFFCURVE",
"247 57 OFFCURVE",
"222 59 CURVE",
"220 71 OFFCURVE",
"216 123 OFFCURVE",
"216 167 CURVE SMOOTH",
"216 538 LINE SMOOTH",
"216 582 OFFCURVE",
"221 642 OFFCURVE",
"223 655 CURVE"
);
}
);
width = 596;
},
{
background = {
paths = (
{
closed = 1;
nodes = (
"265 628 OFFCURVE",
"323 628 CURVE SMOOTH",
"393 628 OFFCURVE",
"428 586 OFFCURVE",
"428 521 CURVE SMOOTH",
"428 451 OFFCURVE",
"392 407 OFFCURVE",
"322 407 CURVE SMOOTH",
"316 407 LINE",
"309 320 LINE",
"319 320 LINE SMOOTH",
"394 320 OFFCURVE",
"451 292 OFFCURVE",
"451 203 CURVE SMOOTH",
"451 124 OFFCURVE",
"402 77 OFFCURVE",
"330 77 CURVE SMOOTH",
"311 77 OFFCURVE",
"292 78 OFFCURVE",
"274 80 CURVE",
"196 0 LINE",
"246 0 OFFCURVE",
"315 -5 OFFCURVE",
"365 -5 CURVE SMOOTH",
"494 -5 OFFCURVE",
"604 56 OFFCURVE",
"604 189 CURVE SMOOTH",
"604 293 OFFCURVE",
"532 349 OFFCURVE",
"434 364 CURVE",
"434 371 LINE",
"515 391 OFFCURVE",
"573 455 OFFCURVE",
"573 543 CURVE SMOOTH",
"573 648 OFFCURVE",
"468 710 OFFCURVE",
"348 710 CURVE SMOOTH",
"298 710 OFFCURVE",
"217 705 OFFCURVE",
"167 705 CURVE",
"121 614 LINE",
"199 620 OFFCURVE"
);
},
{
closed = 1;
nodes = (
"167 705 LINE",
"137 705 OFFCURVE",
"47 710 OFFCURVE",
"47 710 CURVE",
"42 635 LINE",
"107 623 LINE",
"109 607 OFFCURVE",
"116 562 OFFCURVE",
"116 512 CURVE SMOOTH",
"116 163 LINE SMOOTH",
"116 143 OFFCURVE",
"108 87 OFFCURVE",
"107 77 CURVE",
"41 65 LINE",
"46 -5 LINE",
"46 -5 OFFCURVE",
"166 0 OFFCURVE",
"196 0 CURVE",
"280 77 LINE",
"278 91 OFFCURVE",
"271 143 OFFCURVE",
"271 193 CURVE SMOOTH",
"271 542 LINE SMOOTH",
"271 562 OFFCURVE",
"275 621 OFFCURVE",
"277 646 CURVE"
);
}
);
};
layerId = "16643525-C5DD-48EC-8E99-463BF28F5E85";
name = Bold;
paths = (
{
closed = 1;
nodes = (
"199 620 OFFCURVE",
"265 628 OFFCURVE",
"323 628 CURVE SMOOTH",
"393 628 OFFCURVE",
"428 586 OFFCURVE",
"428 521 CURVE SMOOTH",
"428 451 OFFCURVE",
"392 407 OFFCURVE",
"322 407 CURVE SMOOTH",
"316 407 LINE",
"309 320 LINE",
"319 320 LINE SMOOTH",
"394 320 OFFCURVE",
"451 292 OFFCURVE",
"451 203 CURVE SMOOTH",
"451 124 OFFCURVE",
"402 77 OFFCURVE",
"330 77 CURVE SMOOTH",
"311 77 OFFCURVE",
"292 78 OFFCURVE",
"274 80 CURVE",
"196 0 LINE",
"246 0 OFFCURVE",
"315 -5 OFFCURVE",
"365 -5 CURVE SMOOTH",
"494 -5 OFFCURVE",
"604 56 OFFCURVE",
"604 189 CURVE SMOOTH",
"604 293 OFFCURVE",
"532 349 OFFCURVE",
"434 364 CURVE",
"434 371 LINE",
"515 391 OFFCURVE",
"573 455 OFFCURVE",
"573 543 CURVE SMOOTH",
"573 648 OFFCURVE",
"468 710 OFFCURVE",
"348 710 CURVE SMOOTH",
"298 710 OFFCURVE",
"217 705 OFFCURVE",
"167 705 CURVE",
"121 614 LINE"
);
},
{
closed = 1;
nodes = (
"167 705 LINE",
"137 705 OFFCURVE",
"47 710 OFFCURVE",
"47 710 CURVE",
"42 635 LINE",
"107 623 LINE",
"109 607 OFFCURVE",
"116 562 OFFCURVE",
"116 542 CURVE SMOOTH",
"116 163 LINE SMOOTH",
"116 143 OFFCURVE",
"108 87 OFFCURVE",
"107 77 CURVE",
"41 65 LINE",
"46 -5 LINE",
"46 -5 OFFCURVE",
"166 0 OFFCURVE",
"196 0 CURVE",
"280 57 LINE",
"278 81 OFFCURVE",
"271 153 OFFCURVE",
"271 193 CURVE SMOOTH",
"271 512 LINE SMOOTH",
"271 552 OFFCURVE",
"275 618 OFFCURVE",
"278 643 CURVE"
);
}
);
width = 651;
}
);
leftKerningGroup = H;
leftMetricsKey = "=H";
rightKerningGroup = B;
unicode = 0042;
},
{
color = 0;
glyphname = C;
lastChange = "2015-06-18 07:52:54 +0000";
layers = (
{
anchors = (
{
name = bottom;
position = "{347, 0}";
},
{
name = top;
position = "{344, 705}";
}
);
layerId = UUID0;
leftMetricsKey = "=O";
name = Regular;
paths = (
{
closed = 1;
nodes = (
"557 170 LINE",
"498 168 LINE",
"498 168 OFFCURVE",
"498 131 OFFCURVE",
"496 121 CURVE",
"496 111 OFFCURVE",
"489 88 OFFCURVE",
"482 65 CURVE",
"440 52 OFFCURVE",
"387 43 OFFCURVE",
"346 43 CURVE SMOOTH",
"203 43 OFFCURVE",
"133 180 OFFCURVE",
"133 353 CURVE SMOOTH",
"133 526 OFFCURVE",
"203 662 OFFCURVE",
"347 662 CURVE SMOOTH",
"385 662 OFFCURVE",
"434 652 OFFCURVE",
"473 639 CURVE",
"479 619 OFFCURVE",
"485 598 OFFCURVE",
"485 589 CURVE SMOOTH",
"485 542 LINE",
"544 538 LINE",
"554 686 LINE",
"491 702 OFFCURVE",
"429 720 OFFCURVE",
"347 720 CURVE SMOOTH",
"137 720 OFFCURVE",
"30 570 OFFCURVE",
"30 352 CURVE SMOOTH",
"30 134 OFFCURVE",
"137 -15 OFFCURVE",
"347 -15 CURVE SMOOTH",
"428 -15 OFFCURVE",
"500 3 OFFCURVE",
"563 19 CURVE"
);
}
);
width = 610;
},
{
anchors = (
{
name = bottom;
position = "{401, 0}";
},
{
name = top;
position = "{403, 705}";
}
);
layerId = "16643525-C5DD-48EC-8E99-463BF28F5E85";
name = Bold;
paths = (
{
closed = 1;
nodes = (
"619 191 LINE",
"544 189 LINE",
"544 189 OFFCURVE",
"542 153 OFFCURVE",
"541 142 CURVE",
"541 134 OFFCURVE",
"527 100 OFFCURVE",
"525 93 CURVE",
"480 83 OFFCURVE",
"444 78 OFFCURVE",
"401 78 CURVE SMOOTH",
"278 78 OFFCURVE",
"232 200 OFFCURVE",
"232 353 CURVE SMOOTH",
"232 506 OFFCURVE",
"279 627 OFFCURVE",
"402 627 CURVE SMOOTH",
"441 627 OFFCURVE",
"473 622 OFFCURVE",
"514 613 CURVE",
"519 600 OFFCURVE",
"526 578 OFFCURVE",
"526 572 CURVE SMOOTH",
"529 511 LINE",
"606 507 LINE",
"618 686 LINE",
"553 704 OFFCURVE",
"488 720 OFFCURVE",
"402 720 CURVE SMOOTH",
"170 720 OFFCURVE",
"52 570 OFFCURVE",
"52 352 CURVE SMOOTH",
"52 134 OFFCURVE",
"170 -15 OFFCURVE",
"402 -15 CURVE SMOOTH",
"487 -15 OFFCURVE",
"562 3 OFFCURVE",
"627 19 CURVE"
);
}
);
width = 679;
}
);
leftKerningGroup = O;
leftMetricsKey = "=O";
rightKerningGroup = C;
unicode = 0043;
},
{
color = 0;
glyphname = Cacute;
lastChange = "2015-06-18 08:01:47 +0000";
layers = (
{
anchors = (
{
name = _top;
position = "{344, 705}";
},
{
name = bottom;
position = "{347, 0}";
},
{
name = top;
position = "{344, 705}";
}
);
layerId = UUID0;
name = Regular;
paths = (
{
closed = 1;
nodes = (
"557 170 LINE",
"498 168 LINE",
"498 168 OFFCURVE",
"498 131 OFFCURVE",
"496 121 CURVE",
"496 111 OFFCURVE",
"489 88 OFFCURVE",
"482 65 CURVE",
"440 52 OFFCURVE",
"387 43 OFFCURVE",
"346 43 CURVE SMOOTH",
"203 43 OFFCURVE",
"133 180 OFFCURVE",
"133 353 CURVE SMOOTH",
"133 526 OFFCURVE",
"203 662 OFFCURVE",
"347 662 CURVE SMOOTH",
"385 662 OFFCURVE",
"434 652 OFFCURVE",
"473 639 CURVE",
"479 619 OFFCURVE",
"485 598 OFFCURVE",
"485 589 CURVE SMOOTH",
"485 542 LINE",
"544 538 LINE",
"554 686 LINE",
"491 702 OFFCURVE",
"429 720 OFFCURVE",
"347 720 CURVE SMOOTH",
"137 720 OFFCURVE",
"30 570 OFFCURVE",
"30 352 CURVE SMOOTH",
"30 134 OFFCURVE",
"137 -15 OFFCURVE",
"347 -15 CURVE SMOOTH",
"428 -15 OFFCURVE",
"500 3 OFFCURVE",
"563 19 CURVE"
);
},
{
closed = 1;
nodes = (
"463 889 LINE",
"234 788 LINE",
"249 746 LINE",
"489 824 LINE"
);
}
);
width = 610;
},
{
components = (
{
name = C;
transform = "{1, 0, 0, 1, 0, 0}";
},
{
name = acute.cap;
transform = "{1, 0, 0, 1, 243, 211}";
}
);
layerId = "16643525-C5DD-48EC-8E99-463BF28F5E85";
name = Bold;
width = 679;
}
);
unicode = 0106;
},
{
color = 0;
glyphname = Ccaron;
lastChange = "2015-06-18 08:01:47 +0000";
layers = (
{
anchors = (
{
name = _top_caps;
position = "{344, 396}";
},
{
name = bottom;
position = "{347, 0}";
},
{
name = top;
position = "{344, 705}";
}
);
layerId = UUID0;
name = Regular;
paths = (
{
closed = 1;
nodes = (
"557 170 LINE",
"498 168 LINE",
"498 168 OFFCURVE",
"498 131 OFFCURVE",
"496 121 CURVE",
"496 111 OFFCURVE",
"489 88 OFFCURVE",
"482 65 CURVE",
"440 52 OFFCURVE",
"387 43 OFFCURVE",
"346 43 CURVE SMOOTH",
"203 43 OFFCURVE",
"133 180 OFFCURVE",
"133 353 CURVE SMOOTH",
"133 526 OFFCURVE",
"203 662 OFFCURVE",
"347 662 CURVE SMOOTH",
"385 662 OFFCURVE",
"434 652 OFFCURVE",
"473 639 CURVE",
"479 619 OFFCURVE",
"485 598 OFFCURVE",
"485 589 CURVE SMOOTH",
"485 542 LINE",
"544 538 LINE",
"554 686 LINE",
"491 702 OFFCURVE",
"429 720 OFFCURVE",
"347 720 CURVE SMOOTH",
"137 720 OFFCURVE",
"30 570 OFFCURVE",
"30 352 CURVE SMOOTH",
"30 134 OFFCURVE",
"137 -15 OFFCURVE",
"347 -15 CURVE SMOOTH",
"428 -15 OFFCURVE",
"500 3 OFFCURVE",
"563 19 CURVE"
);
},
{
closed = 1;
nodes = (
"378 749 LINE",
"519 836 LINE",
"495 875 LINE",
"304 788 LINE",
"337 749 LINE"
);
},
{
closed = 1;
nodes = (
"385 788 LINE",
"194 875 LINE",
"170 836 LINE",
"311 749 LINE",
"352 749 LINE"
);
}
);
width = 610;
},
{
components = (
{
name = C;
transform = "{1, 0, 0, 1, 0, 0}";
},
{
name = caron.cap;
transform = "{1, 0, 0, 1, 223, 211}";
}
);
layerId = "16643525-C5DD-48EC-8E99-463BF28F5E85";
name = Bold;
width = 679;
}
);
unicode = 010C;
},
{
color = 0;
glyphname = Ccedilla;
lastChange = "2015-06-18 08:01:47 +0000";
layers = (
{
anchors = (
{
name = _bottom;
position = "{347, 0}";
},
{
name = bottom;
position = "{347, 0}";
},
{
name = top;
position = "{344, 705}";
}
);
layerId = UUID0;
name = Regular;
paths = (
{
closed = 1;
nodes = (
"557 170 LINE",
"498 168 LINE",
"498 168 OFFCURVE",
"498 131 OFFCURVE",
"496 121 CURVE",
"496 111 OFFCURVE",
"489 88 OFFCURVE",
"482 65 CURVE",
"440 52 OFFCURVE",
"387 43 OFFCURVE",
"346 43 CURVE SMOOTH",
"203 43 OFFCURVE",
"133 180 OFFCURVE",
"133 353 CURVE SMOOTH",
"133 526 OFFCURVE",
"203 662 OFFCURVE",
"347 662 CURVE SMOOTH",
"385 662 OFFCURVE",
"434 652 OFFCURVE",
"473 639 CURVE",
"479 619 OFFCURVE",
"485 598 OFFCURVE",
"485 589 CURVE SMOOTH",
"485 542 LINE",
"544 538 LINE",
"554 686 LINE",
"491 702 OFFCURVE",
"429 720 OFFCURVE",
"347 720 CURVE SMOOTH",
"137 720 OFFCURVE",
"30 570 OFFCURVE",
"30 352 CURVE SMOOTH",
"30 134 OFFCURVE",
"137 -15 OFFCURVE",
"347 -15 CURVE SMOOTH",
"428 -15 OFFCURVE",
"500 3 OFFCURVE",
"563 19 CURVE"
);
},
{
closed = 1;
nodes = (
"375 10 LINE",
"327 10 LINE",
"318 -94 LINE",
"329 -104 LINE",
"329 -104 OFFCURVE",
"344 -103 OFFCURVE",
"350 -103 CURVE SMOOTH",
"377 -103 OFFCURVE",
"397 -116 OFFCURVE",
"397 -146 CURVE SMOOTH",
"397 -176 OFFCURVE",
"375 -193 OFFCURVE",
"343 -193 CURVE SMOOTH",
"323 -193 OFFCURVE",
"301 -187 OFFCURVE",
"285 -182 CURVE",
"272 -217 LINE",
"289 -225 OFFCURVE",
"318 -235 OFFCURVE",
"355 -235 CURVE SMOOTH",
"414 -235 OFFCURVE",
"462 -200 OFFCURVE",
"462 -146 CURVE SMOOTH",
"462 -92 OFFCURVE",
"420 -60 OFFCURVE",
"361 -59 CURVE"
);
}
);
width = 610;
},
{
components = (
{
name = C;
transform = "{1, 0, 0, 1, 0, 0}";
},
{
name = cedilla;
transform = "{1, 0, 0, 1, 221, 0}";
}
);
layerId = "16643525-C5DD-48EC-8E99-463BF28F5E85";
name = Bold;
width = 679;
}
);
unicode = 00C7;
},
{
color = 0;
glyphname = Cdotaccent;
lastChange = "2015-06-18 08:01:47 +0000";
layers = (
{
anchors = (
{
name = _top;
position = "{344, 705}";
},
{
name = bottom;
position = "{347, 0}";
},
{
name = top;
position = "{344, 705}";
}
);
layerId = UUID0;
name = Regular;
paths = (
{
closed = 1;
nodes = (
"557 170 LINE",
"498 168 LINE",
"498 168 OFFCURVE",
"498 131 OFFCURVE",
"496 121 CURVE",
"496 111 OFFCURVE",
"489 88 OFFCURVE",
"482 65 CURVE",
"440 52 OFFCURVE",
"387 43 OFFCURVE",
"346 43 CURVE SMOOTH",
"203 43 OFFCURVE",
"133 180 OFFCURVE",
"133 353 CURVE SMOOTH",
"133 526 OFFCURVE",
"203 662 OFFCURVE",
"347 662 CURVE SMOOTH",
"385 662 OFFCURVE",
"434 652 OFFCURVE",
"473 639 CURVE",
"479 619 OFFCURVE",
"485 598 OFFCURVE",
"485 589 CURVE SMOOTH",
"485 542 LINE",
"544 538 LINE",
"554 686 LINE",
"491 702 OFFCURVE",
"429 720 OFFCURVE",
"347 720 CURVE SMOOTH",
"137 720 OFFCURVE",
"30 570 OFFCURVE",
"30 352 CURVE SMOOTH",
"30 134 OFFCURVE",
"137 -15 OFFCURVE",
"347 -15 CURVE SMOOTH",
"428 -15 OFFCURVE",
"500 3 OFFCURVE",
"563 19 CURVE"
);
},
{
closed = 1;
nodes = (
"306 872 OFFCURVE",
"285 845 OFFCURVE",
"285 807 CURVE SMOOTH",
"285 769 OFFCURVE",
"306 743 OFFCURVE",
"344 743 CURVE SMOOTH",
"382 743 OFFCURVE",
"403 769 OFFCURVE",
"403 807 CURVE SMOOTH",
"403 848 OFFCURVE",
"381 872 OFFCURVE",
"344 872 CURVE SMOOTH"
);
}
);
width = 610;
},
{
components = (
{
name = C;
transform = "{1, 0, 0, 1, 0, 0}";
},
{
name = dotaccent.cap;
transform = "{1, 0, 0, 1, 223, 211}";
}
);
layerId = "16643525-C5DD-48EC-8E99-463BF28F5E85";
name = Bold;
width = 679;
}
);
leftKerningGroup = O;
rightKerningGroup = C;
unicode = 010A;
},
{
color = 0;
glyphname = D;
lastChange = "2015-06-18 07:52:54 +0000";
layers = (
{
anchors = (
{
name = center;
position = "{356, 353}";
},
{
name = top;
position = "{326, 705}";
}
);
background = {
paths = (
{
closed = 1;
nodes = (
"297 710 LINE",
"297 710 OFFCURVE",
"219 705 OFFCURVE",
"159 705 CURVE SMOOTH",
"139 705 OFFCURVE",
"44 710 OFFCURVE",
"44 710 CURVE",
"39 656 LINE",
"116 644 LINE",
"118 631 OFFCURVE",
"125 585 OFFCURVE",
"125 568 CURVE SMOOTH",
"125 137 LINE SMOOTH",
"125 120 OFFCURVE",
"118 74 OFFCURVE",
"116 61 CURVE",
"37 45 LINE",
"42 -5 LINE",
"42 -5 OFFCURVE",
"152 0 OFFCURVE",
"177 0 CURVE",
"306 0 LINE",
"313 54 LINE",
"223 61 LINE",
"221 75 OFFCURVE",
"216 125 OFFCURVE",
"216 167 CURVE SMOOTH",
"216 538 LINE SMOOTH",
"216 580 OFFCURVE",
"221 630 OFFCURVE",
"223 644 CURVE",
"301 651 LINE"
);
}
);
};
guideLines = (
{
position = "{269, 55}";
}
);
layerId = UUID0;
leftMetricsKey = "=H";
rightMetricsKey = "=O";
name = Regular;
paths = (
{
closed = 1;
nodes = (
"44 710 CURVE",
"39 656 LINE",
"116 644 LINE",
"118 631 OFFCURVE",
"125 585 OFFCURVE",
"125 568 CURVE SMOOTH",
"125 137 LINE SMOOTH",
"125 120 OFFCURVE",
"118 74 OFFCURVE",
"116 61 CURVE",
"37 45 LINE",
"42 -5 LINE",
"42 -5 OFFCURVE",
"152 0 OFFCURVE",
"177 0 CURVE SMOOTH",
"227 0 OFFCURVE",
"279 -4 OFFCURVE",
"329 -4 CURVE SMOOTH",
"545 -4 OFFCURVE",
"674 141 OFFCURVE",
"674 352 CURVE SMOOTH",
"674 570 OFFCURVE",
"552 710 OFFCURVE",
"329 710 CURVE SMOOTH",
"263 710 OFFCURVE",
"223 705 OFFCURVE",
"159 705 CURVE SMOOTH",
"139 705 OFFCURVE",
"77 708 OFFCURVE"
);
},
{
closed = 1;
nodes = (
"497 650 OFFCURVE",
"575 514 OFFCURVE",
"575 352 CURVE SMOOTH",
"575 189 OFFCURVE",
"497 55 OFFCURVE",
"330 55 CURVE SMOOTH",
"286 55 OFFCURVE",
"249 57 OFFCURVE",
"223 58 CURVE",
"222 62 OFFCURVE",
"216 119 OFFCURVE",
"216 167 CURVE SMOOTH",
"216 538 LINE SMOOTH",
"216 578 OFFCURVE",
"221 631 OFFCURVE",
"223 650 CURVE",
"248 650 OFFCURVE",
"284 650 OFFCURVE",
"330 650 CURVE SMOOTH"
);
}
);
width = 704;
},
{
anchors = (
{
name = center;
position = "{366, 353}";
},
{
name = top;
position = "{346, 705}";
}
);
background = {
paths = (
{
closed = 1;
nodes = (
"47 710 CURVE",
"42 635 LINE",
"107 623 LINE",
"109 607 OFFCURVE",
"116 562 OFFCURVE",
"116 512 CURVE SMOOTH",
"116 163 LINE SMOOTH",
"116 143 OFFCURVE",
"108 87 OFFCURVE",
"107 77 CURVE",
"41 65 LINE",
"46 -5 LINE",
"46 -5 OFFCURVE",
"166 0 OFFCURVE",
"196 0 CURVE SMOOTH",
"246 0 OFFCURVE",
"306 -5 OFFCURVE",
"356 -5 CURVE SMOOTH",
"588 -5 OFFCURVE",
"708 142 OFFCURVE",
"708 352 CURVE SMOOTH",
"708 562 OFFCURVE",
"588 710 OFFCURVE",
"356 710 CURVE SMOOTH",
"306 710 OFFCURVE",
"217 705 OFFCURVE",
"167 705 CURVE SMOOTH",
"137 705 OFFCURVE",
"47 710 OFFCURVE"
);
},
{
closed = 1;
nodes = (
"489 627 OFFCURVE",
"541 501 OFFCURVE",
"541 354 CURVE SMOOTH",
"541 200 OFFCURVE",
"490 78 OFFCURVE",
"340 78 CURVE SMOOTH",
"313 78 OFFCURVE",
"286 79 OFFCURVE",
"275 80 CURVE",
"274 92 OFFCURVE",
"271 149 OFFCURVE",
"271 193 CURVE SMOOTH",
"271 542 LINE SMOOTH",
"271 558 OFFCURVE",
"274 607 OFFCURVE",
"275 624 CURVE",
"298 626 OFFCURVE",
"322 627 OFFCURVE",
"342 627 CURVE SMOOTH"
);
}
);
};
layerId = "16643525-C5DD-48EC-8E99-463BF28F5E85";
name = Bold;
paths = (
{
closed = 1;
nodes = (
"265 624 LINE",
"288 626 OFFCURVE",
"322 627 OFFCURVE",
"342 627 CURVE SMOOTH",
"489 627 OFFCURVE",
"541 501 OFFCURVE",
"541 354 CURVE SMOOTH",
"541 200 OFFCURVE",
"490 78 OFFCURVE",
"340 78 CURVE SMOOTH",
"313 78 OFFCURVE",
"276 79 OFFCURVE",
"265 80 CURVE",
"196 0 LINE",
"246 0 OFFCURVE",
"306 -5 OFFCURVE",
"356 -5 CURVE SMOOTH",
"588 -5 OFFCURVE",
"708 142 OFFCURVE",
"708 352 CURVE SMOOTH",
"708 562 OFFCURVE",
"588 710 OFFCURVE",
"356 710 CURVE SMOOTH",
"306 710 OFFCURVE",
"217 705 OFFCURVE",
"167 705 CURVE"
);
},
{
closed = 1;
nodes = (
"167 705 LINE",
"137 705 OFFCURVE",
"47 710 OFFCURVE",
"47 710 CURVE",
"42 635 LINE",
"107 623 LINE",
"109 607 OFFCURVE",
"116 562 OFFCURVE",
"116 542 CURVE SMOOTH",
"116 163 LINE SMOOTH",
"116 143 OFFCURVE",
"108 87 OFFCURVE",
"107 77 CURVE",
"41 65 LINE",
"46 -5 LINE",
"46 -5 OFFCURVE",
"166 0 OFFCURVE",
"196 0 CURVE",
"280 57 LINE",
"278 81 OFFCURVE",
"271 153 OFFCURVE",
"271 193 CURVE SMOOTH",
"271 512 LINE SMOOTH",
"271 552 OFFCURVE",
"275 618 OFFCURVE",
"278 643 CURVE"
);
}
);
width = 758;
}
);
leftKerningGroup = H;
leftMetricsKey = "=H";
rightKerningGroup = O;
rightMetricsKey = "=O";
unicode = 0044;
},
{
color = 0;
glyphname = Dcaron;
lastChange = "2015-06-18 08:01:47 +0000";
layers = (
{
anchors = (
{
name = _top_caps;
position = "{326, 396}";
},
{
name = center;
position = "{356, 353}";
},
{
name = top;
position = "{326, 705}";
}
);
layerId = UUID0;
name = Regular;
paths = (
{
closed = 1;
nodes = (
"44 710 CURVE",
"39 656 LINE",
"116 644 LINE",
"118 631 OFFCURVE",
"125 585 OFFCURVE",
"125 568 CURVE SMOOTH",
"125 137 LINE SMOOTH",
"125 120 OFFCURVE",
"118 74 OFFCURVE",
"116 61 CURVE",
"37 45 LINE",
"42 -5 LINE",
"42 -5 OFFCURVE",
"152 0 OFFCURVE",
"177 0 CURVE SMOOTH",
"227 0 OFFCURVE",
"279 -4 OFFCURVE",
"329 -4 CURVE SMOOTH",
"545 -4 OFFCURVE",
"674 141 OFFCURVE",
"674 352 CURVE SMOOTH",
"674 570 OFFCURVE",
"552 710 OFFCURVE",
"329 710 CURVE SMOOTH",
"263 710 OFFCURVE",
"223 705 OFFCURVE",
"159 705 CURVE SMOOTH",
"139 705 OFFCURVE",
"77 708 OFFCURVE"
);
},
{
closed = 1;
nodes = (
"497 650 OFFCURVE",
"575 514 OFFCURVE",
"575 352 CURVE SMOOTH",
"575 189 OFFCURVE",
"497 55 OFFCURVE",
"330 55 CURVE SMOOTH",
"286 55 OFFCURVE",
"249 57 OFFCURVE",
"223 58 CURVE",
"222 62 OFFCURVE",
"216 119 OFFCURVE",
"216 167 CURVE SMOOTH",
"216 538 LINE SMOOTH",
"216 578 OFFCURVE",
"221 631 OFFCURVE",
"223 650 CURVE",
"248 650 OFFCURVE",
"284 650 OFFCURVE",
"330 650 CURVE SMOOTH"
);
},
{
closed = 1;
nodes = (
"360 749 LINE",
"501 836 LINE",
"477 875 LINE",
"286 788 LINE",
"319 749 LINE"
);
},
{
closed = 1;
nodes = (
"367 788 LINE",
"176 875 LINE",
"152 836 LINE",
"293 749 LINE",
"334 749 LINE"
);
}
);
width = 704;
},
{
components = (
{
name = D;
transform = "{1, 0, 0, 1, 0, 0}";
},
{
name = caron.cap;
transform = "{1, 0, 0, 1, 166, 211}";
}
);
layerId = "16643525-C5DD-48EC-8E99-463BF28F5E85";
name = Bold;
width = 758;
}
);
unicode = 010E;
},
{
color = 0;
glyphname = Dcroat;
lastChange = "2015-06-18 08:01:47 +0000";
layers = (
{
anchors = (
{
name = center;
position = "{357, 353}";
},
{
name = top;
position = "{327, 705}";
}
);
background = {
paths = (
{
closed = 1;
nodes = (
"41 656 LINE",
"118 644 LINE",
"120 631 OFFCURVE",
"127 585 OFFCURVE",
"127 568 CURVE SMOOTH",
"127 380 LINE",
"39 380 LINE",
"39 337 LINE",
"127 337 LINE",
"127 137 LINE SMOOTH",
"127 120 OFFCURVE",
"120 74 OFFCURVE",
"118 61 CURVE",
"39 45 LINE",
"44 -5 LINE",
"44 -5 OFFCURVE",
"141 0 OFFCURVE",
"162 0 CURVE SMOOTH",
"222 0 OFFCURVE",
"291 -6 OFFCURVE",
"331 -6 CURVE SMOOTH",
"547 -6 OFFCURVE",
"676 139 OFFCURVE",
"676 352 CURVE SMOOTH",
"676 575 OFFCURVE",
"554 715 OFFCURVE",
"331 715 CURVE SMOOTH",
"265 715 OFFCURVE",
"208 707 OFFCURVE",
"144 705 CURVE",
"110 707 OFFCURVE",
"46 710 OFFCURVE",
"46 710 CURVE"
);
},
{
closed = 1;
nodes = (
"218 337 LINE",
"356 337 LINE",
"361 380 LINE",
"218 380 LINE",
"218 538 LINE SMOOTH",
"218 578 OFFCURVE",
"223 631 OFFCURVE",
"225 650 CURVE",
"250 653 OFFCURVE",
"286 655 OFFCURVE",
"332 655 CURVE SMOOTH",
"499 655 OFFCURVE",
"577 519 OFFCURVE",
"577 352 CURVE SMOOTH",
"577 187 OFFCURVE",
"499 53 OFFCURVE",
"332 53 CURVE SMOOTH",
"288 53 OFFCURVE",
"251 55 OFFCURVE",
"225 57 CURVE",
"224 61 OFFCURVE",
"218 119 OFFCURVE",
"218 167 CURVE SMOOTH"
);
}
);
};
layerId = UUID0;
name = Regular;
paths = (
{
closed = 1;
nodes = (
"356 337 LINE",
"361 380 LINE",
"39 380 LINE",
"39 337 LINE"
);
},
{
closed = 1;
nodes = (
"45 710 CURVE",
"40 656 LINE",
"117 644 LINE",
"119 631 OFFCURVE",
"126 585 OFFCURVE",
"126 568 CURVE SMOOTH",
"126 137 LINE SMOOTH",
"126 120 OFFCURVE",
"119 74 OFFCURVE",
"117 61 CURVE",
"38 45 LINE",
"43 -5 LINE",
"43 -5 OFFCURVE",
"153 0 OFFCURVE",
"178 0 CURVE SMOOTH",
"228 0 OFFCURVE",
"280 -4 OFFCURVE",
"330 -4 CURVE SMOOTH",
"546 -4 OFFCURVE",
"675 141 OFFCURVE",
"675 352 CURVE SMOOTH",
"675 570 OFFCURVE",
"553 710 OFFCURVE",
"330 710 CURVE SMOOTH",
"264 710 OFFCURVE",
"224 705 OFFCURVE",
"160 705 CURVE SMOOTH",
"140 705 OFFCURVE",
"78 708 OFFCURVE"
);
},
{
closed = 1;
nodes = (
"498 650 OFFCURVE",
"576 514 OFFCURVE",
"576 352 CURVE SMOOTH",
"576 189 OFFCURVE",
"498 55 OFFCURVE",
"331 55 CURVE SMOOTH",
"287 55 OFFCURVE",
"250 57 OFFCURVE",
"224 58 CURVE",
"223 62 OFFCURVE",
"217 119 OFFCURVE",
"217 167 CURVE SMOOTH",
"217 538 LINE SMOOTH",
"217 578 OFFCURVE",
"222 631 OFFCURVE",
"224 650 CURVE",
"249 650 OFFCURVE",
"285 650 OFFCURVE",
"331 650 CURVE SMOOTH"
);
}
);
width = 726;
},
{
components = (
{
name = D;
transform = "{1, 0, 0, 1, 11, 0}";
}
);
layerId = "16643525-C5DD-48EC-8E99-463BF28F5E85";
name = Bold;
paths = (
{
closed = 1;
nodes = (
"375 322 LINE",
"380 395 LINE",
"58 395 LINE",
"58 322 LINE"
);
}
);
width = 769;
}
);
rightKerningGroup = O;
unicode = 0110;
},
{
color = 0;
glyphname = E;
lastChange = "2015-06-18 07:52:54 +0000";
layers = (
{
anchors = (
{
name = bottom;
position = "{303, 0}";
},
{
name = ogonek;
position = "{511, -4}";
},
{
name = top;
position = "{289, 705}";
}
);
background = {
paths = (
{
closed = 1;
nodes = (
"297 710 LINE",
"297 710 OFFCURVE",
"219 705 OFFCURVE",
"159 705 CURVE SMOOTH",
"139 705 OFFCURVE",
"44 710 OFFCURVE",
"44 710 CURVE",
"39 656 LINE",
"116 644 LINE",
"118 631 OFFCURVE",
"125 585 OFFCURVE",
"125 568 CURVE SMOOTH",
"125 137 LINE SMOOTH",
"125 120 OFFCURVE",
"118 74 OFFCURVE",
"116 61 CURVE",
"37 45 LINE",
"42 -5 LINE",
"42 -5 OFFCURVE",
"152 0 OFFCURVE",
"177 0 CURVE",
"306 0 LINE",
"313 54 LINE",
"223 61 LINE",
"221 75 OFFCURVE",
"216 125 OFFCURVE",
"216 167 CURVE SMOOTH",
"216 538 LINE SMOOTH",
"216 580 OFFCURVE",
"221 630 OFFCURVE",
"223 644 CURVE",
"301 651 LINE"
);
}
);
};
guideLines = (
{
position = "{202, 338}";
}
);
layerId = UUID0;
leftMetricsKey = "=H";
name = Regular;
paths = (
{
closed = 1;
nodes = (
"139 705 OFFCURVE",
"44 710 OFFCURVE",
"44 710 CURVE",
"39 656 LINE",
"116 644 LINE",
"118 631 OFFCURVE",
"125 585 OFFCURVE",
"125 568 CURVE SMOOTH",
"125 137 LINE SMOOTH",
"125 120 OFFCURVE",
"118 74 OFFCURVE",
"116 61 CURVE",
"37 45 LINE",
"42 -5 LINE",
"42 -5 OFFCURVE",
"152 0 OFFCURVE",
"177 0 CURVE SMOOTH",
"397 0 LINE SMOOTH",
"417 0 OFFCURVE",
"511 -4 OFFCURVE",
"511 -4 CURVE",
"530 14 LINE",
"545 165 LINE",
"490 170 LINE",
"488 154 OFFCURVE",
"478 118 OFFCURVE",
"475 103 CURVE SMOOTH",
"473 94 OFFCURVE",
"464 80 OFFCURVE",
"454 66 CURVE",
"432 62 OFFCURVE",
"398 57 OFFCURVE",
"367 57 CURVE SMOOTH",
"223 57 LINE",
"221 76 OFFCURVE",
"216 127 OFFCURVE",
"216 167 CURVE SMOOTH",
"216 338 LINE",
"312 338 LINE",
"332 338 OFFCURVE",
"392 332 OFFCURVE",
"392 332 CURVE",
"401 265 LINE",
"449 271 LINE",
"449 271 OFFCURVE",
"446 330 OFFCURVE",
"446 380 CURVE SMOOTH",
"446 400 OFFCURVE",
"447 464 OFFCURVE",
"447 464 CURVE",
"401 469 LINE",
"392 403 LINE",
"392 403 OFFCURVE",
"352 394 OFFCURVE",
"332 394 CURVE",
"216 394 LINE",
"216 538 LINE SMOOTH",
"216 577 OFFCURVE",
"221 628 OFFCURVE",
"223 649 CURVE",
"354 649 LINE SMOOTH",
"382 649 OFFCURVE",
"413 646 OFFCURVE",
"435 644 CURVE",
"445 631 OFFCURVE",
"454 617 OFFCURVE",
"455 610 CURVE",
"459 595 OFFCURVE",
"464 572 OFFCURVE",
"466 556 CURVE",
"524 561 LINE",
"517 692 LINE",
"498 710 LINE",
"498 710 OFFCURVE",
"404 705 OFFCURVE",
"384 705 CURVE SMOOTH",
"159 705 LINE SMOOTH"
);
}
);
width = 586;
},
{
anchors = (
{
name = bottom;
position = "{331, 0}";
},
{
name = ogonek;
position = "{543, -4}";
},
{
name = top;
position = "{301, 705}";
}
);
background = {
paths = (
{
closed = 1;
nodes = (
"419 623 OFFCURVE",
"444 621 OFFCURVE",
"464 619 CURVE",
"477 583 LINE",
"479 568 OFFCURVE",
"481 554 OFFCURVE",
"483 537 CURVE",
"555 542 LINE",
"548 692 LINE",
"529 710 LINE",
"499 708 OFFCURVE",
"434 705 OFFCURVE",
"414 705 CURVE",
"167 705 LINE SMOOTH",
"137 705 OFFCURVE",
"47 710 OFFCURVE",
"47 710 CURVE",
"42 635 LINE",
"107 623 LINE",
"109 607 OFFCURVE",
"116 562 OFFCURVE",
"116 512 CURVE SMOOTH",
"116 163 LINE SMOOTH",
"116 143 OFFCURVE",
"108 87 OFFCURVE",
"107 77 CURVE",
"41 65 LINE",
"46 -5 LINE",
"46 -5 OFFCURVE",
"166 0 OFFCURVE",
"196 0 CURVE SMOOTH",
"429 0 LINE SMOOTH",
"449 0 OFFCURVE",
"543 -4 OFFCURVE",
"543 -4 CURVE",
"562 14 LINE",
"577 190 LINE",
"507 195 LINE",
"505 179 OFFCURVE",
"499 153 OFFCURVE",
"495 138 CURVE SMOOTH",
"492 128 OFFCURVE",
"486 113 OFFCURVE",
"476 95 CURVE",
"456 91 OFFCURVE",
"428 87 OFFCURVE",
"399 87 CURVE SMOOTH",
"274 87 LINE",
"273 107 OFFCURVE",
"271 155 OFFCURVE",
"271 193 CURVE SMOOTH",
"271 316 LINE",
"333 316 LINE",
"353 316 OFFCURVE",
"397 310 OFFCURVE",
"397 310 CURVE",
"406 250 LINE",
"470 256 LINE",
"470 256 OFFCURVE",
"467 333 OFFCURVE",
"467 383 CURVE SMOOTH",
"467 403 OFFCURVE",
"468 466 OFFCURVE",
"468 466 CURVE",
"406 471 LINE",
"397 407 LINE",
"397 407 OFFCURVE",
"373 398 OFFCURVE",
"353 398 CURVE",
"271 398 LINE",
"271 542 LINE SMOOTH",
"271 558 OFFCURVE",
"274 605 OFFCURVE",
"275 623 CURVE",
"389 623 LINE"
);
}
);
};
layerId = "16643525-C5DD-48EC-8E99-463BF28F5E85";
name = Bold;
paths = (
{
closed = 1;
nodes = (
"389 623 LINE",
"419 623 OFFCURVE",
"444 621 OFFCURVE",
"464 619 CURVE",
"477 583 LINE",
"479 568 OFFCURVE",
"481 554 OFFCURVE",
"483 537 CURVE",
"555 542 LINE",
"548 692 LINE",
"529 710 LINE",
"499 708 OFFCURVE",
"434 705 OFFCURVE",
"414 705 CURVE",
"167 705 LINE",
"275 623 LINE"
);
},
{
closed = 1;
nodes = (
"261 316 LINE",
"333 316 LINE",
"353 316 OFFCURVE",
"397 310 OFFCURVE",
"397 310 CURVE",
"406 250 LINE",
"470 256 LINE",
"470 256 OFFCURVE",
"467 333 OFFCURVE",
"467 383 CURVE SMOOTH",
"467 403 OFFCURVE",
"468 466 OFFCURVE",
"468 466 CURVE",
"406 471 LINE",
"397 407 LINE",
"397 407 OFFCURVE",
"373 398 OFFCURVE",
"353 398 CURVE",
"261 398 LINE"
);
},
{
closed = 1;
nodes = (
"429 0 LINE SMOOTH",
"449 0 OFFCURVE",
"543 -4 OFFCURVE",
"543 -4 CURVE",
"562 14 LINE",
"577 190 LINE",
"507 195 LINE",
"505 179 OFFCURVE",
"499 153 OFFCURVE",
"495 138 CURVE SMOOTH",
"492 128 OFFCURVE",
"486 113 OFFCURVE",
"476 95 CURVE",
"456 91 OFFCURVE",
"428 87 OFFCURVE",
"399 87 CURVE SMOOTH",
"274 87 LINE",
"196 0 LINE"
);
},
{
closed = 1;
nodes = (
"167 705 LINE",
"137 705 OFFCURVE",
"47 710 OFFCURVE",
"47 710 CURVE",
"42 635 LINE",
"107 623 LINE",
"109 607 OFFCURVE",
"116 562 OFFCURVE",
"116 542 CURVE SMOOTH",
"116 163 LINE SMOOTH",
"116 143 OFFCURVE",
"108 87 OFFCURVE",
"107 77 CURVE",
"41 65 LINE",
"46 -5 LINE",
"46 -5 OFFCURVE",
"166 0 OFFCURVE",
"196 0 CURVE",
"280 57 LINE",
"278 81 OFFCURVE",
"271 153 OFFCURVE",
"271 193 CURVE SMOOTH",
"271 512 LINE SMOOTH",
"271 552 OFFCURVE",
"275 618 OFFCURVE",
"278 643 CURVE"
);
}
);
width = 623;
}
);
leftKerningGroup = H;
leftMetricsKey = "=H";
rightKerningGroup = E;
unicode = 0045;
},
{
color = 0;
glyphname = Eacute;
lastChange = "2015-06-18 08:01:47 +0000";
layers = (
{
anchors = (
{
name = _top;
position = "{289, 705}";
},
{
name = bottom;
position = "{303, 0}";
},
{
name = ogonek;
position = "{511, -4}";
},
{
name = top;
position = "{289, 705}";
}
);
layerId = UUID0;
name = Regular;
paths = (
{
closed = 1;
nodes = (
"139 705 OFFCURVE",
"44 710 OFFCURVE",
"44 710 CURVE",
"39 656 LINE",
"116 644 LINE",
"118 631 OFFCURVE",
"125 585 OFFCURVE",
"125 568 CURVE SMOOTH",
"125 137 LINE SMOOTH",
"125 120 OFFCURVE",
"118 74 OFFCURVE",
"116 61 CURVE",
"37 45 LINE",
"42 -5 LINE",
"42 -5 OFFCURVE",
"152 0 OFFCURVE",
"177 0 CURVE SMOOTH",
"397 0 LINE SMOOTH",
"417 0 OFFCURVE",
"511 -4 OFFCURVE",
"511 -4 CURVE",
"530 14 LINE",
"545 165 LINE",
"490 170 LINE",
"488 154 OFFCURVE",
"478 118 OFFCURVE",
"475 103 CURVE SMOOTH",
"473 94 OFFCURVE",
"464 80 OFFCURVE",
"454 66 CURVE",
"432 62 OFFCURVE",
"398 57 OFFCURVE",
"367 57 CURVE SMOOTH",
"223 57 LINE",
"221 76 OFFCURVE",
"216 127 OFFCURVE",
"216 167 CURVE SMOOTH",
"216 338 LINE",
"312 338 LINE",
"332 338 OFFCURVE",
"392 332 OFFCURVE",
"392 332 CURVE",
"401 265 LINE",
"449 271 LINE",
"449 271 OFFCURVE",
"446 330 OFFCURVE",
"446 380 CURVE SMOOTH",
"446 400 OFFCURVE",
"447 464 OFFCURVE",
"447 464 CURVE",
"401 469 LINE",
"392 403 LINE",
"392 403 OFFCURVE",
"352 394 OFFCURVE",
"332 394 CURVE",
"216 394 LINE",
"216 538 LINE SMOOTH",
"216 577 OFFCURVE",
"221 628 OFFCURVE",
"223 649 CURVE",
"354 649 LINE SMOOTH",
"382 649 OFFCURVE",
"413 646 OFFCURVE",
"435 644 CURVE",
"445 631 OFFCURVE",
"454 617 OFFCURVE",
"455 610 CURVE",
"459 595 OFFCURVE",
"464 572 OFFCURVE",
"466 556 CURVE",
"524 561 LINE",
"517 692 LINE",
"498 710 LINE",
"498 710 OFFCURVE",
"404 705 OFFCURVE",
"384 705 CURVE SMOOTH",
"159 705 LINE SMOOTH"
);
},
{
closed = 1;
nodes = (
"408 889 LINE",
"179 788 LINE",
"194 746 LINE",
"434 824 LINE"
);
}
);
width = 586;
},
{
components = (
{
name = E;
transform = "{1, 0, 0, 1, 0, 0}";
},
{
name = acute.cap;
transform = "{1, 0, 0, 1, 141, 211}";
}
);
layerId = "16643525-C5DD-48EC-8E99-463BF28F5E85";
name = Bold;
width = 623;
}
);
unicode = 00C9;
},
{
color = 0;
glyphname = Ecaron;
lastChange = "2015-06-18 08:01:47 +0000";
layers = (
{
anchors = (
{
name = _top_caps;
position = "{289, 396}";
},
{
name = bottom;
position = "{303, 0}";
},
{
name = ogonek;
position = "{511, -4}";
},
{
name = top;
position = "{289, 705}";
}
);
layerId = UUID0;
name = Regular;
paths = (
{
closed = 1;
nodes = (
"139 705 OFFCURVE",
"44 710 OFFCURVE",
"44 710 CURVE",
"39 656 LINE",
"116 644 LINE",
"118 631 OFFCURVE",
"125 585 OFFCURVE",
"125 568 CURVE SMOOTH",
"125 137 LINE SMOOTH",
"125 120 OFFCURVE",
"118 74 OFFCURVE",
"116 61 CURVE",
"37 45 LINE",
"42 -5 LINE",
"42 -5 OFFCURVE",
"152 0 OFFCURVE",
"177 0 CURVE SMOOTH",
"397 0 LINE SMOOTH",
"417 0 OFFCURVE",
"511 -4 OFFCURVE",
"511 -4 CURVE",
"530 14 LINE",
"545 165 LINE",
"490 170 LINE",
"488 154 OFFCURVE",
"478 118 OFFCURVE",
"475 103 CURVE SMOOTH",
"473 94 OFFCURVE",
"464 80 OFFCURVE",
"454 66 CURVE",
"432 62 OFFCURVE",
"398 57 OFFCURVE",
"367 57 CURVE SMOOTH",
"223 57 LINE",
"221 76 OFFCURVE",
"216 127 OFFCURVE",
"216 167 CURVE SMOOTH",
"216 338 LINE",
"312 338 LINE",
"332 338 OFFCURVE",
"392 332 OFFCURVE",
"392 332 CURVE",
"401 265 LINE",
"449 271 LINE",
"449 271 OFFCURVE",
"446 330 OFFCURVE",
"446 380 CURVE SMOOTH",
"446 400 OFFCURVE",
"447 464 OFFCURVE",
"447 464 CURVE",
"401 469 LINE",
"392 403 LINE",
"392 403 OFFCURVE",
"352 394 OFFCURVE",
"332 394 CURVE",
"216 394 LINE",
"216 538 LINE SMOOTH",
"216 577 OFFCURVE",
"221 628 OFFCURVE",
"223 649 CURVE",
"354 649 LINE SMOOTH",
"382 649 OFFCURVE",
"413 646 OFFCURVE",
"435 644 CURVE",
"445 631 OFFCURVE",
"454 617 OFFCURVE",
"455 610 CURVE",
"459 595 OFFCURVE",
"464 572 OFFCURVE",
"466 556 CURVE",
"524 561 LINE",
"517 692 LINE",
"498 710 LINE",
"498 710 OFFCURVE",
"404 705 OFFCURVE",
"384 705 CURVE SMOOTH",
"159 705 LINE SMOOTH"
);
},
{
closed = 1;
nodes = (
"323 749 LINE",
"464 836 LINE",
"440 875 LINE",
"249 788 LINE",
"282 749 LINE"
);
},
{
closed = 1;
nodes = (
"330 788 LINE",
"139 875 LINE",
"115 836 LINE",
"256 749 LINE",
"297 749 LINE"
);
}
);
width = 586;
},
{
components = (
{
name = E;
transform = "{1, 0, 0, 1, 0, 0}";
},
{
name = caron.cap;
transform = "{1, 0, 0, 1, 121, 211}";
}
);
layerId = "16643525-C5DD-48EC-8E99-463BF28F5E85";
name = Bold;
width = 623;
}
);
unicode = 011A;
},
{
color = 0;
glyphname = Ecircumflex;
lastChange = "2015-06-18 08:01:47 +0000";
layers = (
{
anchors = (
{
name = _top;
position = "{289, 705}";
},
{
name = bottom;
position = "{303, 0}";
},
{
name = ogonek;
position = "{511, -4}";
},
{
name = top;
position = "{289, 705}";
}
);
layerId = UUID0;
name = Regular;
paths = (
{
closed = 1;
nodes = (
"139 705 OFFCURVE",
"44 710 OFFCURVE",
"44 710 CURVE",
"39 656 LINE",
"116 644 LINE",
"118 631 OFFCURVE",
"125 585 OFFCURVE",
"125 568 CURVE SMOOTH",
"125 137 LINE SMOOTH",
"125 120 OFFCURVE",
"118 74 OFFCURVE",
"116 61 CURVE",
"37 45 LINE",
"42 -5 LINE",
"42 -5 OFFCURVE",
"152 0 OFFCURVE",
"177 0 CURVE SMOOTH",
"397 0 LINE SMOOTH",
"417 0 OFFCURVE",
"511 -4 OFFCURVE",
"511 -4 CURVE",
"530 14 LINE",
"545 165 LINE",
"490 170 LINE",
"488 154 OFFCURVE",
"478 118 OFFCURVE",
"475 103 CURVE SMOOTH",
"473 94 OFFCURVE",
"464 80 OFFCURVE",
"454 66 CURVE",
"432 62 OFFCURVE",
"398 57 OFFCURVE",
"367 57 CURVE SMOOTH",
"223 57 LINE",
"221 76 OFFCURVE",
"216 127 OFFCURVE",
"216 167 CURVE SMOOTH",
"216 338 LINE",
"312 338 LINE",
"332 338 OFFCURVE",
"392 332 OFFCURVE",
"392 332 CURVE",
"401 265 LINE",
"449 271 LINE",
"449 271 OFFCURVE",
"446 330 OFFCURVE",
"446 380 CURVE SMOOTH",
"446 400 OFFCURVE",
"447 464 OFFCURVE",
"447 464 CURVE",
"401 469 LINE",
"392 403 LINE",
"392 403 OFFCURVE",
"352 394 OFFCURVE",
"332 394 CURVE",
"216 394 LINE",
"216 538 LINE SMOOTH",
"216 577 OFFCURVE",
"221 628 OFFCURVE",
"223 649 CURVE",
"354 649 LINE SMOOTH",
"382 649 OFFCURVE",
"413 646 OFFCURVE",
"435 644 CURVE",
"445 631 OFFCURVE",
"454 617 OFFCURVE",
"455 610 CURVE",
"459 595 OFFCURVE",
"464 572 OFFCURVE",
"466 556 CURVE",
"524 561 LINE",
"517 692 LINE",
"498 710 LINE",
"498 710 OFFCURVE",
"404 705 OFFCURVE",
"384 705 CURVE SMOOTH",
"159 705 LINE SMOOTH"
);
},
{
closed = 1;
nodes = (
"255 867 LINE",
"114 780 LINE",
"138 741 LINE",
"329 828 LINE",
"296 867 LINE"
);
},
{
closed = 1;
nodes = (
"248 828 LINE",
"439 741 LINE",
"463 780 LINE",
"322 867 LINE",
"281 867 LINE"
);
}
);
width = 586;
},
{
components = (
{
name = E;
transform = "{1, 0, 0, 1, 0, 0}";
},
{
name = circumflex.cap;
transform = "{1, 0, 0, 1, 121, 211}";
}
);
layerId = "16643525-C5DD-48EC-8E99-463BF28F5E85";
name = Bold;
width = 623;
}
);
unicode = 00CA;
},
{
color = 0;
glyphname = Edieresis;
lastChange = "2015-06-18 08:04:27 +0000";
layers = (
{
anchors = (
{
name = _top;
position = "{289, 705}";
},
{
name = bottom;
position = "{303, 0}";
},
{
name = ogonek;
position = "{511, -4}";
},
{
name = top;
position = "{289, 705}";
}
);
layerId = UUID0;
name = Regular;
paths = (
{
closed = 1;
nodes = (
"139 705 OFFCURVE",
"44 710 OFFCURVE",
"44 710 CURVE",
"39 656 LINE",
"116 644 LINE",
"118 631 OFFCURVE",
"125 585 OFFCURVE",
"125 568 CURVE SMOOTH",
"125 137 LINE SMOOTH",
"125 120 OFFCURVE",
"118 74 OFFCURVE",
"116 61 CURVE",
"37 45 LINE",
"42 -5 LINE",
"42 -5 OFFCURVE",
"152 0 OFFCURVE",
"177 0 CURVE SMOOTH",
"397 0 LINE SMOOTH",
"417 0 OFFCURVE",
"511 -4 OFFCURVE",
"511 -4 CURVE",
"530 14 LINE",
"545 165 LINE",
"490 170 LINE",
"488 154 OFFCURVE",
"478 118 OFFCURVE",
"475 103 CURVE SMOOTH",
"473 94 OFFCURVE",
"464 80 OFFCURVE",
"454 66 CURVE",
"432 62 OFFCURVE",
"398 57 OFFCURVE",
"367 57 CURVE SMOOTH",
"223 57 LINE",
"221 76 OFFCURVE",
"216 127 OFFCURVE",
"216 167 CURVE SMOOTH",
"216 338 LINE",
"312 338 LINE",
"332 338 OFFCURVE",
"392 332 OFFCURVE",
"392 332 CURVE",
"401 265 LINE",
"449 271 LINE",
"449 271 OFFCURVE",
"446 330 OFFCURVE",
"446 380 CURVE SMOOTH",
"446 400 OFFCURVE",
"447 464 OFFCURVE",
"447 464 CURVE",
"401 469 LINE",
"392 403 LINE",
"392 403 OFFCURVE",
"352 394 OFFCURVE",
"332 394 CURVE",
"216 394 LINE",
"216 538 LINE SMOOTH",
"216 577 OFFCURVE",
"221 628 OFFCURVE",
"223 649 CURVE",
"354 649 LINE SMOOTH",
"382 649 OFFCURVE",
"413 646 OFFCURVE",
"435 644 CURVE",
"445 631 OFFCURVE",
"454 617 OFFCURVE",
"455 610 CURVE",
"459 595 OFFCURVE",
"464 572 OFFCURVE",
"466 556 CURVE",
"524 561 LINE",
"517 692 LINE",
"498 710 LINE",
"498 710 OFFCURVE",
"404 705 OFFCURVE",
"384 705 CURVE SMOOTH",
"159 705 LINE SMOOTH"
);
},
{
closed = 1;
nodes = (
"371 860 OFFCURVE",
"353 836 OFFCURVE",
"353 800 CURVE SMOOTH",
"353 764 OFFCURVE",
"371 741 OFFCURVE",
"407 741 CURVE SMOOTH",
"443 741 OFFCURVE",
"461 764 OFFCURVE",
"461 800 CURVE SMOOTH",
"461 839 OFFCURVE",
"442 860 OFFCURVE",
"407 860 CURVE SMOOTH"
);
},
{
closed = 1;
nodes = (
"135 860 OFFCURVE",
"117 836 OFFCURVE",
"117 800 CURVE SMOOTH",
"117 764 OFFCURVE",
"135 741 OFFCURVE",
"171 741 CURVE SMOOTH",
"207 741 OFFCURVE",
"225 764 OFFCURVE",
"225 800 CURVE SMOOTH",
"225 839 OFFCURVE",
"206 860 OFFCURVE",
"171 860 CURVE SMOOTH"
);
}
);
width = 586;
},
{
components = (
{
name = E;
transform = "{1, 0, 0, 1, 0, 0}";
},
{
name = dieresis.cap;
transform = "{1, 0, 0, 1, 121, 261}";
}
);
layerId = "16643525-C5DD-48EC-8E99-463BF28F5E85";
name = Bold;
width = 623;
}
);
leftKerningGroup = H;
rightKerningGroup = E;
unicode = 00CB;
},
{
color = 0;
glyphname = Edotaccent;
lastChange = "2015-06-18 08:01:47 +0000";
layers = (
{
anchors = (
{
name = _top;
position = "{289, 705}";
},
{
name = bottom;
position = "{303, 0}";
},
{
name = ogonek;
position = "{511, -4}";
},
{
name = top;
position = "{289, 705}";
}
);
layerId = UUID0;
name = Regular;
paths = (
{
closed = 1;
nodes = (
"139 705 OFFCURVE",
"44 710 OFFCURVE",
"44 710 CURVE",
"39 656 LINE",
"116 644 LINE",
"118 631 OFFCURVE",
"125 585 OFFCURVE",
"125 568 CURVE SMOOTH",
"125 137 LINE SMOOTH",
"125 120 OFFCURVE",
"118 74 OFFCURVE",
"116 61 CURVE",
"37 45 LINE",
"42 -5 LINE",
"42 -5 OFFCURVE",
"152 0 OFFCURVE",
"177 0 CURVE SMOOTH",
"397 0 LINE SMOOTH",
"417 0 OFFCURVE",
"511 -4 OFFCURVE",
"511 -4 CURVE",
"530 14 LINE",
"545 165 LINE",
"490 170 LINE",
"488 154 OFFCURVE",
"478 118 OFFCURVE",
"475 103 CURVE SMOOTH",
"473 94 OFFCURVE",
"464 80 OFFCURVE",
"454 66 CURVE",
"432 62 OFFCURVE",
"398 57 OFFCURVE",
"367 57 CURVE SMOOTH",
"223 57 LINE",
"221 76 OFFCURVE",
"216 127 OFFCURVE",
"216 167 CURVE SMOOTH",
"216 338 LINE",
"312 338 LINE",
"332 338 OFFCURVE",
"392 332 OFFCURVE",
"392 332 CURVE",
"401 265 LINE",
"449 271 LINE",
"449 271 OFFCURVE",
"446 330 OFFCURVE",
"446 380 CURVE SMOOTH",
"446 400 OFFCURVE",
"447 464 OFFCURVE",
"447 464 CURVE",
"401 469 LINE",
"392 403 LINE",
"392 403 OFFCURVE",
"352 394 OFFCURVE",
"332 394 CURVE",
"216 394 LINE",
"216 538 LINE SMOOTH",
"216 577 OFFCURVE",
"221 628 OFFCURVE",
"223 649 CURVE",
"354 649 LINE SMOOTH",
"382 649 OFFCURVE",
"413 646 OFFCURVE",
"435 644 CURVE",
"445 631 OFFCURVE",
"454 617 OFFCURVE",
"455 610 CURVE",
"459 595 OFFCURVE",
"464 572 OFFCURVE",
"466 556 CURVE",
"524 561 LINE",
"517 692 LINE",
"498 710 LINE",
"498 710 OFFCURVE",
"404 705 OFFCURVE",
"384 705 CURVE SMOOTH",
"159 705 LINE SMOOTH"
);
},
{
closed = 1;
nodes = (
"251 872 OFFCURVE",
"230 845 OFFCURVE",
"230 807 CURVE SMOOTH",
"230 769 OFFCURVE",
"251 743 OFFCURVE",
"289 743 CURVE SMOOTH",
"327 743 OFFCURVE",
"348 769 OFFCURVE",
"348 807 CURVE SMOOTH",
"348 848 OFFCURVE",
"326 872 OFFCURVE",
"289 872 CURVE SMOOTH"
);
}
);
width = 586;
},
{
components = (
{
name = E;
transform = "{1, 0, 0, 1, 0, 0}";
},
{
name = dotaccent.cap;
transform = "{1, 0, 0, 1, 121, 211}";
}
);
layerId = "16643525-C5DD-48EC-8E99-463BF28F5E85";
name = Bold;
width = 623;
}
);
leftKerningGroup = H;
rightKerningGroup = E;
unicode = 0116;
},
{
color = 0;
glyphname = Egrave;
lastChange = "2015-06-18 08:01:47 +0000";
layers = (
{
anchors = (
{
name = _top;
position = "{289, 705}";
},
{
name = bottom;
position = "{303, 0}";
},
{
name = ogonek;
position = "{511, -4}";
},
{
name = top;
position = "{289, 705}";
}
);
layerId = UUID0;
name = Regular;
paths = (
{
closed = 1;
nodes = (
"139 705 OFFCURVE",
"44 710 OFFCURVE",
"44 710 CURVE",
"39 656 LINE",
"116 644 LINE",
"118 631 OFFCURVE",
"125 585 OFFCURVE",
"125 568 CURVE SMOOTH",
"125 137 LINE SMOOTH",
"125 120 OFFCURVE",
"118 74 OFFCURVE",
"116 61 CURVE",
"37 45 LINE",
"42 -5 LINE",
"42 -5 OFFCURVE",
"152 0 OFFCURVE",
"177 0 CURVE SMOOTH",
"397 0 LINE SMOOTH",
"417 0 OFFCURVE",
"511 -4 OFFCURVE",
"511 -4 CURVE",
"530 14 LINE",
"545 165 LINE",
"490 170 LINE",
"488 154 OFFCURVE",
"478 118 OFFCURVE",
"475 103 CURVE SMOOTH",
"473 94 OFFCURVE",
"464 80 OFFCURVE",
"454 66 CURVE",
"432 62 OFFCURVE",
"398 57 OFFCURVE",
"367 57 CURVE SMOOTH",
"223 57 LINE",
"221 76 OFFCURVE",
"216 127 OFFCURVE",
"216 167 CURVE SMOOTH",
"216 338 LINE",
"312 338 LINE",
"332 338 OFFCURVE",
"392 332 OFFCURVE",
"392 332 CURVE",
"401 265 LINE",
"449 271 LINE",
"449 271 OFFCURVE",
"446 330 OFFCURVE",
"446 380 CURVE SMOOTH",
"446 400 OFFCURVE",
"447 464 OFFCURVE",
"447 464 CURVE",
"401 469 LINE",
"392 403 LINE",
"392 403 OFFCURVE",
"352 394 OFFCURVE",
"332 394 CURVE",
"216 394 LINE",
"216 538 LINE SMOOTH",
"216 577 OFFCURVE",
"221 628 OFFCURVE",
"223 649 CURVE",
"354 649 LINE SMOOTH",
"382 649 OFFCURVE",
"413 646 OFFCURVE",
"435 644 CURVE",
"445 631 OFFCURVE",
"454 617 OFFCURVE",
"455 610 CURVE",
"459 595 OFFCURVE",
"464 572 OFFCURVE",
"466 556 CURVE",
"524 561 LINE",
"517 692 LINE",
"498 710 LINE",
"498 710 OFFCURVE",
"404 705 OFFCURVE",
"384 705 CURVE SMOOTH",
"159 705 LINE SMOOTH"
);
},
{
closed = 1;
nodes = (
"397 746 LINE",
"412 788 LINE",
"183 889 LINE",
"157 824 LINE"
);
}
);
width = 586;
},
{
components = (
{
name = E;
transform = "{1, 0, 0, 1, 0, 0}";
},
{
name = grave.cap;
transform = "{1, 0, 0, 1, 104, 211}";
}
);
layerId = "16643525-C5DD-48EC-8E99-463BF28F5E85";
name = Bold;
width = 623;
}
);
leftKerningGroup = H;
rightKerningGroup = E;
unicode = 00C8;
},
{
color = 0;
glyphname = Emacron;
lastChange = "2015-06-18 08:01:47 +0000";
layers = (
{
anchors = (
{
name = _top;
position = "{289, 705}";
},
{
name = bottom;
position = "{303, 0}";
},
{
name = ogonek;
position = "{511, -4}";
},
{
name = top;
position = "{289, 705}";
}
);
layerId = UUID0;
name = Regular;
paths = (
{
closed = 1;
nodes = (
"139 705 OFFCURVE",
"44 710 OFFCURVE",
"44 710 CURVE",
"39 656 LINE",
"116 644 LINE",
"118 631 OFFCURVE",
"125 585 OFFCURVE",
"125 568 CURVE SMOOTH",
"125 137 LINE SMOOTH",
"125 120 OFFCURVE",
"118 74 OFFCURVE",
"116 61 CURVE",
"37 45 LINE",
"42 -5 LINE",
"42 -5 OFFCURVE",
"152 0 OFFCURVE",
"177 0 CURVE SMOOTH",
"397 0 LINE SMOOTH",
"417 0 OFFCURVE",
"511 -4 OFFCURVE",
"511 -4 CURVE",
"530 14 LINE",
"545 165 LINE",
"490 170 LINE",
"488 154 OFFCURVE",
"478 118 OFFCURVE",
"475 103 CURVE SMOOTH",
"473 94 OFFCURVE",
"464 80 OFFCURVE",
"454 66 CURVE",
"432 62 OFFCURVE",
"398 57 OFFCURVE",
"367 57 CURVE SMOOTH",
"223 57 LINE",
"221 76 OFFCURVE",
"216 127 OFFCURVE",
"216 167 CURVE SMOOTH",
"216 338 LINE",
"312 338 LINE",
"332 338 OFFCURVE",
"392 332 OFFCURVE",
"392 332 CURVE",
"401 265 LINE",
"449 271 LINE",
"449 271 OFFCURVE",
"446 330 OFFCURVE",
"446 380 CURVE SMOOTH",
"446 400 OFFCURVE",
"447 464 OFFCURVE",
"447 464 CURVE",
"401 469 LINE",
"392 403 LINE",
"392 403 OFFCURVE",
"352 394 OFFCURVE",
"332 394 CURVE",
"216 394 LINE",
"216 538 LINE SMOOTH",
"216 577 OFFCURVE",
"221 628 OFFCURVE",
"223 649 CURVE",
"354 649 LINE SMOOTH",
"382 649 OFFCURVE",
"413 646 OFFCURVE",
"435 644 CURVE",
"445 631 OFFCURVE",
"454 617 OFFCURVE",
"455 610 CURVE",
"459 595 OFFCURVE",
"464 572 OFFCURVE",
"466 556 CURVE",
"524 561 LINE",
"517 692 LINE",
"498 710 LINE",
"498 710 OFFCURVE",
"404 705 OFFCURVE",
"384 705 CURVE SMOOTH",
"159 705 LINE SMOOTH"
);
},
{
closed = 1;
nodes = (
"445 755 LINE",
"450 815 LINE",
"128 815 LINE",
"128 755 LINE"
);
}
);
width = 586;
},
{
components = (
{
name = E;
transform = "{1, 0, 0, 1, 0, 0}";
},
{
name = macron.cap;
transform = "{1, 0, 0, 1, 121, 211}";
}
);
layerId = "16643525-C5DD-48EC-8E99-463BF28F5E85";
name = Bold;
width = 623;
}
);
leftKerningGroup = H;
rightKerningGroup = E;
unicode = 0112;
},
{
glyphname = Eng;
lastChange = "2015-06-18 08:07:10 +0000";
layers = (
{
anchors = (
{
name = bottom;
position = "{371, 0}";
},
{
name = top;
position = "{371, 705}";
}
);
background = {
paths = (
{
closed = 0;
nodes = (
"581 0 LINE",
"187 556 LINE",
"187 167 LINE SMOOTH",
"187 125 OFFCURVE",
"192 75 OFFCURVE",
"194 61 CURVE",
"275 54 LINE",
"268 0 LINE",
"159 0 LINE",
"134 0 OFFCURVE",
"38 -5 OFFCURVE",
"38 -5 CURVE",
"33 45 LINE",
"111 61 LINE",
"113 74 OFFCURVE",
"120 120 OFFCURVE",
"120 137 CURVE SMOOTH",
"120 568 LINE SMOOTH",
"120 584 OFFCURVE",
"113 629 OFFCURVE",
"111 644 CURVE",
"31 656 LINE",
"36 710 LINE",
"36 710 OFFCURVE",
"131 705 OFFCURVE",
"151 705 CURVE SMOOTH",
"196 706 LINE",
"216 685 LINE",
"216 685 OFFCURVE",
"297 552 OFFCURVE",
"313 530 CURVE SMOOTH",
"575 168 LINE",
"575 568 LINE SMOOTH",
"575 584 OFFCURVE",
"569 626 OFFCURVE",
"566 644 CURVE",
"488 656 LINE",
"493 710 LINE",
"521 708 OFFCURVE",
"580 705 OFFCURVE",
"600 705 CURVE SMOOTH",
"660 705 OFFCURVE",
"731 710 OFFCURVE",
"731 710 CURVE",
"735 651 LINE",
"657 644 LINE",
"654 630 OFFCURVE",
"642 580 OFFCURVE",
"642 538 CURVE SMOOTH",
"641 -10 LINE",
"641 -37 OFFCURVE",
"551 -144 OFFCURVE",
"504 -200 CURVE",
"470 -178 LINE",
"470 -178 OFFCURVE",
"550 -9 OFFCURVE",
"550 11 CURVE SMOOTH"
);
}
);
};
layerId = UUID0;
name = Regular;
paths = (
{
closed = 1;
nodes = (
"187 556 LINE",
"187 167 LINE SMOOTH",
"187 125 OFFCURVE",
"192 75 OFFCURVE",
"194 61 CURVE",
"275 54 LINE",
"268 0 LINE",
"159 0 LINE",
"134 0 OFFCURVE",
"38 -5 OFFCURVE",
"38 -5 CURVE",
"33 45 LINE",
"111 61 LINE",
"113 74 OFFCURVE",
"120 120 OFFCURVE",
"120 137 CURVE SMOOTH",
"120 568 LINE SMOOTH",
"120 584 OFFCURVE",
"113 629 OFFCURVE",
"111 644 CURVE",
"31 656 LINE",
"36 710 LINE",
"36 710 OFFCURVE",
"131 705 OFFCURVE",
"151 705 CURVE SMOOTH",
"196 706 LINE",
"216 685 LINE",
"216 685 OFFCURVE",
"297 552 OFFCURVE",
"313 530 CURVE SMOOTH",
"575 168 LINE",
"575 568 LINE SMOOTH",
"575 584 OFFCURVE",
"569 626 OFFCURVE",
"566 644 CURVE",
"488 656 LINE",
"493 710 LINE",
"521 708 OFFCURVE",
"580 705 OFFCURVE",
"600 705 CURVE SMOOTH",
"660 705 OFFCURVE",
"731 710 OFFCURVE",
"731 710 CURVE",
"735 651 LINE",
"657 644 LINE",
"654 630 OFFCURVE",
"642 580 OFFCURVE",
"642 538 CURVE SMOOTH",
"641 -10 LINE",
"641 -37 OFFCURVE",
"551 -144 OFFCURVE",
"504 -200 CURVE",
"470 -178 LINE",
"470 -178 OFFCURVE",
"563 -28 OFFCURVE",
"563 18 CURVE SMOOTH",
"563 22 OFFCURVE",
"563 26 OFFCURVE",
"561 28 CURVE"
);
}
);
width = 752;
},
{
anchors = (
{
name = bottom;
position = "{397, 0}";
},
{
name = top;
position = "{397, 705}";
}
);
background = {
anchors = (
{
name = top;
position = "{397, 705}";
},
{
name = bottom;
position = "{397, 0}";
}
);
paths = (
{
closed = 0;
nodes = (
"106 11 LINE SMOOTH",
"106 -9 OFFCURVE",
"30 -169 OFFCURVE",
"30 -169 CURVE",
"84 -200 LINE",
"180 -111 OFFCURVE",
"261 -23 OFFCURVE",
"261 10 CURVE SMOOTH"
);
},
{
closed = 0;
nodes = (
"548 11 LINE",
"548 -9 OFFCURVE",
"472 -169 OFFCURVE",
"472 -169 CURVE",
"526 -200 LINE",
"622 -111 OFFCURVE",
"703 -23 OFFCURVE",
"703 10 CURVE",
"703 512 LINE SMOOTH",
"703 552 OFFCURVE",
"710 611 OFFCURVE",
"712 623 CURVE",
"778 629 LINE",
"773 710 LINE",
"773 710 OFFCURVE",
"681 705 OFFCURVE",
"611 705 CURVE",
"591 705 OFFCURVE",
"542 708 OFFCURVE",
"507 710 CURVE",
"502 635 LINE",
"567 623 LINE",
"569 607 OFFCURVE",
"576 562 OFFCURVE",
"576 542 CURVE SMOOTH",
"576 230 LINE",
"356 537 LINE SMOOTH",
"341 559 OFFCURVE",
"268 685 OFFCURVE",
"268 685 CURVE",
"249 705 LINE",
"157 705 LINE SMOOTH",
"137 705 OFFCURVE",
"47 710 OFFCURVE",
"47 710 CURVE",
"42 635 LINE",
"107 623 LINE",
"109 612 OFFCURVE",
"116 562 OFFCURVE",
"116 542 CURVE SMOOTH",
"116 163 LINE SMOOTH",
"116 143 OFFCURVE",
"109 88 OFFCURVE",
"107 77 CURVE",
"41 65 LINE",
"46 -5 LINE",
"46 -5 OFFCURVE",
"146 0 OFFCURVE",
"176 0 CURVE",
"312 0 LINE",
"317 71 LINE",
"252 77 LINE",
"251 87 OFFCURVE",
"243 153 OFFCURVE",
"243 193 CURVE SMOOTH",
"243 450 LINE",
"568 0 LINE"
);
}
);
};
layerId = "16643525-C5DD-48EC-8E99-463BF28F5E85";
name = Bold;
paths = (
{
closed = 1;
nodes = (
"554 20 OFFCURVE",
"554 18 OFFCURVE",
"554 16 CURVE SMOOTH",
"554 -19 OFFCURVE",
"472 -169 OFFCURVE",
"472 -169 CURVE",
"526 -200 LINE",
"622 -111 OFFCURVE",
"703 -23 OFFCURVE",
"703 10 CURVE",
"703 512 LINE SMOOTH",
"703 552 OFFCURVE",
"710 611 OFFCURVE",
"712 623 CURVE",
"778 629 LINE",
"773 710 LINE",
"773 710 OFFCURVE",
"681 705 OFFCURVE",
"611 705 CURVE",
"591 705 OFFCURVE",
"542 708 OFFCURVE",
"507 710 CURVE",
"502 635 LINE",
"567 623 LINE",
"569 607 OFFCURVE",
"576 562 OFFCURVE",
"576 542 CURVE SMOOTH",
"576 230 LINE",
"356 537 LINE SMOOTH",
"341 559 OFFCURVE",
"268 685 OFFCURVE",
"268 685 CURVE",
"249 705 LINE",
"157 705 LINE SMOOTH",
"137 705 OFFCURVE",
"47 710 OFFCURVE",
"47 710 CURVE",
"42 635 LINE",
"107 623 LINE",
"109 612 OFFCURVE",
"116 562 OFFCURVE",
"116 542 CURVE SMOOTH",
"116 163 LINE SMOOTH",
"116 143 OFFCURVE",
"109 88 OFFCURVE",
"107 77 CURVE",
"41 65 LINE",
"46 -5 LINE",
"46 -5 OFFCURVE",
"146 0 OFFCURVE",
"176 0 CURVE",
"312 0 LINE",
"317 71 LINE",
"252 77 LINE",
"251 87 OFFCURVE",
"243 153 OFFCURVE",
"243 193 CURVE SMOOTH",
"243 450 LINE",
"553 21 LINE"
);
}
);
width = 810;
}
);
unicode = 014A;
},
{
color = 0;
glyphname = Eogonek;
lastChange = "2015-06-18 08:01:47 +0000";
layers = (
{
anchors = (
{
name = _ogonek;
position = "{511, -4}";
},
{
name = bottom;
position = "{303, 0}";
},
{
name = ogonek;
position = "{511, -4}";
},
{
name = top;
position = "{289, 705}";
}
);
layerId = UUID0;
name = Regular;
paths = (
{
closed = 1;
nodes = (
"139 705 OFFCURVE",
"44 710 OFFCURVE",
"44 710 CURVE",
"39 656 LINE",
"116 644 LINE",
"118 631 OFFCURVE",
"125 585 OFFCURVE",
"125 568 CURVE SMOOTH",
"125 137 LINE SMOOTH",
"125 120 OFFCURVE",
"118 74 OFFCURVE",
"116 61 CURVE",
"37 45 LINE",
"42 -5 LINE",
"42 -5 OFFCURVE",
"152 0 OFFCURVE",
"177 0 CURVE SMOOTH",
"397 0 LINE SMOOTH",
"417 0 OFFCURVE",
"511 -4 OFFCURVE",
"511 -4 CURVE",
"530 14 LINE",
"545 165 LINE",
"490 170 LINE",
"488 154 OFFCURVE",
"478 118 OFFCURVE",
"475 103 CURVE SMOOTH",
"473 94 OFFCURVE",
"464 80 OFFCURVE",
"454 66 CURVE",
"432 62 OFFCURVE",
"398 57 OFFCURVE",
"367 57 CURVE SMOOTH",
"223 57 LINE",
"221 76 OFFCURVE",
"216 127 OFFCURVE",
"216 167 CURVE SMOOTH",
"216 338 LINE",
"312 338 LINE",
"332 338 OFFCURVE",
"392 332 OFFCURVE",
"392 332 CURVE",
"401 265 LINE",
"449 271 LINE",
"449 271 OFFCURVE",
"446 330 OFFCURVE",
"446 380 CURVE SMOOTH",
"446 400 OFFCURVE",
"447 464 OFFCURVE",
"447 464 CURVE",
"401 469 LINE",
"392 403 LINE",
"392 403 OFFCURVE",
"352 394 OFFCURVE",
"332 394 CURVE",
"216 394 LINE",
"216 538 LINE SMOOTH",
"216 577 OFFCURVE",
"221 628 OFFCURVE",
"223 649 CURVE",
"354 649 LINE SMOOTH",
"382 649 OFFCURVE",
"413 646 OFFCURVE",
"435 644 CURVE",
"445 631 OFFCURVE",
"454 617 OFFCURVE",
"455 610 CURVE",
"459 595 OFFCURVE",
"464 572 OFFCURVE",
"466 556 CURVE",
"524 561 LINE",
"517 692 LINE",
"498 710 LINE",
"498 710 OFFCURVE",
"404 705 OFFCURVE",
"384 705 CURVE SMOOTH",
"159 705 LINE SMOOTH"
);
},
{
closed = 1;
nodes = (
"363 -33 OFFCURVE",
"334 -78 OFFCURVE",
"334 -124 CURVE SMOOTH",
"334 -193 OFFCURVE",
"398 -215 OFFCURVE",
"449 -215 CURVE SMOOTH",
"471 -215 OFFCURVE",
"495 -210 OFFCURVE",
"513 -203 CURVE",
"502 -160 LINE",
"491 -163 OFFCURVE",
"479 -165 OFFCURVE",
"468 -165 CURVE SMOOTH",
"428 -165 OFFCURVE",
"409 -145 OFFCURVE",
"409 -119 CURVE SMOOTH",
"409 -82 OFFCURVE",
"447 -30 OFFCURVE",
"511 -4 CURVE",
"445 6 LINE"
);
}
);
width = 586;
},
{
components = (
{
name = E;
transform = "{1, 0, 0, 1, 0, 0}";
},
{
name = ogonek;
transform = "{1, 0, 0, 1, 236, -10}";
}
);
layerId = "16643525-C5DD-48EC-8E99-463BF28F5E85";
name = Bold;
width = 623;
}
);
unicode = 0118;
},
{
color = 0;
glyphname = Eth;
lastChange = "2015-06-18 08:01:47 +0000";
layers = (
{
anchors = (
{
name = center;
position = "{357, 353}";
},
{
name = top;
position = "{327, 705}";
}
);
background = {
paths = (
{
closed = 1;
nodes = (
"41 656 LINE",
"118 644 LINE",
"120 631 OFFCURVE",
"127 585 OFFCURVE",
"127 568 CURVE SMOOTH",
"127 380 LINE",
"39 380 LINE",
"39 337 LINE",
"127 337 LINE",
"127 137 LINE SMOOTH",
"127 120 OFFCURVE",
"120 74 OFFCURVE",
"118 61 CURVE",
"39 45 LINE",
"44 -5 LINE",
"44 -5 OFFCURVE",
"141 0 OFFCURVE",
"162 0 CURVE SMOOTH",
"222 0 OFFCURVE",
"291 -6 OFFCURVE",
"331 -6 CURVE SMOOTH",
"547 -6 OFFCURVE",
"676 139 OFFCURVE",
"676 352 CURVE SMOOTH",
"676 575 OFFCURVE",
"554 715 OFFCURVE",
"331 715 CURVE SMOOTH",
"265 715 OFFCURVE",
"208 707 OFFCURVE",
"144 705 CURVE",
"110 707 OFFCURVE",
"46 710 OFFCURVE",
"46 710 CURVE"
);
},
{
closed = 1;
nodes = (
"218 337 LINE",
"356 337 LINE",
"361 380 LINE",
"218 380 LINE",
"218 538 LINE SMOOTH",
"218 578 OFFCURVE",
"223 631 OFFCURVE",
"225 650 CURVE",
"250 653 OFFCURVE",
"286 655 OFFCURVE",
"332 655 CURVE SMOOTH",
"499 655 OFFCURVE",
"577 519 OFFCURVE",
"577 352 CURVE SMOOTH",
"577 187 OFFCURVE",
"499 53 OFFCURVE",
"332 53 CURVE SMOOTH",
"288 53 OFFCURVE",
"251 55 OFFCURVE",
"225 57 CURVE",
"224 61 OFFCURVE",
"218 119 OFFCURVE",
"218 167 CURVE SMOOTH"
);
}
);
};
layerId = UUID0;
name = Regular;
paths = (
{
closed = 1;
nodes = (
"356 337 LINE",
"361 380 LINE",
"39 380 LINE",
"39 337 LINE"
);
},
{
closed = 1;
nodes = (
"45 710 CURVE",
"40 656 LINE",
"117 644 LINE",
"119 631 OFFCURVE",
"126 585 OFFCURVE",
"126 568 CURVE SMOOTH",
"126 137 LINE SMOOTH",
"126 120 OFFCURVE",
"119 74 OFFCURVE",
"117 61 CURVE",
"38 45 LINE",
"43 -5 LINE",
"43 -5 OFFCURVE",
"153 0 OFFCURVE",
"178 0 CURVE SMOOTH",
"228 0 OFFCURVE",
"280 -4 OFFCURVE",
"330 -4 CURVE SMOOTH",
"546 -4 OFFCURVE",
"675 141 OFFCURVE",
"675 352 CURVE SMOOTH",
"675 570 OFFCURVE",
"553 710 OFFCURVE",
"330 710 CURVE SMOOTH",
"264 710 OFFCURVE",
"224 705 OFFCURVE",
"160 705 CURVE SMOOTH",
"140 705 OFFCURVE",
"78 708 OFFCURVE"
);
},
{
closed = 1;
nodes = (
"498 650 OFFCURVE",
"576 514 OFFCURVE",
"576 352 CURVE SMOOTH",
"576 189 OFFCURVE",
"498 55 OFFCURVE",
"331 55 CURVE SMOOTH",
"287 55 OFFCURVE",
"250 57 OFFCURVE",
"224 58 CURVE",
"223 62 OFFCURVE",
"217 119 OFFCURVE",
"217 167 CURVE SMOOTH",
"217 538 LINE SMOOTH",
"217 578 OFFCURVE",
"222 631 OFFCURVE",
"224 650 CURVE",
"249 650 OFFCURVE",
"285 650 OFFCURVE",
"331 650 CURVE SMOOTH"
);
}
);
width = 726;
},
{
background = {
paths = (
{
closed = 1;
nodes = (
"53 635 LINE",
"118 623 LINE",
"118 623 OFFCURVE",
"127 562 OFFCURVE",
"127 512 CURVE SMOOTH",
"127 395 LINE",
"58 395 LINE",
"58 322 LINE",
"127 322 LINE",
"127 163 LINE SMOOTH",
"127 143 OFFCURVE",
"118 77 OFFCURVE",
"118 77 CURVE",
"52 65 LINE",
"57 -5 LINE",
"57 -5 OFFCURVE",
"110 0 OFFCURVE",
"157 0 CURVE SMOOTH",
"217 0 OFFCURVE",
"304 -6 OFFCURVE",
"367 -6 CURVE SMOOTH",
"599 -6 OFFCURVE",
"719 141 OFFCURVE",
"719 352 CURVE SMOOTH",
"719 567 OFFCURVE",
"599 715 OFFCURVE",
"367 715 CURVE SMOOTH",
"318 715 OFFCURVE",
"206 705 OFFCURVE",
"158 705 CURVE",
"111 705 OFFCURVE",
"58 710 OFFCURVE",
"58 710 CURVE"
);
},
{
closed = 1;
nodes = (
"282 322 LINE",
"375 322 LINE",
"380 395 LINE",
"282 395 LINE",
"282 542 LINE SMOOTH",
"282 558 OFFCURVE",
"285 607 OFFCURVE",
"286 624 CURVE",
"309 628 OFFCURVE",
"333 632 OFFCURVE",
"353 632 CURVE SMOOTH",
"500 632 OFFCURVE",
"552 506 OFFCURVE",
"552 354 CURVE SMOOTH",
"552 199 OFFCURVE",
"501 77 OFFCURVE",
"351 77 CURVE SMOOTH",
"324 77 OFFCURVE",
"297 79 OFFCURVE",
"286 80 CURVE",
"285 92 OFFCURVE",
"282 149 OFFCURVE",
"282 193 CURVE SMOOTH"
);
}
);
};
components = (
{
name = D;
transform = "{1, 0, 0, 1, 11, 0}";
}
);
layerId = "16643525-C5DD-48EC-8E99-463BF28F5E85";
name = Bold;
paths = (
{
closed = 1;
nodes = (
"375 322 LINE",
"380 395 LINE",
"58 395 LINE",
"58 322 LINE"
);
}
);
width = 769;
}
);
unicode = 00D0;
},
{
glyphname = Etilde;
lastChange = "2015-06-18 08:01:47 +0000";
layers = (
{
anchors = (
{
name = _top;
position = "{289, 705}";
},
{
name = bottom;
position = "{303, 0}";
},
{
name = ogonek;
position = "{511, -4}";
},
{
name = top;
position = "{289, 705}";
}
);
layerId = UUID0;
name = Regular;
paths = (
{
closed = 1;
nodes = (
"139 705 OFFCURVE",
"44 710 OFFCURVE",
"44 710 CURVE",
"39 656 LINE",
"116 644 LINE",
"118 631 OFFCURVE",
"125 585 OFFCURVE",
"125 568 CURVE SMOOTH",
"125 137 LINE SMOOTH",
"125 120 OFFCURVE",
"118 74 OFFCURVE",
"116 61 CURVE",
"37 45 LINE",
"42 -5 LINE",
"42 -5 OFFCURVE",
"152 0 OFFCURVE",
"177 0 CURVE SMOOTH",
"397 0 LINE SMOOTH",
"417 0 OFFCURVE",
"511 -4 OFFCURVE",
"511 -4 CURVE",
"530 14 LINE",
"545 165 LINE",
"490 170 LINE",
"488 154 OFFCURVE",
"478 118 OFFCURVE",
"475 103 CURVE SMOOTH",
"473 94 OFFCURVE",
"464 80 OFFCURVE",
"454 66 CURVE",
"432 62 OFFCURVE",
"398 57 OFFCURVE",
"367 57 CURVE SMOOTH",
"223 57 LINE",
"221 76 OFFCURVE",
"216 127 OFFCURVE",
"216 167 CURVE SMOOTH",
"216 338 LINE",
"312 338 LINE",
"332 338 OFFCURVE",
"392 332 OFFCURVE",
"392 332 CURVE",
"401 265 LINE",
"449 271 LINE",
"449 271 OFFCURVE",
"446 330 OFFCURVE",
"446 380 CURVE SMOOTH",
"446 400 OFFCURVE",
"447 464 OFFCURVE",
"447 464 CURVE",
"401 469 LINE",
"392 403 LINE",
"392 403 OFFCURVE",
"352 394 OFFCURVE",
"332 394 CURVE",
"216 394 LINE",
"216 538 LINE SMOOTH",
"216 577 OFFCURVE",
"221 628 OFFCURVE",
"223 649 CURVE",
"354 649 LINE SMOOTH",
"382 649 OFFCURVE",
"413 646 OFFCURVE",
"435 644 CURVE",
"445 631 OFFCURVE",
"454 617 OFFCURVE",
"455 610 CURVE",
"459 595 OFFCURVE",
"464 572 OFFCURVE",
"466 556 CURVE",
"524 561 LINE",
"517 692 LINE",
"498 710 LINE",
"498 710 OFFCURVE",
"404 705 OFFCURVE",
"384 705 CURVE SMOOTH",
"159 705 LINE SMOOTH"
);
},
{
closed = 1;
nodes = (
"421 870 LINE",
"421 870 OFFCURVE",
"395 819 OFFCURVE",
"368 819 CURVE SMOOTH",
"328 819 OFFCURVE",
"243 860 OFFCURVE",
"203 860 CURVE SMOOTH",
"163 860 OFFCURVE",
"121 759 OFFCURVE",
"121 759 CURVE",
"157 738 LINE",
"157 738 OFFCURVE",
"183 792 OFFCURVE",
"210 792 CURVE SMOOTH",
"250 792 OFFCURVE",
"334 751 OFFCURVE",
"374 751 CURVE SMOOTH",
"414 751 OFFCURVE",
"457 849 OFFCURVE",
"457 849 CURVE"
);
}
);
width = 586;
},
{
components = (
{
name = E;
transform = "{1, 0, 0, 1, 0, 0}";
},
{
name = tilde.cap;
transform = "{1, 0, 0, 1, 111, 211}";
}
);
layerId = "16643525-C5DD-48EC-8E99-463BF28F5E85";
name = Bold;
width = 623;
}
);
leftKerningGroup = H;
rightKerningGroup = E;
unicode = 1EBC;
},
{
color = 0;
glyphname = F;
lastChange = "2015-06-18 07:52:54 +0000";
layers = (
{
background = {
paths = (
{
closed = 1;
nodes = (
"297 710 LINE",
"297 710 OFFCURVE",
"219 705 OFFCURVE",
"159 705 CURVE SMOOTH",
"139 705 OFFCURVE",
"44 710 OFFCURVE",
"44 710 CURVE",
"39 656 LINE",
"116 644 LINE",
"118 631 OFFCURVE",
"125 585 OFFCURVE",
"125 568 CURVE SMOOTH",
"125 137 LINE SMOOTH",
"125 120 OFFCURVE",
"118 74 OFFCURVE",
"116 61 CURVE",
"37 45 LINE",
"42 -5 LINE",
"42 -5 OFFCURVE",
"152 0 OFFCURVE",
"177 0 CURVE",
"306 0 LINE",
"313 54 LINE",
"223 61 LINE",
"221 75 OFFCURVE",
"216 125 OFFCURVE",
"216 167 CURVE SMOOTH",
"216 538 LINE SMOOTH",
"216 580 OFFCURVE",
"221 630 OFFCURVE",
"223 644 CURVE",
"301 651 LINE"
);
}
);
};
layerId = UUID0;
leftMetricsKey = "=H";
name = Regular;
paths = (
{
closed = 1;
nodes = (
"39 656 LINE",
"116 644 LINE",
"118 631 OFFCURVE",
"125 585 OFFCURVE",
"125 568 CURVE SMOOTH",
"125 137 LINE SMOOTH",
"125 120 OFFCURVE",
"118 74 OFFCURVE",
"116 61 CURVE",
"37 45 LINE",
"42 -5 LINE",
"42 -5 OFFCURVE",
"152 0 OFFCURVE",
"177 0 CURVE SMOOTH",
"257 0 OFFCURVE",
"316 0 OFFCURVE",
"316 0 CURVE",
"323 54 LINE",
"223 61 LINE",
"221 75 OFFCURVE",
"216 125 OFFCURVE",
"216 167 CURVE SMOOTH",
"216 330 LINE",
"312 330 LINE",
"332 330 OFFCURVE",
"392 324 OFFCURVE",
"392 324 CURVE",
"401 257 LINE",
"449 263 LINE",
"449 263 OFFCURVE",
"446 322 OFFCURVE",
"446 372 CURVE SMOOTH",
"446 392 OFFCURVE",
"447 456 OFFCURVE",
"447 456 CURVE",
"401 461 LINE",
"392 395 LINE",
"392 395 OFFCURVE",
"352 386 OFFCURVE",
"332 386 CURVE",
"216 386 LINE",
"216 538 LINE SMOOTH",
"216 577 OFFCURVE",
"221 628 OFFCURVE",
"223 649 CURVE",
"354 649 LINE SMOOTH",
"382 649 OFFCURVE",
"413 646 OFFCURVE",
"435 644 CURVE",
"445 631 OFFCURVE",
"454 617 OFFCURVE",
"455 610 CURVE",
"459 595 OFFCURVE",
"464 572 OFFCURVE",
"466 556 CURVE",
"524 561 LINE",
"517 692 LINE",
"498 710 LINE",
"498 710 OFFCURVE",
"404 705 OFFCURVE",
"384 705 CURVE SMOOTH",
"159 705 LINE SMOOTH",
"139 705 OFFCURVE",
"44 710 OFFCURVE",
"44 710 CURVE"
);
}
);
width = 551;
},
{
background = {
paths = (
{
closed = 1;
nodes = (
"42 635 LINE",
"107 623 LINE",
"109 607 OFFCURVE",
"116 562 OFFCURVE",
"116 512 CURVE SMOOTH",
"116 163 LINE SMOOTH",
"116 143 OFFCURVE",
"108 87 OFFCURVE",
"107 77 CURVE",
"41 65 LINE",
"46 -5 LINE",
"46 -5 OFFCURVE",
"166 0 OFFCURVE",
"196 0 CURVE SMOOTH",
"309 0 OFFCURVE",
"370 0 OFFCURVE",
"370 0 CURVE",
"375 71 LINE",
"280 77 LINE",
"276 94 OFFCURVE",
"271 140 OFFCURVE",
"271 190 CURVE SMOOTH",
"271 305 LINE",
"333 305 LINE",
"353 305 OFFCURVE",
"397 299 OFFCURVE",
"397 299 CURVE",
"406 239 LINE",
"470 245 LINE",
"470 245 OFFCURVE",
"467 322 OFFCURVE",
"467 372 CURVE SMOOTH",
"467 392 OFFCURVE",
"468 455 OFFCURVE",
"468 455 CURVE",
"406 460 LINE",
"397 396 LINE",
"397 396 OFFCURVE",
"373 387 OFFCURVE",
"353 387 CURVE",
"271 387 LINE",
"271 542 LINE SMOOTH",
"271 558 OFFCURVE",
"274 605 OFFCURVE",
"275 623 CURVE",
"385 623 LINE SMOOTH",
"415 623 OFFCURVE",
"445 620 OFFCURVE",
"465 618 CURVE",
"469 608 OFFCURVE",
"473 599 OFFCURVE",
"474 595 CURVE",
"478 580 OFFCURVE",
"481 552 OFFCURVE",
"483 536 CURVE",
"555 541 LINE",
"548 692 LINE",
"529 710 LINE",
"529 710 OFFCURVE",
"435 705 OFFCURVE",
"415 705 CURVE SMOOTH",
"167 705 LINE SMOOTH",
"137 705 OFFCURVE",
"47 710 OFFCURVE",
"47 710 CURVE SMOOTH"
);
}
);
};
layerId = "16643525-C5DD-48EC-8E99-463BF28F5E85";
name = Bold;
paths = (
{
closed = 1;
nodes = (
"275 623 LINE",
"385 623 LINE SMOOTH",
"415 623 OFFCURVE",
"445 620 OFFCURVE",
"465 618 CURVE",
"469 608 OFFCURVE",
"473 599 OFFCURVE",
"474 595 CURVE",
"478 580 OFFCURVE",
"481 552 OFFCURVE",
"483 536 CURVE",
"555 541 LINE",
"548 692 LINE",
"529 710 LINE",
"529 710 OFFCURVE",
"435 705 OFFCURVE",
"415 705 CURVE SMOOTH",
"167 705 LINE"
);
},
{
closed = 1;
nodes = (
"333 305 LINE",
"353 305 OFFCURVE",
"397 299 OFFCURVE",
"397 299 CURVE",
"406 239 LINE",
"470 245 LINE",
"470 245 OFFCURVE",
"467 322 OFFCURVE",
"467 372 CURVE SMOOTH",
"467 392 OFFCURVE",
"468 455 OFFCURVE",
"468 455 CURVE",
"406 460 LINE",
"397 396 LINE",
"397 396 OFFCURVE",
"373 387 OFFCURVE",
"353 387 CURVE",
"261 387 LINE",
"261 305 LINE"
);
},
{
closed = 1;
nodes = (
"167 705 LINE",
"137 705 OFFCURVE",
"47 710 OFFCURVE",
"47 710 CURVE",
"42 635 LINE",
"107 623 LINE",
"109 607 OFFCURVE",
"116 562 OFFCURVE",
"116 542 CURVE SMOOTH",
"116 163 LINE SMOOTH",
"116 143 OFFCURVE",
"108 87 OFFCURVE",
"107 77 CURVE",
"41 65 LINE",
"46 -5 LINE",
"46 -5 OFFCURVE",
"166 0 OFFCURVE",
"196 0 CURVE",
"370 0 LINE",
"375 71 LINE",
"280 77 LINE",
"278 91 OFFCURVE",
"271 153 OFFCURVE",
"271 193 CURVE SMOOTH",
"271 512 LINE SMOOTH",
"271 552 OFFCURVE",
"275 618 OFFCURVE",
"278 643 CURVE"
);
}
);
width = 582;
}
);
leftKerningGroup = H;
leftMetricsKey = "=H";
rightKerningGroup = F;
unicode = 0046;
},
{
color = 0;
glyphname = G;
lastChange = "2015-06-18 07:52:54 +0000";
layers = (
{
anchors = (
{
name = bottom;
position = "{380, 0}";
},
{
name = top;
position = "{378, 705}";
}
);
layerId = UUID0;
leftMetricsKey = "=O";
name = Regular;
paths = (
{
closed = 1;
nodes = (
"509 619 OFFCURVE",
"515 598 OFFCURVE",
"515 589 CURVE SMOOTH",
"515 542 LINE",
"574 538 LINE",
"584 686 LINE",
"517 702 OFFCURVE",
"451 720 OFFCURVE",
"364 720 CURVE SMOOTH",
"143 720 OFFCURVE",
"30 570 OFFCURVE",
"30 352 CURVE SMOOTH",
"30 134 OFFCURVE",
"143 -15 OFFCURVE",
"364 -15 CURVE SMOOTH",
"450 -15 OFFCURVE",
"526 3 OFFCURVE",
"593 19 CURVE",
"593 166 LINE SMOOTH",
"593 216 OFFCURVE",
"602 319 OFFCURVE",
"602 319 CURVE",
"584 336 LINE",
"584 336 OFFCURVE",
"533 333 OFFCURVE",
"513 333 CURVE",
"402 333 LINE",
"397 275 LINE",
"503 267 LINE",
"503 267 OFFCURVE",
"513 216 OFFCURVE",
"513 196 CURVE SMOOTH",
"513 128 LINE SMOOTH",
"513 117 OFFCURVE",
"507 89 OFFCURVE",
"501 63 CURVE",
"456 51 OFFCURVE",
"401 43 OFFCURVE",
"361 43 CURVE SMOOTH",
"206 43 OFFCURVE",
"131 180 OFFCURVE",
"131 353 CURVE SMOOTH",
"131 526 OFFCURVE",
"206 662 OFFCURVE",
"361 662 CURVE SMOOTH",
"404 662 OFFCURVE",
"459 652 OFFCURVE",
"503 639 CURVE"
);
}
);
width = 665;
},
{
anchors = (
{
name = bottom;
position = "{420, 0}";
},
{
name = top;
position = "{417, 705}";
}
);
background = {
paths = (
{
closed = 0;
nodes = (
"555 525 LINE",
"634 521 LINE",
"647 686 LINE",
"578 702 OFFCURVE",
"509 720 OFFCURVE",
"418 720 CURVE SMOOTH",
"175 720 OFFCURVE",
"51 570 OFFCURVE",
"51 352 CURVE SMOOTH",
"51 134 OFFCURVE",
"175 -15 OFFCURVE",
"418 -15 CURVE SMOOTH",
"508 -15 OFFCURVE",
"587 3 OFFCURVE",
"656 19 CURVE",
"656 196 LINE SMOOTH",
"656 246 OFFCURVE",
"665 341 OFFCURVE",
"665 341 CURVE",
"637 366 LINE",
"637 366 OFFCURVE",
"555 363 OFFCURVE",
"522 363 CURVE",
"411 363 LINE",
"406 265 LINE",
"512 257 LINE",
"512 257 OFFCURVE",
"522 216 OFFCURVE",
"522 196 CURVE SMOOTH",
"522 128 LINE SMOOTH",
"522 120 OFFCURVE",
"519 104 OFFCURVE",
"515 86 CURVE",
"482 81 OFFCURVE",
"451 78 OFFCURVE",
"417 78 CURVE SMOOTH",
"283 78 OFFCURVE",
"231 200 OFFCURVE",
"231 353 CURVE SMOOTH",
"231 506 OFFCURVE",
"284 627 OFFCURVE",
"418 627 CURVE SMOOTH",
"460 627 OFFCURVE",
"496 622 OFFCURVE",
"540 613 CURVE",
"545 600 OFFCURVE",
"552 578 OFFCURVE",
"552 572 CURVE SMOOTH",
"555 525 LINE"
);
}
);
};
layerId = "16643525-C5DD-48EC-8E99-463BF28F5E85";
name = Bold;
paths = (
{
closed = 1;
nodes = (
"548 600 OFFCURVE",
"555 578 OFFCURVE",
"555 572 CURVE SMOOTH",
"558 525 LINE",
"635 521 LINE",
"647 686 LINE",
"578 704 OFFCURVE",
"509 720 OFFCURVE",
"418 720 CURVE SMOOTH",
"175 720 OFFCURVE",
"51 570 OFFCURVE",
"51 352 CURVE SMOOTH",
"51 134 OFFCURVE",
"175 -15 OFFCURVE",
"418 -15 CURVE SMOOTH",
"508 -15 OFFCURVE",
"587 3 OFFCURVE",
"656 19 CURVE",
"656 196 LINE SMOOTH",
"656 246 OFFCURVE",
"665 341 OFFCURVE",
"665 341 CURVE",
"637 366 LINE",
"637 366 OFFCURVE",
"555 363 OFFCURVE",
"522 363 CURVE",
"411 363 LINE",
"406 265 LINE",
"512 257 LINE",
"512 257 OFFCURVE",
"522 216 OFFCURVE",
"522 196 CURVE SMOOTH",
"522 128 LINE SMOOTH",
"522 120 OFFCURVE",
"519 104 OFFCURVE",
"515 86 CURVE",
"482 81 OFFCURVE",
"451 78 OFFCURVE",
"417 78 CURVE SMOOTH",
"283 78 OFFCURVE",
"231 200 OFFCURVE",
"231 353 CURVE SMOOTH",
"231 506 OFFCURVE",
"284 627 OFFCURVE",
"418 627 CURVE SMOOTH",
"460 627 OFFCURVE",
"499 622 OFFCURVE",
"543 613 CURVE"
);
}
);
width = 732;
}
);
leftKerningGroup = O;
leftMetricsKey = "=O";
rightKerningGroup = G;
unicode = 0047;
},
{
color = 0;
glyphname = Gbreve;
lastChange = "2015-06-18 08:01:47 +0000";
layers = (
{
anchors = (
{
name = _top;
position = "{378, 705}";
},
{
name = bottom;
position = "{380, 0}";
},
{
name = top;
position = "{378, 705}";
}
);
layerId = UUID0;
name = Regular;
paths = (
{
closed = 1;
nodes = (
"509 619 OFFCURVE",
"515 598 OFFCURVE",
"515 589 CURVE SMOOTH",
"515 542 LINE",
"574 538 LINE",
"584 686 LINE",
"517 702 OFFCURVE",
"451 720 OFFCURVE",
"364 720 CURVE SMOOTH",
"143 720 OFFCURVE",
"30 570 OFFCURVE",
"30 352 CURVE SMOOTH",
"30 134 OFFCURVE",
"143 -15 OFFCURVE",
"364 -15 CURVE SMOOTH",
"450 -15 OFFCURVE",
"526 3 OFFCURVE",
"593 19 CURVE",
"593 166 LINE SMOOTH",
"593 216 OFFCURVE",
"602 319 OFFCURVE",
"602 319 CURVE",
"584 336 LINE",
"584 336 OFFCURVE",
"533 333 OFFCURVE",
"513 333 CURVE",
"402 333 LINE",
"397 275 LINE",
"503 267 LINE",
"503 267 OFFCURVE",
"513 216 OFFCURVE",
"513 196 CURVE SMOOTH",
"513 128 LINE SMOOTH",
"513 117 OFFCURVE",
"507 89 OFFCURVE",
"501 63 CURVE",
"456 51 OFFCURVE",
"401 43 OFFCURVE",
"361 43 CURVE SMOOTH",
"206 43 OFFCURVE",
"131 180 OFFCURVE",
"131 353 CURVE SMOOTH",
"131 526 OFFCURVE",
"206 662 OFFCURVE",
"361 662 CURVE SMOOTH",
"404 662 OFFCURVE",
"459 652 OFFCURVE",
"503 639 CURVE"
);
},
{
closed = 1;
nodes = (
"461 881 LINE",
"461 831 OFFCURVE",
"428 797 OFFCURVE",
"378 797 CURVE",
"328 797 OFFCURVE",
"295 831 OFFCURVE",
"295 881 CURVE",
"239 881 LINE",
"239 791 OFFCURVE",
"288 741 OFFCURVE",
"378 741 CURVE SMOOTH",
"468 741 OFFCURVE",
"517 791 OFFCURVE",
"517 881 CURVE"
);
}
);
width = 665;
},
{
components = (
{
name = G;
transform = "{1, 0, 0, 1, 0, 0}";
},
{
name = breve.cap;
transform = "{1, 0, 0, 1, 237, 211}";
}
);
layerId = "16643525-C5DD-48EC-8E99-463BF28F5E85";
name = Bold;
width = 732;
}
);
unicode = 011E;
},
{
color = 0;
glyphname = Gdotaccent;
lastChange = "2015-06-18 08:01:47 +0000";
layers = (
{
anchors = (
{
name = _top;
position = "{378, 705}";
},
{
name = bottom;
position = "{380, 0}";
},
{
name = top;
position = "{378, 705}";
}
);
layerId = UUID0;
name = Regular;
paths = (
{
closed = 1;
nodes = (
"509 619 OFFCURVE",
"515 598 OFFCURVE",
"515 589 CURVE SMOOTH",
"515 542 LINE",
"574 538 LINE",
"584 686 LINE",
"517 702 OFFCURVE",
"451 720 OFFCURVE",
"364 720 CURVE SMOOTH",
"143 720 OFFCURVE",
"30 570 OFFCURVE",
"30 352 CURVE SMOOTH",
"30 134 OFFCURVE",
"143 -15 OFFCURVE",
"364 -15 CURVE SMOOTH",
"450 -15 OFFCURVE",
"526 3 OFFCURVE",
"593 19 CURVE",
"593 166 LINE SMOOTH",
"593 216 OFFCURVE",
"602 319 OFFCURVE",
"602 319 CURVE",
"584 336 LINE",
"584 336 OFFCURVE",
"533 333 OFFCURVE",
"513 333 CURVE",
"402 333 LINE",
"397 275 LINE",
"503 267 LINE",
"503 267 OFFCURVE",
"513 216 OFFCURVE",
"513 196 CURVE SMOOTH",
"513 128 LINE SMOOTH",
"513 117 OFFCURVE",
"507 89 OFFCURVE",
"501 63 CURVE",
"456 51 OFFCURVE",
"401 43 OFFCURVE",
"361 43 CURVE SMOOTH",
"206 43 OFFCURVE",
"131 180 OFFCURVE",
"131 353 CURVE SMOOTH",
"131 526 OFFCURVE",
"206 662 OFFCURVE",
"361 662 CURVE SMOOTH",
"404 662 OFFCURVE",
"459 652 OFFCURVE",
"503 639 CURVE"
);
},
{
closed = 1;
nodes = (
"340 872 OFFCURVE",
"319 845 OFFCURVE",
"319 807 CURVE SMOOTH",
"319 769 OFFCURVE",
"340 743 OFFCURVE",
"378 743 CURVE SMOOTH",
"416 743 OFFCURVE",
"437 769 OFFCURVE",
"437 807 CURVE SMOOTH",
"437 848 OFFCURVE",
"415 872 OFFCURVE",
"378 872 CURVE SMOOTH"
);
}
);
width = 665;
},
{
components = (
{
name = G;
transform = "{1, 0, 0, 1, 0, 0}";
},
{
name = dotaccent.cap;
transform = "{1, 0, 0, 1, 237, 211}";
}
);
layerId = "16643525-C5DD-48EC-8E99-463BF28F5E85";
name = Bold;
width = 732;
}
);
leftKerningGroup = O;
rightKerningGroup = G;
unicode = 0120;
},
{
color = 0;
glyphname = H;
lastChange = "2015-06-18 07:52:54 +0000";
layers = (
{
anchors = (
{
name = center;
position = "{382, 353}";
},
{
name = top;
position = "{382, 705}";
}
);
background = {
paths = (
{
closed = 1;
nodes = (
"719 710 LINE",
"719 710 OFFCURVE",
"662 705 OFFCURVE",
"582 705 CURVE SMOOTH",
"562 705 OFFCURVE",
"466 710 OFFCURVE",
"466 710 CURVE",
"461 656 LINE",
"538 644 LINE",
"540 631 OFFCURVE",
"547 585 OFFCURVE",
"547 568 CURVE SMOOTH",
"547 383 LINE",
"216 378 LINE",
"216 538 LINE SMOOTH",
"216 580 OFFCURVE",
"221 630 OFFCURVE",
"223 644 CURVE",
"301 651 LINE",
"297 710 LINE",
"297 710 OFFCURVE",
"240 705 OFFCURVE",
"160 705 CURVE SMOOTH",
"140 705 OFFCURVE",
"44 710 OFFCURVE",
"44 710 CURVE",
"39 656 LINE",
"116 644 LINE",
"118 631 OFFCURVE",
"125 585 OFFCURVE",
"125 568 CURVE SMOOTH",
"125 137 LINE SMOOTH",
"125 120 OFFCURVE",
"118 74 OFFCURVE",
"116 61 CURVE",
"37 45 LINE",
"42 -5 LINE",
"42 -5 OFFCURVE",
"140 0 OFFCURVE",
"160 0 CURVE SMOOTH",
"240 0 OFFCURVE",
"306 -5 OFFCURVE",
"306 -5 CURVE",
"313 54 LINE",
"223 61 LINE",
"221 75 OFFCURVE",
"216 125 OFFCURVE",
"216 167 CURVE SMOOTH",
"216 327 LINE",
"547 327 LINE",
"547 137 LINE SMOOTH",
"547 120 OFFCURVE",
"540 74 OFFCURVE",
"538 61 CURVE",
"459 45 LINE",
"464 -5 LINE",
"464 -5 OFFCURVE",
"562 0 OFFCURVE",
"582 0 CURVE SMOOTH",
"662 0 OFFCURVE",
"728 -5 OFFCURVE",
"728 -5 CURVE",
"735 54 LINE",
"645 61 LINE",
"643 75 OFFCURVE",
"638 125 OFFCURVE",
"638 167 CURVE SMOOTH",
"638 538 LINE SMOOTH",
"638 580 OFFCURVE",
"643 630 OFFCURVE",
"645 644 CURVE",
"723 651 LINE"
);
}
);
};
layerId = UUID0;
name = Regular;
paths = (
{
closed = 1;
nodes = (
"552 383 LINE",
"211 378 LINE",
"211 327 LINE",
"552 327 LINE"
);
},
{
closed = 1;
nodes = (
"297 710 LINE",
"297 710 OFFCURVE",
"219 705 OFFCURVE",
"159 705 CURVE SMOOTH",
"139 705 OFFCURVE",
"44 710 OFFCURVE",
"44 710 CURVE",
"39 656 LINE",
"116 644 LINE",
"118 631 OFFCURVE",
"125 585 OFFCURVE",
"125 568 CURVE SMOOTH",
"125 137 LINE SMOOTH",
"125 120 OFFCURVE",
"118 74 OFFCURVE",
"116 61 CURVE",
"37 45 LINE",
"42 -5 LINE",
"42 -5 OFFCURVE",
"152 0 OFFCURVE",
"177 0 CURVE",
"306 0 LINE",
"313 54 LINE",
"223 61 LINE",
"221 75 OFFCURVE",
"216 125 OFFCURVE",
"216 167 CURVE SMOOTH",
"216 538 LINE SMOOTH",
"216 580 OFFCURVE",
"221 630 OFFCURVE",
"223 644 CURVE",
"301 651 LINE"
);
},
{
closed = 1;
nodes = (
"719 710 LINE",
"719 710 OFFCURVE",
"641 705 OFFCURVE",
"581 705 CURVE SMOOTH",
"561 705 OFFCURVE",
"466 710 OFFCURVE",
"466 710 CURVE",
"461 656 LINE",
"538 644 LINE",
"540 631 OFFCURVE",
"547 585 OFFCURVE",
"547 568 CURVE SMOOTH",
"547 137 LINE SMOOTH",
"547 120 OFFCURVE",
"540 74 OFFCURVE",
"538 61 CURVE",
"459 45 LINE",
"464 -5 LINE",
"464 -5 OFFCURVE",
"574 0 OFFCURVE",
"599 0 CURVE",
"728 0 LINE",
"735 54 LINE",
"645 61 LINE",
"643 75 OFFCURVE",
"638 125 OFFCURVE",
"638 167 CURVE SMOOTH",
"638 538 LINE SMOOTH",
"638 580 OFFCURVE",
"643 630 OFFCURVE",
"645 644 CURVE",
"723 651 LINE"
);
}
);
width = 765;
},
{
anchors = (
{
name = center;
position = "{410, 353}";
},
{
name = top;
position = "{410, 705}";
}
);
background = {
paths = (
{
closed = 1;
nodes = (
"341 710 LINE",
"341 710 OFFCURVE",
"247 705 OFFCURVE",
"167 705 CURVE SMOOTH",
"137 705 OFFCURVE",
"47 710 OFFCURVE",
"47 710 CURVE",
"42 635 LINE",
"107 623 LINE",
"109 607 OFFCURVE",
"116 562 OFFCURVE",
"116 512 CURVE SMOOTH",
"116 163 LINE SMOOTH",
"116 143 OFFCURVE",
"108 87 OFFCURVE",
"107 77 CURVE",
"41 65 LINE",
"46 -5 LINE",
"46 -5 OFFCURVE",
"166 0 OFFCURVE",
"196 0 CURVE",
"340 0 LINE",
"345 71 LINE",
"280 77 LINE",
"278 91 OFFCURVE",
"271 143 OFFCURVE",
"271 193 CURVE SMOOTH",
"271 542 LINE SMOOTH",
"271 562 OFFCURVE",
"277 608 OFFCURVE",
"280 623 CURVE",
"346 629 LINE"
);
},
{
closed = 1;
nodes = (
"773 710 LINE",
"773 710 OFFCURVE",
"679 705 OFFCURVE",
"599 705 CURVE SMOOTH",
"569 705 OFFCURVE",
"479 710 OFFCURVE",
"479 710 CURVE",
"474 635 LINE",
"539 623 LINE",
"541 607 OFFCURVE",
"548 562 OFFCURVE",
"548 512 CURVE SMOOTH",
"548 163 LINE SMOOTH",
"548 143 OFFCURVE",
"540 87 OFFCURVE",
"539 77 CURVE",
"473 65 LINE",
"478 -5 LINE",
"478 -5 OFFCURVE",
"598 0 OFFCURVE",
"628 0 CURVE",
"772 0 LINE",
"777 71 LINE",
"712 77 LINE",
"710 91 OFFCURVE",
"703 143 OFFCURVE",
"703 193 CURVE SMOOTH",
"703 542 LINE SMOOTH",
"703 562 OFFCURVE",
"709 608 OFFCURVE",
"712 623 CURVE",
"778 629 LINE"
);
}
);
};
layerId = "16643525-C5DD-48EC-8E99-463BF28F5E85";
name = Bold;
paths = (
{
closed = 1;
nodes = (
"553 393 LINE",
"266 389 LINE",
"266 302 LINE",
"553 302 LINE"
);
},
{
closed = 1;
nodes = (
"341 710 LINE",
"341 710 OFFCURVE",
"247 705 OFFCURVE",
"167 705 CURVE SMOOTH",
"137 705 OFFCURVE",
"47 710 OFFCURVE",
"47 710 CURVE",
"42 635 LINE",
"107 623 LINE",
"109 607 OFFCURVE",
"116 562 OFFCURVE",
"116 542 CURVE SMOOTH",
"116 163 LINE SMOOTH",
"116 143 OFFCURVE",
"108 87 OFFCURVE",
"107 77 CURVE",
"41 65 LINE",
"46 -5 LINE",
"46 -5 OFFCURVE",
"166 0 OFFCURVE",
"196 0 CURVE",
"340 0 LINE",
"345 71 LINE",
"280 77 LINE",
"278 91 OFFCURVE",
"271 153 OFFCURVE",
"271 193 CURVE SMOOTH",
"271 512 LINE SMOOTH",
"271 552 OFFCURVE",
"277 608 OFFCURVE",
"280 623 CURVE",
"346 629 LINE"
);
},
{
closed = 1;
nodes = (
"773 710 LINE",
"773 710 OFFCURVE",
"679 705 OFFCURVE",
"599 705 CURVE SMOOTH",
"569 705 OFFCURVE",
"479 710 OFFCURVE",
"479 710 CURVE",
"474 635 LINE",
"539 623 LINE",
"541 607 OFFCURVE",
"548 562 OFFCURVE",
"548 542 CURVE SMOOTH",
"548 163 LINE SMOOTH",
"548 143 OFFCURVE",
"540 87 OFFCURVE",
"539 77 CURVE",
"473 65 LINE",
"478 -5 LINE",
"478 -5 OFFCURVE",
"598 0 OFFCURVE",
"628 0 CURVE",
"772 0 LINE",
"777 71 LINE",
"712 77 LINE",
"710 91 OFFCURVE",
"703 153 OFFCURVE",
"703 193 CURVE SMOOTH",
"703 512 LINE SMOOTH",
"703 552 OFFCURVE",
"709 608 OFFCURVE",
"712 623 CURVE",
"778 629 LINE"
);
}
);
width = 820;
}
);
leftKerningGroup = H;
rightKerningGroup = H;
unicode = 0048;
},
{
color = 0;
glyphname = Hbar;
lastChange = "2015-06-18 08:01:47 +0000";
layers = (
{
anchors = (
{
name = center;
position = "{391, 353}";
},
{
name = top;
position = "{391, 705}";
}
);
layerId = UUID0;
name = Regular;
paths = (
{
closed = 1;
nodes = (
"757 543 LINE",
"53 543 LINE",
"53 499 LINE",
"757 499 LINE"
);
},
{
closed = 1;
nodes = (
"561 383 LINE",
"220 378 LINE",
"220 327 LINE",
"561 327 LINE"
);
},
{
closed = 1;
nodes = (
"306 710 LINE",
"306 710 OFFCURVE",
"228 705 OFFCURVE",
"168 705 CURVE SMOOTH",
"148 705 OFFCURVE",
"53 710 OFFCURVE",
"53 710 CURVE",
"48 656 LINE",
"125 644 LINE",
"127 631 OFFCURVE",
"134 585 OFFCURVE",
"134 568 CURVE SMOOTH",
"134 137 LINE SMOOTH",
"134 120 OFFCURVE",
"127 74 OFFCURVE",
"125 61 CURVE",
"46 45 LINE",
"51 -5 LINE",
"51 -5 OFFCURVE",
"161 0 OFFCURVE",
"186 0 CURVE",
"315 0 LINE",
"322 54 LINE",
"232 61 LINE",
"230 75 OFFCURVE",
"225 125 OFFCURVE",
"225 167 CURVE SMOOTH",
"225 538 LINE SMOOTH",
"225 580 OFFCURVE",
"230 630 OFFCURVE",
"232 644 CURVE",
"310 651 LINE"
);
},
{
closed = 1;
nodes = (
"728 710 LINE",
"728 710 OFFCURVE",
"650 705 OFFCURVE",
"590 705 CURVE SMOOTH",
"570 705 OFFCURVE",
"475 710 OFFCURVE",
"475 710 CURVE",
"470 656 LINE",
"547 644 LINE",
"549 631 OFFCURVE",
"556 585 OFFCURVE",
"556 568 CURVE SMOOTH",
"556 137 LINE SMOOTH",
"556 120 OFFCURVE",
"549 74 OFFCURVE",
"547 61 CURVE",
"468 45 LINE",
"473 -5 LINE",
"473 -5 OFFCURVE",
"583 0 OFFCURVE",
"608 0 CURVE",
"737 0 LINE",
"744 54 LINE",
"654 61 LINE",
"652 75 OFFCURVE",
"647 125 OFFCURVE",
"647 167 CURVE SMOOTH",
"647 538 LINE SMOOTH",
"647 580 OFFCURVE",
"652 630 OFFCURVE",
"654 644 CURVE",
"732 651 LINE"
);
}
);
width = 784;
},
{
components = (
{
name = H;
transform = "{1, 0, 0, 1, 14, 0}";
}
);
layerId = "16643525-C5DD-48EC-8E99-463BF28F5E85";
name = Bold;
paths = (
{
closed = 1;
nodes = (
"811 551 LINE",
"44 551 LINE",
"44 487 LINE",
"811 487 LINE"
);
}
);
width = 849;
}
);
leftKerningGroup = H;
rightKerningGroup = H;
unicode = 0126;
},
{
color = 0;
glyphname = I;
lastChange = "2015-06-18 07:52:54 +0000";
layers = (
{
anchors = (
{
name = bottom;
position = "{179, 0}";
},
{
name = ogonek;
position = "{306, 0}";
},
{
name = top;
position = "{171, 705}";
}
);
background = {
paths = (
{
closed = 1;
nodes = (
"297 710 LINE",
"297 710 OFFCURVE",
"240 705 OFFCURVE",
"160 705 CURVE SMOOTH",
"140 705 OFFCURVE",
"44 710 OFFCURVE",
"44 710 CURVE",
"39 656 LINE",
"116 644 LINE",
"118 631 OFFCURVE",
"125 585 OFFCURVE",
"125 568 CURVE SMOOTH",
"125 137 LINE SMOOTH",
"125 120 OFFCURVE",
"118 74 OFFCURVE",
"116 61 CURVE",
"37 45 LINE",
"42 -5 LINE",
"42 -5 OFFCURVE",
"152 0 OFFCURVE",
"177 0 CURVE SMOOTH",
"257 0 OFFCURVE",
"306 -5 OFFCURVE",
"306 -5 CURVE",
"313 54 LINE",
"223 61 LINE",
"221 75 OFFCURVE",
"216 125 OFFCURVE",
"216 167 CURVE SMOOTH",
"216 538 LINE SMOOTH",
"216 580 OFFCURVE",
"221 630 OFFCURVE",
"223 644 CURVE",
"301 651 LINE"
);
}
);
};
layerId = UUID0;
leftMetricsKey = "=H";
rightMetricsKey = "=H";
name = Regular;
paths = (
{
closed = 1;
nodes = (
"297 710 LINE",
"297 710 OFFCURVE",
"219 705 OFFCURVE",
"159 705 CURVE SMOOTH",
"139 705 OFFCURVE",
"44 710 OFFCURVE",
"44 710 CURVE",
"39 656 LINE",
"116 644 LINE",
"118 631 OFFCURVE",
"125 585 OFFCURVE",
"125 568 CURVE SMOOTH",
"125 137 LINE SMOOTH",
"125 120 OFFCURVE",
"118 74 OFFCURVE",
"116 61 CURVE",
"37 45 LINE",
"42 -5 LINE",
"42 -5 OFFCURVE",
"152 0 OFFCURVE",
"177 0 CURVE",
"307 0 LINE",
"313 54 LINE",
"223 61 LINE",
"221 75 OFFCURVE",
"216 125 OFFCURVE",
"216 167 CURVE SMOOTH",
"216 538 LINE SMOOTH",
"216 580 OFFCURVE",
"221 630 OFFCURVE",
"223 644 CURVE",
"301 651 LINE"
);
}
);
width = 343;
},
{
anchors = (
{
name = bottom;
position = "{194, 0}";
},
{
name = ogonek;
position = "{340, 0}";
},
{
name = top;
position = "{194, 705}";
}
);
background = {
paths = (
{
closed = 1;
nodes = (
"341 710 LINE",
"341 710 OFFCURVE",
"260 705 OFFCURVE",
"147 705 CURVE SMOOTH",
"100 705 OFFCURVE",
"47 710 OFFCURVE",
"47 710 CURVE",
"42 635 LINE",
"107 623 LINE",
"109 607 OFFCURVE",
"116 562 OFFCURVE",
"116 512 CURVE SMOOTH",
"116 163 LINE SMOOTH",
"116 143 OFFCURVE",
"108 87 OFFCURVE",
"107 77 CURVE",
"41 65 LINE",
"46 -5 LINE",
"46 -5 OFFCURVE",
"156 0 OFFCURVE",
"186 0 CURVE SMOOTH",
"299 0 OFFCURVE",
"340 -5 OFFCURVE",
"340 -5 CURVE",
"345 71 LINE",
"280 77 LINE",
"278 91 OFFCURVE",
"271 143 OFFCURVE",
"271 193 CURVE SMOOTH",
"271 542 LINE SMOOTH",
"271 562 OFFCURVE",
"277 608 OFFCURVE",
"280 623 CURVE",
"346 629 LINE"
);
}
);
};
layerId = "16643525-C5DD-48EC-8E99-463BF28F5E85";
name = Bold;
paths = (
{
closed = 1;
nodes = (
"341 710 LINE",
"341 710 OFFCURVE",
"247 705 OFFCURVE",
"167 705 CURVE SMOOTH",
"137 705 OFFCURVE",
"47 710 OFFCURVE",
"47 710 CURVE",
"42 635 LINE",
"107 623 LINE",
"109 607 OFFCURVE",
"116 562 OFFCURVE",
"116 542 CURVE SMOOTH",
"116 163 LINE SMOOTH",
"116 143 OFFCURVE",
"108 87 OFFCURVE",
"107 77 CURVE",
"41 65 LINE",
"46 -5 LINE",
"46 -5 OFFCURVE",
"166 0 OFFCURVE",
"196 0 CURVE",
"340 0 LINE",
"345 71 LINE",
"280 77 LINE",
"278 91 OFFCURVE",
"271 153 OFFCURVE",
"271 193 CURVE SMOOTH",
"271 512 LINE SMOOTH",
"271 552 OFFCURVE",
"277 608 OFFCURVE",
"280 623 CURVE",
"346 629 LINE"
);
}
);
width = 388;
}
);
leftKerningGroup = H;
leftMetricsKey = "=H";
rightKerningGroup = H;
rightMetricsKey = "=H";
unicode = 0049;
},
{
color = 0;
glyphname = IJ;
lastChange = "2015-06-18 07:52:54 +0000";
layers = (
{
anchors = (
{
name = top;
position = "{428, 705}";
}
);
background = {
paths = (
{
closed = 1;
nodes = (
"564 651 LINE",
"486 644 LINE",
"484 630 OFFCURVE",
"479 580 OFFCURVE",
"479 538 CURVE SMOOTH",
"479 -10 LINE SMOOTH",
"479 -37 OFFCURVE",
"389 -144 OFFCURVE",
"342 -200 CURVE",
"308 -178 LINE",
"308 -178 OFFCURVE",
"388 -9 OFFCURVE",
"388 11 CURVE SMOOTH",
"388 568 LINE SMOOTH",
"388 585 OFFCURVE",
"381 631 OFFCURVE",
"379 644 CURVE",
"296 656 LINE",
"213 644 LINE",
"211 630 OFFCURVE",
"206 580 OFFCURVE",
"206 538 CURVE SMOOTH",
"206 167 LINE SMOOTH",
"206 125 OFFCURVE",
"211 75 OFFCURVE",
"213 61 CURVE",
"303 54 LINE",
"297 0 LINE",
"297 0 OFFCURVE",
"230 0 OFFCURVE",
"150 0 CURVE SMOOTH",
"130 0 OFFCURVE",
"32 -5 OFFCURVE",
"32 -5 CURVE",
"27 45 LINE",
"106 61 LINE",
"108 74 OFFCURVE",
"115 120 OFFCURVE",
"115 137 CURVE SMOOTH",
"115 568 LINE SMOOTH",
"115 585 OFFCURVE",
"108 631 OFFCURVE",
"106 644 CURVE",
"29 656 LINE",
"34 710 LINE",
"34 710 OFFCURVE",
"130 705 OFFCURVE",
"150 705 CURVE SMOOTH",
"423 705 LINE SMOOTH",
"503 705 OFFCURVE",
"560 710 OFFCURVE",
"560 710 CURVE"
);
}
);
};
layerId = UUID0;
name = Regular;
paths = (
{
closed = 1;
nodes = (
"296 656 LINE",
"213 644 LINE",
"211 630 OFFCURVE",
"206 580 OFFCURVE",
"206 538 CURVE SMOOTH",
"206 167 LINE SMOOTH",
"206 125 OFFCURVE",
"211 75 OFFCURVE",
"213 61 CURVE",
"303 54 LINE",
"297 0 LINE",
"297 0 OFFCURVE",
"230 0 OFFCURVE",
"150 0 CURVE SMOOTH",
"130 0 OFFCURVE",
"32 -5 OFFCURVE",
"32 -5 CURVE",
"27 45 LINE",
"106 61 LINE",
"108 74 OFFCURVE",
"115 120 OFFCURVE",
"115 137 CURVE SMOOTH",
"115 568 LINE SMOOTH",
"115 585 OFFCURVE",
"108 631 OFFCURVE",
"106 644 CURVE",
"29 656 LINE",
"34 710 LINE",
"34 710 OFFCURVE",
"130 705 OFFCURVE",
"150 705 CURVE SMOOTH",
"296 705 LINE"
);
},
{
closed = 1;
nodes = (
"296 705 LINE",
"296 656 LINE",
"379 644 LINE",
"381 631 OFFCURVE",
"388 585 OFFCURVE",
"388 568 CURVE SMOOTH",
"388 11 LINE SMOOTH",
"388 -9 OFFCURVE",
"308 -178 OFFCURVE",
"308 -178 CURVE",
"342 -200 LINE",
"389 -144 OFFCURVE",
"479 -37 OFFCURVE",
"479 -10 CURVE SMOOTH",
"479 538 LINE SMOOTH",
"479 580 OFFCURVE",
"484 630 OFFCURVE",
"486 644 CURVE",
"564 651 LINE",
"560 710 LINE",
"560 710 OFFCURVE",
"482 705 OFFCURVE",
"422 705 CURVE"
);
}
);
width = 585;
},
{
anchors = (
{
name = top;
position = "{532, 705}";
}
);
background = {
paths = (
{
closed = 1;
nodes = (
"684 629 LINE",
"618 623 LINE",
"616 614 OFFCURVE",
"609 562 OFFCURVE",
"609 542 CURVE SMOOTH",
"609 0 LINE SMOOTH",
"609 -33 OFFCURVE",
"528 -111 OFFCURVE",
"432 -200 CURVE",
"378 -169 LINE",
"378 -169 OFFCURVE",
"454 -9 OFFCURVE",
"454 11 CURVE SMOOTH",
"454 512 LINE SMOOTH",
"454 562 OFFCURVE",
"448 608 OFFCURVE",
"445 623 CURVE",
"363 632 LINE",
"280 623 LINE",
"277 609 OFFCURVE",
"271 562 OFFCURVE",
"271 542 CURVE SMOOTH",
"271 193 LINE SMOOTH",
"271 143 OFFCURVE",
"279 86 OFFCURVE",
"280 77 CURVE",
"345 71 LINE",
"340 0 LINE",
"340 0 OFFCURVE",
"309 0 OFFCURVE",
"196 0 CURVE SMOOTH",
"166 0 OFFCURVE",
"46 -5 OFFCURVE",
"46 -5 CURVE",
"41 65 LINE",
"107 77 LINE",
"109 91 OFFCURVE",
"116 143 OFFCURVE",
"116 163 CURVE SMOOTH",
"116 512 LINE SMOOTH",
"116 562 OFFCURVE",
"110 604 OFFCURVE",
"107 623 CURVE",
"42 635 LINE",
"47 710 LINE",
"47 710 OFFCURVE",
"118 705 OFFCURVE",
"165 705 CURVE SMOOTH",
"485 705 LINE SMOOTH",
"598 705 OFFCURVE",
"679 710 OFFCURVE",
"679 710 CURVE"
);
}
);
};
layerId = "16643525-C5DD-48EC-8E99-463BF28F5E85";
name = Bold;
paths = (
{
closed = 1;
nodes = (
"363 632 LINE",
"280 623 LINE",
"277 609 OFFCURVE",
"271 562 OFFCURVE",
"271 542 CURVE SMOOTH",
"271 193 LINE SMOOTH",
"271 143 OFFCURVE",
"279 86 OFFCURVE",
"280 77 CURVE",
"345 71 LINE",
"340 0 LINE",
"340 0 OFFCURVE",
"309 0 OFFCURVE",
"196 0 CURVE SMOOTH",
"166 0 OFFCURVE",
"46 -5 OFFCURVE",
"46 -5 CURVE",
"41 65 LINE",
"107 77 LINE",
"109 91 OFFCURVE",
"116 143 OFFCURVE",
"116 163 CURVE SMOOTH",
"116 512 LINE SMOOTH",
"116 562 OFFCURVE",
"110 604 OFFCURVE",
"107 623 CURVE",
"42 635 LINE",
"47 710 LINE",
"47 710 OFFCURVE",
"118 705 OFFCURVE",
"165 705 CURVE SMOOTH",
"363 705 LINE"
);
},
{
closed = 1;
nodes = (
"475 705 OFFCURVE",
"363 705 OFFCURVE",
"363 705 CURVE",
"363 632 LINE",
"445 623 LINE",
"448 608 OFFCURVE",
"454 562 OFFCURVE",
"454 512 CURVE SMOOTH",
"454 11 LINE SMOOTH",
"454 -9 OFFCURVE",
"378 -169 OFFCURVE",
"378 -169 CURVE",
"432 -200 LINE",
"528 -111 OFFCURVE",
"609 -23 OFFCURVE",
"609 10 CURVE SMOOTH",
"609 542 LINE SMOOTH",
"609 562 OFFCURVE",
"616 614 OFFCURVE",
"618 623 CURVE",
"684 629 LINE",
"679 710 LINE",
"679 710 OFFCURVE",
"585 705 OFFCURVE",
"505 705 CURVE SMOOTH"
);
}
);
width = 716;
}
);
leftKerningGroup = H;
rightKerningGroup = J;
unicode = 0132;
},
{
color = 0;
glyphname = Iacute;
lastChange = "2015-06-18 08:01:47 +0000";
layers = (
{
anchors = (
{
name = _top;
position = "{171, 705}";
},
{
name = bottom;
position = "{179, 0}";
},
{
name = ogonek;
position = "{306, 0}";
},
{
name = top;
position = "{171, 705}";
}
);
layerId = UUID0;
name = Regular;
paths = (
{
closed = 1;
nodes = (
"297 710 LINE",
"297 710 OFFCURVE",
"219 705 OFFCURVE",
"159 705 CURVE SMOOTH",
"139 705 OFFCURVE",
"44 710 OFFCURVE",
"44 710 CURVE",
"39 656 LINE",
"116 644 LINE",
"118 631 OFFCURVE",
"125 585 OFFCURVE",
"125 568 CURVE SMOOTH",
"125 137 LINE SMOOTH",
"125 120 OFFCURVE",
"118 74 OFFCURVE",
"116 61 CURVE",
"37 45 LINE",
"42 -5 LINE",
"42 -5 OFFCURVE",
"152 0 OFFCURVE",
"177 0 CURVE",
"307 0 LINE",
"313 54 LINE",
"223 61 LINE",
"221 75 OFFCURVE",
"216 125 OFFCURVE",
"216 167 CURVE SMOOTH",
"216 538 LINE SMOOTH",
"216 580 OFFCURVE",
"221 630 OFFCURVE",
"223 644 CURVE",
"301 651 LINE"
);
},
{
closed = 1;
nodes = (
"290 889 LINE",
"61 788 LINE",
"76 746 LINE",
"316 824 LINE"
);
}
);
width = 343;
},
{
components = (
{
name = I;
transform = "{1, 0, 0, 1, 0, 0}";
},
{
name = acute.cap;
transform = "{1, 0, 0, 1, 34, 211}";
}
);
layerId = "16643525-C5DD-48EC-8E99-463BF28F5E85";
name = Bold;
width = 388;
}
);
unicode = 00CD;
},
{
color = 0;
glyphname = Icircumflex;
lastChange = "2015-06-18 08:01:47 +0000";
layers = (
{
anchors = (
{
name = _top;
position = "{171, 705}";
},
{
name = bottom;
position = "{179, 0}";
},
{
name = ogonek;
position = "{306, 0}";
},
{
name = top;
position = "{171, 705}";
}
);
layerId = UUID0;
name = Regular;
paths = (
{
closed = 1;
nodes = (
"297 710 LINE",
"297 710 OFFCURVE",
"219 705 OFFCURVE",
"159 705 CURVE SMOOTH",
"139 705 OFFCURVE",
"44 710 OFFCURVE",
"44 710 CURVE",
"39 656 LINE",
"116 644 LINE",
"118 631 OFFCURVE",
"125 585 OFFCURVE",
"125 568 CURVE SMOOTH",
"125 137 LINE SMOOTH",
"125 120 OFFCURVE",
"118 74 OFFCURVE",
"116 61 CURVE",
"37 45 LINE",
"42 -5 LINE",
"42 -5 OFFCURVE",
"152 0 OFFCURVE",
"177 0 CURVE",
"307 0 LINE",
"313 54 LINE",
"223 61 LINE",
"221 75 OFFCURVE",
"216 125 OFFCURVE",
"216 167 CURVE SMOOTH",
"216 538 LINE SMOOTH",
"216 580 OFFCURVE",
"221 630 OFFCURVE",
"223 644 CURVE",
"301 651 LINE"
);
},
{
closed = 1;
nodes = (
"137 867 LINE",
"-4 780 LINE",
"20 741 LINE",
"211 828 LINE",
"178 867 LINE"
);
},
{
closed = 1;
nodes = (
"130 828 LINE",
"321 741 LINE",
"345 780 LINE",
"204 867 LINE",
"163 867 LINE"
);
}
);
width = 343;
},
{
components = (
{
name = I;
transform = "{1, 0, 0, 1, 0, 0}";
},
{
name = circumflex.cap;
transform = "{1, 0, 0, 1, 14, 211}";
}
);
layerId = "16643525-C5DD-48EC-8E99-463BF28F5E85";
name = Bold;
width = 388;
}
);
unicode = 00CE;
},
{
color = 0;
glyphname = Idieresis;
lastChange = "2015-06-18 08:01:47 +0000";
layers = (
{
anchors = (
{
name = _top;
position = "{171, 705}";
},
{
name = bottom;
position = "{179, 0}";
},
{
name = ogonek;
position = "{306, 0}";
},
{
name = top;
position = "{171, 705}";
}
);
layerId = UUID0;
name = Regular;
paths = (
{
closed = 1;
nodes = (
"297 710 LINE",
"297 710 OFFCURVE",
"219 705 OFFCURVE",
"159 705 CURVE SMOOTH",
"139 705 OFFCURVE",
"44 710 OFFCURVE",
"44 710 CURVE",
"39 656 LINE",
"116 644 LINE",
"118 631 OFFCURVE",
"125 585 OFFCURVE",
"125 568 CURVE SMOOTH",
"125 137 LINE SMOOTH",
"125 120 OFFCURVE",
"118 74 OFFCURVE",
"116 61 CURVE",
"37 45 LINE",
"42 -5 LINE",
"42 -5 OFFCURVE",
"152 0 OFFCURVE",
"177 0 CURVE",
"307 0 LINE",
"313 54 LINE",
"223 61 LINE",
"221 75 OFFCURVE",
"216 125 OFFCURVE",
"216 167 CURVE SMOOTH",
"216 538 LINE SMOOTH",
"216 580 OFFCURVE",
"221 630 OFFCURVE",
"223 644 CURVE",
"301 651 LINE"
);
},
{
closed = 1;
nodes = (
"223 859 OFFCURVE",
"205 835 OFFCURVE",
"205 799 CURVE SMOOTH",
"205 763 OFFCURVE",
"223 740 OFFCURVE",
"259 740 CURVE SMOOTH",
"295 740 OFFCURVE",
"313 763 OFFCURVE",
"313 799 CURVE SMOOTH",
"313 838 OFFCURVE",
"294 859 OFFCURVE",
"259 859 CURVE SMOOTH"
);
},
{
closed = 1;
nodes = (
"47 859 OFFCURVE",
"29 835 OFFCURVE",
"29 799 CURVE SMOOTH",
"29 763 OFFCURVE",
"47 740 OFFCURVE",
"83 740 CURVE SMOOTH",
"119 740 OFFCURVE",
"137 763 OFFCURVE",
"137 799 CURVE SMOOTH",
"137 838 OFFCURVE",
"118 859 OFFCURVE",
"83 859 CURVE SMOOTH"
);
}
);
width = 343;
},
{
components = (
{
name = I;
transform = "{1, 0, 0, 1, 0, 0}";
},
{
name = dieresis.i.cap;
transform = "{1, 0, 0, 1, 14, 211}";
}
);
layerId = "16643525-C5DD-48EC-8E99-463BF28F5E85";
name = Bold;
width = 388;
}
);
leftKerningGroup = H;
rightKerningGroup = H;
unicode = 00CF;
},
{
color = 0;
glyphname = Idotaccent;
lastChange = "2015-06-18 08:01:47 +0000";
layers = (
{
anchors = (
{
name = _top;
position = "{171, 705}";
},
{
name = bottom;
position = "{179, 0}";
},
{
name = ogonek;
position = "{306, 0}";
},
{
name = top;
position = "{171, 705}";
}
);
layerId = UUID0;
name = Regular;
paths = (
{
closed = 1;
nodes = (
"297 710 LINE",
"297 710 OFFCURVE",
"219 705 OFFCURVE",
"159 705 CURVE SMOOTH",
"139 705 OFFCURVE",
"44 710 OFFCURVE",
"44 710 CURVE",
"39 656 LINE",
"116 644 LINE",
"118 631 OFFCURVE",
"125 585 OFFCURVE",
"125 568 CURVE SMOOTH",
"125 137 LINE SMOOTH",
"125 120 OFFCURVE",
"118 74 OFFCURVE",
"116 61 CURVE",
"37 45 LINE",
"42 -5 LINE",
"42 -5 OFFCURVE",
"152 0 OFFCURVE",
"177 0 CURVE",
"307 0 LINE",
"313 54 LINE",
"223 61 LINE",
"221 75 OFFCURVE",
"216 125 OFFCURVE",
"216 167 CURVE SMOOTH",
"216 538 LINE SMOOTH",
"216 580 OFFCURVE",
"221 630 OFFCURVE",
"223 644 CURVE",
"301 651 LINE"
);
},
{
closed = 1;
nodes = (
"133 872 OFFCURVE",
"112 845 OFFCURVE",
"112 807 CURVE SMOOTH",
"112 769 OFFCURVE",
"133 743 OFFCURVE",
"171 743 CURVE SMOOTH",
"209 743 OFFCURVE",
"230 769 OFFCURVE",
"230 807 CURVE SMOOTH",
"230 848 OFFCURVE",
"208 872 OFFCURVE",
"171 872 CURVE SMOOTH"
);
}
);
width = 343;
},
{
components = (
{
name = I;
transform = "{1, 0, 0, 1, 0, 0}";
},
{
name = dotaccent.cap;
transform = "{1, 0, 0, 1, 14, 211}";
}
);
layerId = "16643525-C5DD-48EC-8E99-463BF28F5E85";
name = Bold;
width = 388;
}
);
leftKerningGroup = H;
rightKerningGroup = H;
unicode = 0130;
},
{
color = 0;
glyphname = Igrave;
lastChange = "2015-06-18 08:01:47 +0000";
layers = (
{
anchors = (
{
name = _top;
position = "{171, 705}";
},
{
name = bottom;
position = "{179, 0}";
},
{
name = ogonek;
position = "{306, 0}";
},
{
name = top;
position = "{171, 705}";
}
);
layerId = UUID0;
name = Regular;
paths = (
{
closed = 1;
nodes = (
"297 710 LINE",
"297 710 OFFCURVE",
"219 705 OFFCURVE",
"159 705 CURVE SMOOTH",
"139 705 OFFCURVE",
"44 710 OFFCURVE",
"44 710 CURVE",
"39 656 LINE",
"116 644 LINE",
"118 631 OFFCURVE",
"125 585 OFFCURVE",
"125 568 CURVE SMOOTH",
"125 137 LINE SMOOTH",
"125 120 OFFCURVE",
"118 74 OFFCURVE",
"116 61 CURVE",
"37 45 LINE",
"42 -5 LINE",
"42 -5 OFFCURVE",
"152 0 OFFCURVE",
"177 0 CURVE",
"307 0 LINE",
"313 54 LINE",
"223 61 LINE",
"221 75 OFFCURVE",
"216 125 OFFCURVE",
"216 167 CURVE SMOOTH",
"216 538 LINE SMOOTH",
"216 580 OFFCURVE",
"221 630 OFFCURVE",
"223 644 CURVE",
"301 651 LINE"
);
},
{
closed = 1;
nodes = (
"279 746 LINE",
"294 788 LINE",
"65 889 LINE",
"39 824 LINE"
);
}
);
width = 343;
},
{
components = (
{
name = I;
transform = "{1, 0, 0, 1, 0, 0}";
},
{
name = grave.cap;
transform = "{1, 0, 0, 1, -3, 211}";
}
);
layerId = "16643525-C5DD-48EC-8E99-463BF28F5E85";
name = Bold;
width = 388;
}
);
leftKerningGroup = H;
rightKerningGroup = H;
unicode = 00CC;
},
{
color = 0;
glyphname = Imacron;
lastChange = "2015-06-18 08:01:47 +0000";
layers = (
{
anchors = (
{
name = _top;
position = "{171, 705}";
},
{
name = bottom;
position = "{179, 0}";
},
{
name = ogonek;
position = "{306, 0}";
},
{
name = top;
position = "{171, 705}";
}
);
layerId = UUID0;
name = Regular;
paths = (
{
closed = 1;
nodes = (
"297 710 LINE",
"297 710 OFFCURVE",
"219 705 OFFCURVE",
"159 705 CURVE SMOOTH",
"139 705 OFFCURVE",
"44 710 OFFCURVE",
"44 710 CURVE",
"39 656 LINE",
"116 644 LINE",
"118 631 OFFCURVE",
"125 585 OFFCURVE",
"125 568 CURVE SMOOTH",
"125 137 LINE SMOOTH",
"125 120 OFFCURVE",
"118 74 OFFCURVE",
"116 61 CURVE",
"37 45 LINE",
"42 -5 LINE",
"42 -5 OFFCURVE",
"152 0 OFFCURVE",
"177 0 CURVE",
"307 0 LINE",
"313 54 LINE",
"223 61 LINE",
"221 75 OFFCURVE",
"216 125 OFFCURVE",
"216 167 CURVE SMOOTH",
"216 538 LINE SMOOTH",
"216 580 OFFCURVE",
"221 630 OFFCURVE",
"223 644 CURVE",
"301 651 LINE"
);
},
{
closed = 1;
nodes = (
"295 755 LINE",
"300 815 LINE",
"42 815 LINE",
"42 755 LINE"
);
}
);
width = 343;
},
{
components = (
{
name = I;
transform = "{1, 0, 0, 1, 0, 0}";
},
{
name = macron.i.cap;
transform = "{1, 0, 0, 1, 4, 211}";
}
);
layerId = "16643525-C5DD-48EC-8E99-463BF28F5E85";
name = Bold;
width = 388;
}
);
leftKerningGroup = H;
rightKerningGroup = H;
unicode = 012A;
},
{
color = 0;
glyphname = Iogonek;
lastChange = "2015-06-18 08:01:47 +0000";
layers = (
{
anchors = (
{
name = _ogonek;
position = "{306, 0}";
},
{
name = bottom;
position = "{179, 0}";
},
{
name = ogonek;
position = "{306, 0}";
},
{
name = top;
position = "{171, 705}";
}
);
background = {
paths = (
{
closed = 1;
nodes = (
"287 710 LINE",
"287 710 OFFCURVE",
"230 705 OFFCURVE",
"150 705 CURVE SMOOTH",
"130 705 OFFCURVE",
"34 710 OFFCURVE",
"34 710 CURVE",
"29 656 LINE",
"106 644 LINE",
"108 631 OFFCURVE",
"115 585 OFFCURVE",
"115 568 CURVE SMOOTH",
"115 137 LINE",
"150 0 LINE",
"230 0 OFFCURVE",
"296 -5 OFFCURVE",
"296 -5 CURVE",
"303 54 LINE",
"213 61 LINE",
"211 75 OFFCURVE",
"206 125 OFFCURVE",
"206 167 CURVE SMOOTH",
"206 538 LINE SMOOTH",
"206 580 OFFCURVE",
"211 630 OFFCURVE",
"213 644 CURVE",
"291 651 LINE"
);
},
{
closed = 1;
nodes = (
"32 -42 OFFCURVE",
"4 -64 OFFCURVE",
"4 -108 CURVE SMOOTH",
"4 -168 OFFCURVE",
"47 -197 OFFCURVE",
"107 -197 CURVE SMOOTH",
"144 -197 OFFCURVE",
"176 -183 OFFCURVE",
"193 -175 CURVE",
"179 -142 LINE",
"157 -151 OFFCURVE",
"139 -155 OFFCURVE",
"124 -155 CURVE SMOOTH",
"86 -155 OFFCURVE",
"68 -131 OFFCURVE",
"68 -102 CURVE SMOOTH",
"68 -60 OFFCURVE",
"104 -8 OFFCURVE",
"168 0 CURVE",
"186 110 LINE",
"115 175 LINE",
"115 67 OFFCURVE",
"114 40 OFFCURVE",
"87 13 CURVE SMOOTH"
);
}
);
};
layerId = UUID0;
name = Regular;
paths = (
{
closed = 1;
nodes = (
"297 710 LINE",
"297 710 OFFCURVE",
"219 705 OFFCURVE",
"159 705 CURVE SMOOTH",
"139 705 OFFCURVE",
"44 710 OFFCURVE",
"44 710 CURVE",
"39 656 LINE",
"116 644 LINE",
"118 631 OFFCURVE",
"125 585 OFFCURVE",
"125 568 CURVE SMOOTH",
"125 137 LINE SMOOTH",
"125 120 OFFCURVE",
"118 74 OFFCURVE",
"116 61 CURVE",
"37 45 LINE",
"42 -5 LINE",
"42 -5 OFFCURVE",
"152 0 OFFCURVE",
"177 0 CURVE",
"307 0 LINE",
"313 54 LINE",
"223 61 LINE",
"221 75 OFFCURVE",
"216 125 OFFCURVE",
"216 167 CURVE SMOOTH",
"216 538 LINE SMOOTH",
"216 580 OFFCURVE",
"221 630 OFFCURVE",
"223 644 CURVE",
"301 651 LINE"
);
},
{
closed = 1;
nodes = (
"158 -29 OFFCURVE",
"129 -74 OFFCURVE",
"129 -120 CURVE SMOOTH",
"129 -189 OFFCURVE",
"193 -211 OFFCURVE",
"244 -211 CURVE SMOOTH",
"266 -211 OFFCURVE",
"290 -206 OFFCURVE",
"308 -199 CURVE",
"297 -156 LINE",
"286 -159 OFFCURVE",
"274 -161 OFFCURVE",
"263 -161 CURVE SMOOTH",
"223 -161 OFFCURVE",
"204 -141 OFFCURVE",
"204 -115 CURVE SMOOTH",
"204 -78 OFFCURVE",
"242 -26 OFFCURVE",
"306 0 CURVE",
"240 10 LINE"
);
}
);
width = 343;
},
{
components = (
{
name = I;
transform = "{1, 0, 0, 1, 0, 0}";
},
{
name = ogonek;
transform = "{1, 0, 0, 1, 33, -6}";
}
);
layerId = "16643525-C5DD-48EC-8E99-463BF28F5E85";
name = Bold;
width = 388;
}
);
unicode = 012E;
},
{
color = 0;
glyphname = Itilde;
lastChange = "2015-06-18 08:01:47 +0000";
layers = (
{
anchors = (
{
name = _top;
position = "{171, 705}";
},
{
name = bottom;
position = "{179, 0}";
},
{
name = ogonek;
position = "{306, 0}";
},
{
name = top;
position = "{171, 705}";
}
);
layerId = UUID0;
name = Regular;
paths = (
{
closed = 1;
nodes = (
"297 710 LINE",
"297 710 OFFCURVE",
"219 705 OFFCURVE",
"159 705 CURVE SMOOTH",
"139 705 OFFCURVE",
"44 710 OFFCURVE",
"44 710 CURVE",
"39 656 LINE",
"116 644 LINE",
"118 631 OFFCURVE",
"125 585 OFFCURVE",
"125 568 CURVE SMOOTH",
"125 137 LINE SMOOTH",
"125 120 OFFCURVE",
"118 74 OFFCURVE",
"116 61 CURVE",
"37 45 LINE",
"42 -5 LINE",
"42 -5 OFFCURVE",
"152 0 OFFCURVE",
"177 0 CURVE",
"307 0 LINE",
"313 54 LINE",
"223 61 LINE",
"221 75 OFFCURVE",
"216 125 OFFCURVE",
"216 167 CURVE SMOOTH",
"216 538 LINE SMOOTH",
"216 580 OFFCURVE",
"221 630 OFFCURVE",
"223 644 CURVE",
"301 651 LINE"
);
},
{
closed = 1;
nodes = (
"303 870 LINE",
"303 870 OFFCURVE",
"277 819 OFFCURVE",
"250 819 CURVE SMOOTH",
"210 819 OFFCURVE",
"125 860 OFFCURVE",
"85 860 CURVE SMOOTH",
"45 860 OFFCURVE",
"3 759 OFFCURVE",
"3 759 CURVE",
"39 738 LINE",
"39 738 OFFCURVE",
"65 792 OFFCURVE",
"92 792 CURVE SMOOTH",
"132 792 OFFCURVE",
"216 751 OFFCURVE",
"256 751 CURVE SMOOTH",
"296 751 OFFCURVE",
"339 849 OFFCURVE",
"339 849 CURVE"
);
}
);
width = 343;
},
{
components = (
{
name = I;
transform = "{1, 0, 0, 1, 0, 0}";
},
{
name = tilde.cap;
transform = "{1, 0, 0, 1, 4, 211}";
}
);
layerId = "16643525-C5DD-48EC-8E99-463BF28F5E85";
name = Bold;
width = 388;
}
);
leftKerningGroup = H;
rightKerningGroup = H;
unicode = 0128;
},
{
color = 0;
glyphname = J;
lastChange = "2015-06-18 07:52:54 +0000";
layers = (
{
anchors = (
{
name = top;
position = "{145, 705}";
}
);
background = {
paths = (
{
closed = 1;
nodes = (
"277 710 LINE",
"277 710 OFFCURVE",
"199 705 OFFCURVE",
"139 705 CURVE SMOOTH",
"119 705 OFFCURVE",
"24 710 OFFCURVE",
"24 710 CURVE",
"19 656 LINE",
"96 644 LINE",
"98 631 OFFCURVE",
"105 585 OFFCURVE",
"105 568 CURVE SMOOTH",
"105 137 LINE SMOOTH",
"105 120 OFFCURVE",
"98 74 OFFCURVE",
"96 61 CURVE",
"17 45 LINE",
"22 -5 LINE",
"22 -5 OFFCURVE",
"132 0 OFFCURVE",
"157 0 CURVE",
"286 0 LINE",
"293 54 LINE",
"203 61 LINE",
"201 75 OFFCURVE",
"196 125 OFFCURVE",
"196 167 CURVE SMOOTH",
"196 538 LINE SMOOTH",
"196 580 OFFCURVE",
"201 630 OFFCURVE",
"203 644 CURVE",
"281 651 LINE"
);
}
);
};
layerId = UUID0;
name = Regular;
paths = (
{
closed = 1;
nodes = (
"119 705 OFFCURVE",
"24 710 OFFCURVE",
"24 710 CURVE",
"19 656 LINE",
"96 644 LINE",
"98 631 OFFCURVE",
"105 585 OFFCURVE",
"105 568 CURVE SMOOTH",
"105 11 LINE SMOOTH",
"105 -9 OFFCURVE",
"25 -178 OFFCURVE",
"25 -178 CURVE",
"59 -200 LINE",
"106 -144 OFFCURVE",
"196 -37 OFFCURVE",
"196 -10 CURVE SMOOTH",
"196 538 LINE SMOOTH",
"196 580 OFFCURVE",
"201 630 OFFCURVE",
"203 644 CURVE",
"281 651 LINE",
"277 710 LINE",
"277 710 OFFCURVE",
"199 705 OFFCURVE",
"139 705 CURVE SMOOTH"
);
}
);
width = 302;
},
{
anchors = (
{
name = top;
position = "{184, 705}";
}
);
background = {
paths = (
{
closed = 1;
nodes = (
"336 629 LINE",
"331 710 LINE",
"331 710 OFFCURVE",
"250 705 OFFCURVE",
"137 705 CURVE SMOOTH",
"90 705 OFFCURVE",
"37 710 OFFCURVE",
"37 710 CURVE",
"32 635 LINE",
"97 623 LINE",
"100 608 OFFCURVE",
"106 562 OFFCURVE",
"106 512 CURVE SMOOTH",
"106 11 LINE SMOOTH",
"106 -9 OFFCURVE",
"30 -169 OFFCURVE",
"30 -169 CURVE",
"84 -200 LINE",
"180 -111 OFFCURVE",
"261 -23 OFFCURVE",
"261 10 CURVE SMOOTH",
"261 542 LINE SMOOTH",
"261 562 OFFCURVE",
"268 614 OFFCURVE",
"270 623 CURVE"
);
}
);
};
layerId = "16643525-C5DD-48EC-8E99-463BF28F5E85";
name = Bold;
paths = (
{
closed = 1;
nodes = (
"37 710 CURVE",
"32 635 LINE",
"97 623 LINE",
"100 608 OFFCURVE",
"106 562 OFFCURVE",
"106 542 CURVE SMOOTH",
"106 11 LINE SMOOTH",
"106 -9 OFFCURVE",
"30 -169 OFFCURVE",
"30 -169 CURVE",
"84 -200 LINE",
"180 -111 OFFCURVE",
"261 -23 OFFCURVE",
"261 10 CURVE SMOOTH",
"261 512 LINE SMOOTH",
"261 552 OFFCURVE",
"268 614 OFFCURVE",
"270 623 CURVE",
"336 629 LINE",
"331 710 LINE",
"331 710 OFFCURVE",
"237 705 OFFCURVE",
"157 705 CURVE SMOOTH",
"127 705 OFFCURVE",
"37 710 OFFCURVE"
);
}
);
width = 368;
}
);
leftKerningGroup = J;
rightKerningGroup = J;
unicode = 004A;
},
{
color = 0;
glyphname = K;
lastChange = "2015-06-18 07:52:54 +0000";
layers = (
{
anchors = (
{
name = bottom;
position = "{344, 0}";
},
{
name = top;
position = "{344, 705}";
}
);
background = {
paths = (
{
closed = 1;
nodes = (
"665 710 LINE",
"665 710 OFFCURVE",
"587 705 OFFCURVE",
"527 705 CURVE SMOOTH",
"507 705 OFFCURVE",
"412 710 OFFCURVE",
"412 710 CURVE",
"407 656 LINE",
"484 644 LINE",
"486 631 OFFCURVE",
"493 585 OFFCURVE",
"493 568 CURVE SMOOTH",
"493 137 LINE SMOOTH",
"493 120 OFFCURVE",
"486 74 OFFCURVE",
"484 61 CURVE",
"405 45 LINE",
"410 -5 LINE",
"410 -5 OFFCURVE",
"520 0 OFFCURVE",
"545 0 CURVE",
"674 0 LINE",
"681 54 LINE",
"591 61 LINE",
"589 75 OFFCURVE",
"584 125 OFFCURVE",
"584 167 CURVE SMOOTH",
"584 538 LINE SMOOTH",
"584 580 OFFCURVE",
"589 630 OFFCURVE",
"591 644 CURVE",
"669 651 LINE"
);
}
);
};
layerId = UUID0;
leftMetricsKey = "=H";
name = Regular;
paths = (
{
closed = 1;
nodes = (
"473 705 OFFCURVE",
"398 710 OFFCURVE",
"398 710 CURVE",
"393 656 LINE",
"447 645 LINE",
"408 577 LINE",
"226 353 LINE",
"226 353 OFFCURVE",
"370 188 OFFCURVE",
"391 164 CURVE",
"408 142 OFFCURVE",
"445 85 OFFCURVE",
"461 59 CURVE",
"402 45 LINE",
"407 -5 LINE",
"407 -5 OFFCURVE",
"520 0 OFFCURVE",
"545 0 CURVE",
"676 0 LINE",
"683 54 LINE",
"613 61 LINE",
"589 81 OFFCURVE",
"551 113 OFFCURVE",
"536 129 CURVE",
"467 209 OFFCURVE",
"395 290 OFFCURVE",
"325 370 CURVE",
"457 546 LINE",
"487 576 OFFCURVE",
"533 620 OFFCURVE",
"559 644 CURVE",
"635 651 LINE",
"631 710 LINE",
"631 710 OFFCURVE",
"553 705 OFFCURVE",
"493 705 CURVE SMOOTH"
);
},
{
closed = 1;
nodes = (
"297 710 LINE",
"297 710 OFFCURVE",
"219 705 OFFCURVE",
"159 705 CURVE SMOOTH",
"139 705 OFFCURVE",
"44 710 OFFCURVE",
"44 710 CURVE",
"39 656 LINE",
"116 644 LINE",
"118 631 OFFCURVE",
"125 585 OFFCURVE",
"125 568 CURVE SMOOTH",
"125 137 LINE SMOOTH",
"125 120 OFFCURVE",
"118 74 OFFCURVE",
"116 61 CURVE",
"37 45 LINE",
"42 -5 LINE",
"42 -5 OFFCURVE",
"152 0 OFFCURVE",
"177 0 CURVE",
"306 0 LINE",
"313 54 LINE",
"223 61 LINE",
"221 75 OFFCURVE",
"216 125 OFFCURVE",
"216 167 CURVE SMOOTH",
"216 538 LINE SMOOTH",
"216 580 OFFCURVE",
"221 630 OFFCURVE",
"223 644 CURVE",
"301 651 LINE"
);
}
);
width = 688;
},
{
anchors = (
{
name = bottom;
position = "{372, 0}";
},
{
name = top;
position = "{372, 705}";
}
);
background = {
paths = (
{
closed = 1;
nodes = (
"439 710 CURVE",
"434 635 LINE",
"465 629 LINE",
"437 577 LINE",
"275 353 LINE",
"275 353 OFFCURVE",
"404 188 OFFCURVE",
"425 164 CURVE",
"439 145 OFFCURVE",
"466 102 OFFCURVE",
"484 73 CURVE",
"445 65 LINE",
"450 -5 LINE",
"450 -5 OFFCURVE",
"560 0 OFFCURVE",
"610 0 CURVE",
"747 0 LINE",
"752 71 LINE",
"704 77 LINE",
"684 95 OFFCURVE",
"659 117 OFFCURVE",
"649 129 CURVE",
"582 209 OFFCURVE",
"512 290 OFFCURVE",
"444 370 CURVE",
"573 546 LINE",
"594 569 OFFCURVE",
"624 599 OFFCURVE",
"649 623 CURVE",
"707 629 LINE",
"702 710 LINE",
"702 710 OFFCURVE",
"616 705 OFFCURVE",
"536 705 CURVE SMOOTH",
"506 705 OFFCURVE",
"439 710 OFFCURVE"
);
},
{
closed = 1;
nodes = (
"341 710 LINE",
"341 710 OFFCURVE",
"247 705 OFFCURVE",
"167 705 CURVE SMOOTH",
"137 705 OFFCURVE",
"47 710 OFFCURVE",
"47 710 CURVE",
"42 635 LINE",
"107 623 LINE",
"109 607 OFFCURVE",
"116 562 OFFCURVE",
"116 512 CURVE SMOOTH",
"116 163 LINE SMOOTH",
"116 143 OFFCURVE",
"108 87 OFFCURVE",
"107 77 CURVE",
"41 65 LINE",
"46 -5 LINE",
"46 -5 OFFCURVE",
"166 0 OFFCURVE",
"196 0 CURVE",
"340 0 LINE",
"345 71 LINE",
"280 77 LINE",
"278 91 OFFCURVE",
"271 143 OFFCURVE",
"271 193 CURVE SMOOTH",
"271 542 LINE SMOOTH",
"271 562 OFFCURVE",
"277 608 OFFCURVE",
"280 623 CURVE",
"346 629 LINE"
);
}
);
};
layerId = "16643525-C5DD-48EC-8E99-463BF28F5E85";
name = Bold;
paths = (
{
closed = 1;
nodes = (
"506 705 OFFCURVE",
"439 710 OFFCURVE",
"439 710 CURVE",
"434 635 LINE",
"465 629 LINE",
"437 577 LINE SMOOTH",
"275 353 LINE",
"275 353 OFFCURVE",
"404 188 OFFCURVE",
"425 164 CURVE",
"439 145 OFFCURVE",
"466 102 OFFCURVE",
"484 73 CURVE",
"445 65 LINE",
"450 -5 LINE",
"450 -5 OFFCURVE",
"560 0 OFFCURVE",
"610 0 CURVE",
"747 0 LINE",
"752 71 LINE",
"704 77 LINE",
"684 95 OFFCURVE",
"659 117 OFFCURVE",
"649 129 CURVE",
"582 209 OFFCURVE",
"512 290 OFFCURVE",
"444 370 CURVE",
"573 546 LINE",
"594 569 OFFCURVE",
"624 599 OFFCURVE",
"649 623 CURVE",
"707 629 LINE",
"702 710 LINE",
"702 710 OFFCURVE",
"616 705 OFFCURVE",
"536 705 CURVE SMOOTH"
);
},
{
closed = 1;
nodes = (
"341 710 LINE",
"341 710 OFFCURVE",
"247 705 OFFCURVE",
"167 705 CURVE SMOOTH",
"137 705 OFFCURVE",
"47 710 OFFCURVE",
"47 710 CURVE",
"42 635 LINE",
"107 623 LINE",
"109 607 OFFCURVE",
"116 562 OFFCURVE",
"116 542 CURVE SMOOTH",
"116 163 LINE SMOOTH",
"116 143 OFFCURVE",
"108 87 OFFCURVE",
"107 77 CURVE",
"41 65 LINE",
"46 -5 LINE",
"46 -5 OFFCURVE",
"166 0 OFFCURVE",
"196 0 CURVE",
"340 0 LINE",
"345 71 LINE",
"280 77 LINE",
"278 91 OFFCURVE",
"271 153 OFFCURVE",
"271 193 CURVE SMOOTH",
"271 512 LINE SMOOTH",
"271 552 OFFCURVE",
"277 608 OFFCURVE",
"280 623 CURVE",
"346 629 LINE"
);
}
);
width = 771;
}
);
leftKerningGroup = H;
leftMetricsKey = "=H";
rightKerningGroup = X;
unicode = 004B;
},
{
color = 0;
glyphname = L;
lastChange = "2015-06-18 07:52:54 +0000";
layers = (
{
anchors = (
{
name = bottom;
position = "{262, 0}";
},
{
name = top;
position = "{173, 705}";
}
);
background = {
paths = (
{
closed = 1;
nodes = (
"113 705 OFFCURVE",
"18 710 OFFCURVE",
"18 710 CURVE",
"13 656 LINE",
"90 644 LINE",
"92 631 OFFCURVE",
"99 585 OFFCURVE",
"99 568 CURVE SMOOTH",
"99 137 LINE SMOOTH",
"99 120 OFFCURVE",
"92 74 OFFCURVE",
"90 61 CURVE",
"11 45 LINE",
"16 -5 LINE",
"16 -5 OFFCURVE",
"126 0 OFFCURVE",
"151 0 CURVE SMOOTH",
"371 0 LINE SMOOTH",
"391 0 OFFCURVE",
"485 -4 OFFCURVE",
"485 -4 CURVE",
"504 14 LINE",
"519 165 LINE",
"464 170 LINE",
"462 154 OFFCURVE",
"452 118 OFFCURVE",
"449 103 CURVE SMOOTH",
"447 94 OFFCURVE",
"438 80 OFFCURVE",
"428 66 CURVE",
"406 62 OFFCURVE",
"372 57 OFFCURVE",
"341 57 CURVE SMOOTH",
"197 57 LINE",
"195 76 OFFCURVE",
"190 127 OFFCURVE",
"190 167 CURVE SMOOTH",
"190 338 LINE",
"286 338 LINE",
"306 338 OFFCURVE",
"366 332 OFFCURVE",
"366 332 CURVE",
"375 265 LINE",
"423 271 LINE",
"423 271 OFFCURVE",
"420 330 OFFCURVE",
"420 380 CURVE SMOOTH",
"420 400 OFFCURVE",
"421 464 OFFCURVE",
"421 464 CURVE",
"375 469 LINE",
"366 403 LINE",
"366 403 OFFCURVE",
"326 394 OFFCURVE",
"306 394 CURVE",
"190 394 LINE",
"190 538 LINE SMOOTH",
"190 577 OFFCURVE",
"195 628 OFFCURVE",
"197 649 CURVE",
"328 649 LINE SMOOTH",
"356 649 OFFCURVE",
"387 646 OFFCURVE",
"409 644 CURVE",
"419 631 OFFCURVE",
"428 617 OFFCURVE",
"429 610 CURVE",
"433 595 OFFCURVE",
"438 572 OFFCURVE",
"440 556 CURVE",
"498 561 LINE",
"491 697 LINE",
"472 715 LINE",
"472 715 OFFCURVE",
"378 705 OFFCURVE",
"358 705 CURVE SMOOTH",
"133 705 LINE SMOOTH"
);
}
);
};
layerId = UUID0;
leftMetricsKey = "=H";
name = Regular;
paths = (
{
closed = 1;
nodes = (
"139 705 OFFCURVE",
"44 710 OFFCURVE",
"44 710 CURVE",
"39 656 LINE",
"116 644 LINE",
"118 631 OFFCURVE",
"125 585 OFFCURVE",
"125 568 CURVE SMOOTH",
"125 137 LINE SMOOTH",
"125 120 OFFCURVE",
"118 74 OFFCURVE",
"116 61 CURVE",
"37 45 LINE",
"42 -5 LINE",
"42 -5 OFFCURVE",
"152 0 OFFCURVE",
"177 0 CURVE SMOOTH",
"371 0 LINE SMOOTH",
"391 0 OFFCURVE",
"485 -4 OFFCURVE",
"485 -4 CURVE",
"504 14 LINE",
"519 165 LINE",
"464 170 LINE",
"462 154 OFFCURVE",
"453 118 OFFCURVE",
"449 103 CURVE",
"448 96 OFFCURVE",
"438 80 OFFCURVE",
"428 66 CURVE",
"406 62 OFFCURVE",
"372 57 OFFCURVE",
"341 57 CURVE SMOOTH",
"223 57 LINE",
"221 72 OFFCURVE",
"216 126 OFFCURVE",
"216 167 CURVE SMOOTH",
"216 538 LINE SMOOTH",
"216 580 OFFCURVE",
"221 630 OFFCURVE",
"223 644 CURVE",
"311 651 LINE",
"307 710 LINE",
"307 710 OFFCURVE",
"219 705 OFFCURVE",
"159 705 CURVE SMOOTH"
);
}
);
width = 519;
},
{
anchors = (
{
name = bottom;
position = "{279, 0}";
},
{
name = top;
position = "{179, 705}";
}
);
background = {
paths = (
{
closed = 1;
nodes = (
"47 710 CURVE",
"42 635 LINE",
"107 623 LINE",
"109 607 OFFCURVE",
"116 562 OFFCURVE",
"116 512 CURVE SMOOTH",
"116 163 LINE SMOOTH",
"116 143 OFFCURVE",
"108 87 OFFCURVE",
"107 77 CURVE",
"41 65 LINE",
"46 -5 LINE",
"46 -5 OFFCURVE",
"166 0 OFFCURVE",
"196 0 CURVE SMOOTH",
"403 0 LINE SMOOTH",
"423 0 OFFCURVE",
"517 -4 OFFCURVE",
"517 -4 CURVE",
"536 14 LINE",
"551 190 LINE",
"481 195 LINE",
"479 179 OFFCURVE",
"473 153 OFFCURVE",
"469 138 CURVE",
"468 132 OFFCURVE",
"459 114 OFFCURVE",
"450 95 CURVE",
"431 91 OFFCURVE",
"402 87 OFFCURVE",
"373 87 CURVE SMOOTH",
"279 87 LINE",
"275.892 108.006 OFFCURVE",
"271 151.202 OFFCURVE",
"271 193 CURVE SMOOTH",
"271 542 LINE SMOOTH",
"271 562 OFFCURVE",
"277 608 OFFCURVE",
"280 623 CURVE",
"356 629 LINE",
"351 710 LINE",
"351 710 OFFCURVE",
"247 705 OFFCURVE",
"167 705 CURVE SMOOTH",
"137 705 OFFCURVE",
"47 710 OFFCURVE"
);
}
);
};
layerId = "16643525-C5DD-48EC-8E99-463BF28F5E85";
name = Bold;
paths = (
{
closed = 1;
nodes = (
"196 0 LINE",
"403 0 LINE SMOOTH",
"423 0 OFFCURVE",
"517 -4 OFFCURVE",
"517 -4 CURVE",
"536 14 LINE",
"551 190 LINE",
"481 195 LINE",
"479 179 OFFCURVE",
"473 153 OFFCURVE",
"469 138 CURVE",
"468 132 OFFCURVE",
"459 114 OFFCURVE",
"450 95 CURVE",
"431 91 OFFCURVE",
"402 87 OFFCURVE",
"373 87 CURVE SMOOTH",
"189 87 LINE"
);
},
{
closed = 1;
nodes = (
"351 710 LINE",
"351 710 OFFCURVE",
"247 705 OFFCURVE",
"167 705 CURVE SMOOTH",
"137 705 OFFCURVE",
"47 710 OFFCURVE",
"47 710 CURVE",
"42 635 LINE",
"107 623 LINE",
"109 607 OFFCURVE",
"116 562 OFFCURVE",
"116 542 CURVE SMOOTH",
"116 163 LINE SMOOTH",
"116 143 OFFCURVE",
"108 87 OFFCURVE",
"107 77 CURVE",
"41 65 LINE",
"46 -5 LINE",
"46 -5 OFFCURVE",
"166 0 OFFCURVE",
"196 0 CURVE",
"280 77 LINE",
"278 91 OFFCURVE",
"271 153 OFFCURVE",
"271 193 CURVE SMOOTH",
"271 512 LINE SMOOTH",
"271 552 OFFCURVE",
"277 608 OFFCURVE",
"280 623 CURVE",
"356 629 LINE"
);
}
);
width = 577;
}
);
leftKerningGroup = H;
leftMetricsKey = "=H";
rightKerningGroup = L;
unicode = 004C;
},
{
color = 0;
glyphname = Lacute;
lastChange = "2015-06-18 08:01:47 +0000";
layers = (
{
anchors = (
{
name = _top;
position = "{173, 705}";
},
{
name = bottom;
position = "{262, 0}";
},
{
name = top;
position = "{173, 705}";
}
);
layerId = UUID0;
name = Regular;
paths = (
{
closed = 1;
nodes = (
"139 705 OFFCURVE",
"44 710 OFFCURVE",
"44 710 CURVE",
"39 656 LINE",
"116 644 LINE",
"118 631 OFFCURVE",
"125 585 OFFCURVE",
"125 568 CURVE SMOOTH",
"125 137 LINE SMOOTH",
"125 120 OFFCURVE",
"118 74 OFFCURVE",
"116 61 CURVE",
"37 45 LINE",
"42 -5 LINE",
"42 -5 OFFCURVE",
"152 0 OFFCURVE",
"177 0 CURVE SMOOTH",
"371 0 LINE SMOOTH",
"391 0 OFFCURVE",
"485 -4 OFFCURVE",
"485 -4 CURVE",
"504 14 LINE",
"519 165 LINE",
"464 170 LINE",
"462 154 OFFCURVE",
"453 118 OFFCURVE",
"449 103 CURVE",
"448 96 OFFCURVE",
"438 80 OFFCURVE",
"428 66 CURVE",
"406 62 OFFCURVE",
"372 57 OFFCURVE",
"341 57 CURVE SMOOTH",
"223 57 LINE",
"221 72 OFFCURVE",
"216 126 OFFCURVE",
"216 167 CURVE SMOOTH",
"216 538 LINE SMOOTH",
"216 580 OFFCURVE",
"221 630 OFFCURVE",
"223 644 CURVE",
"311 651 LINE",
"307 710 LINE",
"307 710 OFFCURVE",
"219 705 OFFCURVE",
"159 705 CURVE SMOOTH"
);
},
{
closed = 1;
nodes = (
"292 889 LINE",
"63 788 LINE",
"78 746 LINE",
"318 824 LINE"
);
}
);
width = 519;
},
{
components = (
{
name = L;
transform = "{1, 0, 0, 1, 0, 0}";
},
{
name = acute.cap;
transform = "{1, 0, 0, 1, 19, 211}";
}
);
layerId = "16643525-C5DD-48EC-8E99-463BF28F5E85";
name = Bold;
width = 577;
}
);
unicode = 0139;
},
{
color = 0;
glyphname = Lcaron;
lastChange = "2015-06-18 08:01:47 +0000";
layers = (
{
anchors = (
{
name = bottom;
position = "{262, 0}";
},
{
name = top;
position = "{173, 705}";
}
);
background = {
paths = (
{
closed = 1;
nodes = (
"437 607 LINE",
"424 364 LINE",
"366 367 LINE",
"367 461 LINE",
"366 480 OFFCURVE",
"348 607 OFFCURVE",
"348 607 CURVE"
);
}
);
};
layerId = UUID0;
name = Regular;
paths = (
{
closed = 1;
nodes = (
"139 705 OFFCURVE",
"44 710 OFFCURVE",
"44 710 CURVE",
"39 656 LINE",
"116 644 LINE",
"118 631 OFFCURVE",
"125 585 OFFCURVE",
"125 568 CURVE SMOOTH",
"125 137 LINE SMOOTH",
"125 120 OFFCURVE",
"118 74 OFFCURVE",
"116 61 CURVE",
"37 45 LINE",
"42 -5 LINE",
"42 -5 OFFCURVE",
"152 0 OFFCURVE",
"177 0 CURVE SMOOTH",
"371 0 LINE SMOOTH",
"391 0 OFFCURVE",
"485 -4 OFFCURVE",
"485 -4 CURVE",
"504 14 LINE",
"519 165 LINE",
"464 170 LINE",
"462 154 OFFCURVE",
"453 118 OFFCURVE",
"449 103 CURVE",
"448 96 OFFCURVE",
"438 80 OFFCURVE",
"428 66 CURVE",
"406 62 OFFCURVE",
"372 57 OFFCURVE",
"341 57 CURVE SMOOTH",
"223 57 LINE",
"221 72 OFFCURVE",
"216 126 OFFCURVE",
"216 167 CURVE SMOOTH",
"216 538 LINE SMOOTH",
"216 580 OFFCURVE",
"221 630 OFFCURVE",
"223 644 CURVE",
"311 651 LINE",
"307 710 LINE",
"307 710 OFFCURVE",
"219 705 OFFCURVE",
"159 705 CURVE SMOOTH"
);
},
{
closed = 1;
nodes = (
"465 705 LINE",
"452 462 LINE",
"396 465 LINE",
"388 705 LINE"
);
}
);
width = 519;
},
{
components = (
{
name = L;
transform = "{1, 0, 0, 1, 0, 0}";
},
{
name = caron.alt;
transform = "{1, 0, 0, 1, 365, 0}";
}
);
layerId = "16643525-C5DD-48EC-8E99-463BF28F5E85";
name = Bold;
width = 577;
}
);
leftKerningGroup = H;
rightKerningGroup = L;
unicode = 013D;
},
{
color = 0;
glyphname = Ldot;
lastChange = "2015-06-18 08:01:47 +0000";
layers = (
{
anchors = (
{
name = _top;
position = "{382, 269}";
},
{
name = bottom;
position = "{262, 0}";
},
{
name = top;
position = "{173, 705}";
}
);
background = {
paths = (
{
closed = 1;
nodes = (
"422 480 OFFCURVE",
"446 454 OFFCURVE",
"446 410 CURVE SMOOTH",
"446 369 OFFCURVE",
"423 341 OFFCURVE",
"382 341 CURVE SMOOTH",
"341 341 OFFCURVE",
"318 369 OFFCURVE",
"318 410 CURVE SMOOTH",
"318 451 OFFCURVE",
"341 480 OFFCURVE",
"382 480 CURVE SMOOTH"
);
}
);
};
layerId = UUID0;
name = Regular;
paths = (
{
closed = 1;
nodes = (
"139 705 OFFCURVE",
"44 710 OFFCURVE",
"44 710 CURVE",
"39 656 LINE",
"116 644 LINE",
"118 631 OFFCURVE",
"125 585 OFFCURVE",
"125 568 CURVE SMOOTH",
"125 137 LINE SMOOTH",
"125 120 OFFCURVE",
"118 74 OFFCURVE",
"116 61 CURVE",
"37 45 LINE",
"42 -5 LINE",
"42 -5 OFFCURVE",
"152 0 OFFCURVE",
"177 0 CURVE SMOOTH",
"371 0 LINE SMOOTH",
"391 0 OFFCURVE",
"485 -4 OFFCURVE",
"485 -4 CURVE",
"504 14 LINE",
"519 165 LINE",
"464 170 LINE",
"462 154 OFFCURVE",
"453 118 OFFCURVE",
"449 103 CURVE",
"448 96 OFFCURVE",
"438 80 OFFCURVE",
"428 66 CURVE",
"406 62 OFFCURVE",
"372 57 OFFCURVE",
"341 57 CURVE SMOOTH",
"223 57 LINE",
"221 72 OFFCURVE",
"216 126 OFFCURVE",
"216 167 CURVE SMOOTH",
"216 538 LINE SMOOTH",
"216 580 OFFCURVE",
"221 630 OFFCURVE",
"223 644 CURVE",
"311 651 LINE",
"307 710 LINE",
"307 710 OFFCURVE",
"219 705 OFFCURVE",
"159 705 CURVE SMOOTH"
);
},
{
closed = 1;
nodes = (
"344 475 OFFCURVE",
"323 448 OFFCURVE",
"323 410 CURVE SMOOTH",
"323 372 OFFCURVE",
"344 346 OFFCURVE",
"382 346 CURVE SMOOTH",
"420 346 OFFCURVE",
"441 372 OFFCURVE",
"441 410 CURVE SMOOTH",
"441 451 OFFCURVE",
"419 475 OFFCURVE",
"382 475 CURVE SMOOTH"
);
}
);
width = 532;
},
{
background = {
paths = (
{
closed = 1;
nodes = (
"481 470 OFFCURVE",
"511 438 OFFCURVE",
"511 385 CURVE SMOOTH",
"511 335 OFFCURVE",
"482 301 OFFCURVE",
"432 301 CURVE SMOOTH",
"382 301 OFFCURVE",
"353 335 OFFCURVE",
"353 385 CURVE SMOOTH",
"353 435 OFFCURVE",
"382 470 OFFCURVE",
"432 470 CURVE SMOOTH"
);
}
);
};
components = (
{
name = L;
transform = "{1, 0, 0, 1, 0, 0}";
},
{
disableAlignment = 1;
name = dotaccent;
transform = "{1, 0, 0, 1, 252, -270}";
}
);
layerId = "16643525-C5DD-48EC-8E99-463BF28F5E85";
name = Bold;
width = 577;
}
);
leftKerningGroup = H;
rightKerningGroup = L;
unicode = 013F;
},
{
color = 0;
glyphname = Lslash;
lastChange = "2015-06-18 08:01:47 +0000";
layers = (
{
anchors = (
{
name = bottom;
position = "{272, 0}";
},
{
name = top;
position = "{183, 705}";
}
);
layerId = UUID0;
name = Regular;
paths = (
{
closed = 1;
nodes = (
"370 500 LINE",
"40 380 LINE",
"55 339 LINE",
"385 459 LINE"
);
},
{
closed = 1;
nodes = (
"149 705 OFFCURVE",
"54 710 OFFCURVE",
"54 710 CURVE",
"49 656 LINE",
"126 644 LINE",
"128 631 OFFCURVE",
"135 585 OFFCURVE",
"135 568 CURVE SMOOTH",
"135 137 LINE SMOOTH",
"135 120 OFFCURVE",
"128 74 OFFCURVE",
"126 61 CURVE",
"47 45 LINE",
"52 -5 LINE",
"52 -5 OFFCURVE",
"162 0 OFFCURVE",
"187 0 CURVE SMOOTH",
"381 0 LINE SMOOTH",
"401 0 OFFCURVE",
"495 -4 OFFCURVE",
"495 -4 CURVE",
"514 14 LINE",
"529 165 LINE",
"474 170 LINE",
"472 154 OFFCURVE",
"463 118 OFFCURVE",
"459 103 CURVE",
"458 96 OFFCURVE",
"448 80 OFFCURVE",
"438 66 CURVE",
"416 62 OFFCURVE",
"382 57 OFFCURVE",
"351 57 CURVE SMOOTH",
"233 57 LINE",
"231 72 OFFCURVE",
"226 126 OFFCURVE",
"226 167 CURVE SMOOTH",
"226 538 LINE SMOOTH",
"226 580 OFFCURVE",
"231 630 OFFCURVE",
"233 644 CURVE",
"321 651 LINE",
"317 710 LINE",
"317 710 OFFCURVE",
"229 705 OFFCURVE",
"169 705 CURVE SMOOTH"
);
}
);
width = 542;
},
{
components = (
{
name = L;
transform = "{1, 0, 0, 1, 12, 0}";
}
);
layerId = "16643525-C5DD-48EC-8E99-463BF28F5E85";
name = Bold;
paths = (
{
closed = 1;
nodes = (
"450 494 LINE",
"38 344 LINE",
"60 284 LINE",
"472 434 LINE"
);
}
);
width = 589;
}
);
leftKerningGroup = H;
rightKerningGroup = L;
unicode = 0141;
},
{
color = 0;
glyphname = M;
lastChange = "2015-06-18 07:52:54 +0000";
layers = (
{
background = {
paths = (
{
closed = 1;
nodes = (
"661 705 LINE",
"641 685 LINE",
"641 685 OFFCURVE",
"598 559 OFFCURVE",
"588 537 CURVE",
"452 175 LINE",
"319 529 LINE",
"310 553 OFFCURVE",
"267 684 OFFCURVE",
"267 684 CURVE",
"248 705 LINE",
"169 705 LINE",
"149 705 OFFCURVE",
"54 710 OFFCURVE",
"54 710 CURVE",
"49 656 LINE",
"131 644 LINE",
"133 630 OFFCURVE",
"135 586 OFFCURVE",
"135 569 CURVE",
"109 132 LINE",
"106 115 OFFCURVE",
"95 74 OFFCURVE",
"92 61 CURVE",
"14 45 LINE",
"19 -5 LINE",
"19 -5 OFFCURVE",
"120 0 OFFCURVE",
"140 0 CURVE SMOOTH",
"255 0 LINE",
"262 54 LINE",
"181 61 LINE",
"180 77 OFFCURVE",
"176 134 OFFCURVE",
"176 162 CURVE",
"200 584 LINE",
"419 0 LINE",
"455 0 LINE",
"674 584 LINE",
"701 162 LINE",
"701 134 OFFCURVE",
"697 76 OFFCURVE",
"696 61 CURVE",
"619 45 LINE",
"624 -5 LINE",
"624 -5 OFFCURVE",
"734 0 OFFCURVE",
"759 0 CURVE",
"888 0 LINE",
"895 54 LINE",
"813 61 LINE",
"810 74 OFFCURVE",
"800 115 OFFCURVE",
"797 132 CURVE",
"763 569 LINE",
"763 586 OFFCURVE",
"764 632 OFFCURVE",
"766 644 CURVE",
"846 651 LINE",
"842 710 LINE",
"842 710 OFFCURVE",
"747 705 OFFCURVE",
"687 705 CURVE SMOOTH"
);
}
);
};
layerId = UUID0;
name = Regular;
paths = (
{
closed = 1;
nodes = (
"661 705 LINE",
"641 685 LINE",
"641 685 OFFCURVE",
"598 559 OFFCURVE",
"588 537 CURVE",
"452 175 LINE",
"319 529 LINE",
"310 553 OFFCURVE",
"267 684 OFFCURVE",
"267 684 CURVE",
"248 705 LINE",
"169 705 LINE",
"149 705 OFFCURVE",
"54 710 OFFCURVE",
"54 710 CURVE",
"49 656 LINE",
"131 644 LINE",
"133 630 OFFCURVE",
"136 586 OFFCURVE",
"135 569 CURVE SMOOTH",
"109 137 LINE SMOOTH",
"108 120 OFFCURVE",
"95 74 OFFCURVE",
"92 61 CURVE",
"14 45 LINE",
"19 -5 LINE",
"19 -5 OFFCURVE",
"120 0 OFFCURVE",
"140 0 CURVE SMOOTH",
"255 0 LINE",
"262 54 LINE",
"181 61 LINE",
"180 77 OFFCURVE",
"174 139 OFFCURVE",
"176 167 CURVE SMOOTH",
"200 584 LINE",
"419 0 LINE",
"455 0 LINE",
"674 584 LINE",
"702 137 LINE SMOOTH",
"704 109 OFFCURVE",
"697 76 OFFCURVE",
"696 61 CURVE",
"619 45 LINE",
"624 -5 LINE",
"624 -5 OFFCURVE",
"734 0 OFFCURVE",
"759 0 CURVE",
"888 0 LINE",
"895 54 LINE",
"813 61 LINE",
"810 74 OFFCURVE",
"795 150 OFFCURVE",
"794 167 CURVE SMOOTH",
"765 538 LINE SMOOTH",
"764 555 OFFCURVE",
"765 602 OFFCURVE",
"766 644 CURVE",
"846 651 LINE",
"842 710 LINE",
"842 710 OFFCURVE",
"747 705 OFFCURVE",
"687 705 CURVE SMOOTH"
);
}
);
width = 904;
},
{
background = {
paths = (
{
closed = 1;
nodes = (
"651 705 LINE",
"631 685 LINE",
"631 685 OFFCURVE",
"598 572 OFFCURVE",
"590 549 CURVE",
"478 221 LINE",
"375 534 LINE",
"363 571 OFFCURVE",
"332 685 OFFCURVE",
"332 685 CURVE",
"312 705 LINE",
"185 705 LINE",
"165 705 OFFCURVE",
"65 710 OFFCURVE",
"65 710 CURVE",
"60 635 LINE",
"127 623 LINE",
"130 605 OFFCURVE",
"133 581 OFFCURVE",
"133 569 CURVE",
"105 132 LINE",
"102 119 OFFCURVE",
"97 95 OFFCURVE",
"92 77 CURVE",
"23 65 LINE",
"28 -5 LINE",
"28 -5 OFFCURVE",
"118 0 OFFCURVE",
"148 0 CURVE",
"283 0 LINE",
"289 71 LINE",
"221 77 LINE",
"219 100 OFFCURVE",
"217 140 OFFCURVE",
"217 162 CURVE",
"236 518 LINE",
"415 0 LINE",
"507 0 LINE",
"691 518 LINE",
"707 162 LINE",
"707 140 OFFCURVE",
"705 100 OFFCURVE",
"703 77 CURVE",
"637 65 LINE",
"642 -5 LINE",
"642 -5 OFFCURVE",
"752 0 OFFCURVE",
"782 0 CURVE",
"924 0 LINE",
"929 71 LINE",
"862 77 LINE",
"858 95 OFFCURVE",
"851 119 OFFCURVE",
"849 132 CURVE",
"817 569 LINE",
"817 582 OFFCURVE",
"818 605 OFFCURVE",
"820 623 CURVE",
"885 629 LINE",
"880 710 LINE",
"880 710 OFFCURVE",
"803 705 OFFCURVE",
"748 705 CURVE SMOOTH"
);
}
);
};
layerId = "16643525-C5DD-48EC-8E99-463BF28F5E85";
name = Bold;
paths = (
{
closed = 1;
nodes = (
"651 705 LINE",
"631 685 LINE",
"631 685 OFFCURVE",
"598 572 OFFCURVE",
"590 549 CURVE SMOOTH",
"478 221 LINE",
"375 534 LINE SMOOTH",
"363 571 OFFCURVE",
"332 685 OFFCURVE",
"332 685 CURVE",
"312 705 LINE",
"185 705 LINE",
"165 705 OFFCURVE",
"65 710 OFFCURVE",
"65 710 CURVE",
"60 635 LINE",
"127 623 LINE",
"128 605 OFFCURVE",
"132 562 OFFCURVE",
"131 542 CURVE SMOOTH",
"107 163 LINE SMOOTH",
"106 143 OFFCURVE",
"97 95 OFFCURVE",
"92 77 CURVE",
"23 65 LINE",
"28 -5 LINE",
"28 -5 OFFCURVE",
"118 0 OFFCURVE",
"148 0 CURVE",
"283 0 LINE",
"289 71 LINE",
"221 77 LINE",
"219 100 OFFCURVE",
"217 153 OFFCURVE",
"219 193 CURVE SMOOTH",
"236 518 LINE",
"415 0 LINE",
"507 0 LINE",
"691 518 LINE",
"707 163 LINE SMOOTH",
"708 143 OFFCURVE",
"705 100 OFFCURVE",
"703 77 CURVE",
"637 65 LINE",
"642 -5 LINE",
"642 -5 OFFCURVE",
"752 0 OFFCURVE",
"782 0 CURVE",
"924 0 LINE",
"929 71 LINE",
"862 77 LINE",
"858 95 OFFCURVE",
"848 152 OFFCURVE",
"845 192 CURVE SMOOTH",
"821 512 LINE SMOOTH",
"818 552 OFFCURVE",
"819 595 OFFCURVE",
"820 623 CURVE",
"885 629 LINE",
"880 710 LINE",
"880 710 OFFCURVE",
"803 705 OFFCURVE",
"748 705 CURVE SMOOTH"
);
}
);
width = 952;
}
);
leftKerningGroup = M;
rightKerningGroup = M;
unicode = 004D;
},
{
color = 0;
glyphname = N;
lastChange = "2015-06-18 07:52:54 +0000";
layers = (
{
anchors = (
{
name = bottom;
position = "{371, 0}";
},
{
name = top;
position = "{371, 705}";
}
);
background = {
paths = (
{
closed = 1;
nodes = (
"735 651 LINE",
"657 644 LINE",
"653 625 OFFCURVE",
"642 568 OFFCURVE",
"642 528 CURVE SMOOTH",
"642 297 LINE SMOOTH",
"642 257 OFFCURVE",
"641 0 OFFCURVE",
"641 0 CURVE",
"581 0 LINE",
"187 556 LINE",
"187 167 LINE SMOOTH",
"187 125 OFFCURVE",
"192 75 OFFCURVE",
"194 61 CURVE",
"275 54 LINE",
"268 0 LINE",
"159 0 LINE",
"134 0 OFFCURVE",
"38 -5 OFFCURVE",
"38 -5 CURVE",
"33 45 LINE",
"111 61 LINE",
"113 74 OFFCURVE",
"120 120 OFFCURVE",
"120 137 CURVE SMOOTH",
"120 568 LINE SMOOTH",
"120 584 OFFCURVE",
"113 629 OFFCURVE",
"111 644 CURVE",
"31 656 LINE",
"36 710 LINE",
"36 710 OFFCURVE",
"131 705 OFFCURVE",
"151 705 CURVE SMOOTH",
"196 706 LINE",
"216 685 LINE",
"216 685 OFFCURVE",
"297 552 OFFCURVE",
"313 530 CURVE SMOOTH",
"575 168 LINE",
"575 558 LINE SMOOTH",
"575 574 OFFCURVE",
"569 626 OFFCURVE",
"566 644 CURVE",
"488 656 LINE",
"493 710 LINE",
"521 708 OFFCURVE",
"580 705 OFFCURVE",
"600 705 CURVE SMOOTH",
"660 705 OFFCURVE",
"731 710 OFFCURVE",
"731 710 CURVE"
);
}
);
};
layerId = UUID0;
name = Regular;
paths = (
{
closed = 1;
nodes = (
"735 651 LINE",
"657 644 LINE",
"654 630 OFFCURVE",
"642 580 OFFCURVE",
"642 538 CURVE SMOOTH",
"641 0 LINE",
"581 0 LINE",
"187 556 LINE",
"187 167 LINE SMOOTH",
"187 125 OFFCURVE",
"192 75 OFFCURVE",
"194 61 CURVE",
"275 54 LINE",
"268 0 LINE",
"159 0 LINE",
"134 0 OFFCURVE",
"38 -5 OFFCURVE",
"38 -5 CURVE",
"33 45 LINE",
"111 61 LINE",
"113 74 OFFCURVE",
"120 120 OFFCURVE",
"120 137 CURVE SMOOTH",
"120 568 LINE SMOOTH",
"120 584 OFFCURVE",
"113 629 OFFCURVE",
"111 644 CURVE",
"31 656 LINE",
"36 710 LINE",
"36 710 OFFCURVE",
"131 705 OFFCURVE",
"151 705 CURVE SMOOTH",
"196 706 LINE",
"216 685 LINE",
"216 685 OFFCURVE",
"297 552 OFFCURVE",
"313 530 CURVE SMOOTH",
"575 168 LINE",
"575 568 LINE SMOOTH",
"575 584 OFFCURVE",
"569 626 OFFCURVE",
"566 644 CURVE",
"488 656 LINE",
"493 710 LINE",
"521 708 OFFCURVE",
"580 705 OFFCURVE",
"600 705 CURVE SMOOTH",
"660 705 OFFCURVE",
"731 710 OFFCURVE",
"731 710 CURVE"
);
}
);
width = 752;
},
{
anchors = (
{
name = bottom;
position = "{397, 0}";
},
{
name = top;
position = "{397, 705}";
}
);
background = {
paths = (
{
closed = 1;
nodes = (
"773 710 LINE",
"773 710 OFFCURVE",
"679 705 OFFCURVE",
"599 705 CURVE SMOOTH",
"569 705 OFFCURVE",
"479 710 OFFCURVE",
"479 710 CURVE",
"474 635 LINE",
"539 623 LINE",
"541 607 OFFCURVE",
"548 562 OFFCURVE",
"548 512 CURVE SMOOTH",
"548 163 LINE SMOOTH",
"548 143 OFFCURVE",
"540 87 OFFCURVE",
"539 77 CURVE",
"473 65 LINE",
"478 -5 LINE",
"478 -5 OFFCURVE",
"598 0 OFFCURVE",
"628 0 CURVE",
"772 0 LINE",
"777 71 LINE",
"712 77 LINE",
"710 91 OFFCURVE",
"703 143 OFFCURVE",
"703 193 CURVE SMOOTH",
"703 542 LINE SMOOTH",
"703 562 OFFCURVE",
"709 608 OFFCURVE",
"712 623 CURVE",
"778 629 LINE"
);
}
);
};
layerId = "16643525-C5DD-48EC-8E99-463BF28F5E85";
name = Bold;
paths = (
{
closed = 1;
nodes = (
"778 629 LINE",
"712 623 LINE",
"710 611 OFFCURVE",
"703 552 OFFCURVE",
"703 512 CURVE SMOOTH",
"703 0 LINE",
"568 0 LINE",
"243 450 LINE",
"243 193 LINE SMOOTH",
"243 153 OFFCURVE",
"251 87 OFFCURVE",
"252 77 CURVE",
"317 71 LINE",
"312 0 LINE",
"176 0 LINE",
"146 0 OFFCURVE",
"46 -5 OFFCURVE",
"46 -5 CURVE",
"41 65 LINE",
"107 77 LINE",
"109 88 OFFCURVE",
"116 143 OFFCURVE",
"116 163 CURVE SMOOTH",
"116 542 LINE SMOOTH",
"116 562 OFFCURVE",
"109 612 OFFCURVE",
"107 623 CURVE",
"42 635 LINE",
"47 710 LINE",
"47 710 OFFCURVE",
"137 705 OFFCURVE",
"157 705 CURVE SMOOTH",
"249 705 LINE",
"268 685 LINE",
"268 685 OFFCURVE",
"341 559 OFFCURVE",
"356 537 CURVE SMOOTH",
"576 230 LINE",
"576 542 LINE SMOOTH",
"576 562 OFFCURVE",
"569 607 OFFCURVE",
"567 623 CURVE",
"502 635 LINE",
"507 710 LINE",
"542 708 OFFCURVE",
"591 705 OFFCURVE",
"611 705 CURVE",
"681 705 OFFCURVE",
"773 710 OFFCURVE",
"773 710 CURVE"
);
}
);
width = 810;
}
);
leftKerningGroup = H;
rightKerningGroup = H;
unicode = 004E;
},
{
color = 0;
glyphname = Nacute;
lastChange = "2015-06-18 08:01:47 +0000";
layers = (
{
anchors = (
{
name = _top;
position = "{371, 705}";
},
{
name = bottom;
position = "{371, 0}";
},
{
name = top;
position = "{371, 705}";
}
);
layerId = UUID0;
name = Regular;
paths = (
{
closed = 1;
nodes = (
"735 651 LINE",
"657 644 LINE",
"654 630 OFFCURVE",
"642 580 OFFCURVE",
"642 538 CURVE SMOOTH",
"641 0 LINE",
"581 0 LINE",
"187 556 LINE",
"187 167 LINE SMOOTH",
"187 125 OFFCURVE",
"192 75 OFFCURVE",
"194 61 CURVE",
"275 54 LINE",
"268 0 LINE",
"159 0 LINE",
"134 0 OFFCURVE",
"38 -5 OFFCURVE",
"38 -5 CURVE",
"33 45 LINE",
"111 61 LINE",
"113 74 OFFCURVE",
"120 120 OFFCURVE",
"120 137 CURVE SMOOTH",
"120 568 LINE SMOOTH",
"120 584 OFFCURVE",
"113 629 OFFCURVE",
"111 644 CURVE",
"31 656 LINE",
"36 710 LINE",
"36 710 OFFCURVE",
"131 705 OFFCURVE",
"151 705 CURVE SMOOTH",
"196 706 LINE",
"216 685 LINE",
"216 685 OFFCURVE",
"297 552 OFFCURVE",
"313 530 CURVE SMOOTH",
"575 168 LINE",
"575 568 LINE SMOOTH",
"575 584 OFFCURVE",
"569 626 OFFCURVE",
"566 644 CURVE",
"488 656 LINE",
"493 710 LINE",
"521 708 OFFCURVE",
"580 705 OFFCURVE",
"600 705 CURVE SMOOTH",
"660 705 OFFCURVE",
"731 710 OFFCURVE",
"731 710 CURVE"
);
},
{
closed = 1;
nodes = (
"490 889 LINE",
"261 788 LINE",
"276 746 LINE",
"516 824 LINE"
);
}
);
width = 752;
},
{
components = (
{
name = N;
transform = "{1, 0, 0, 1, 0, 0}";
},
{
name = acute.cap;
transform = "{1, 0, 0, 1, 237, 211}";
}
);
layerId = "16643525-C5DD-48EC-8E99-463BF28F5E85";
name = Bold;
width = 810;
}
);
unicode = 0143;
},
{
color = 0;
glyphname = Ncaron;
lastChange = "2015-06-18 08:01:47 +0000";
layers = (
{
anchors = (
{
name = _top_caps;
position = "{371, 396}";
},
{
name = bottom;
position = "{371, 0}";
},
{
name = top;
position = "{371, 705}";
}
);
layerId = UUID0;
name = Regular;
paths = (
{
closed = 1;
nodes = (
"735 651 LINE",
"657 644 LINE",
"654 630 OFFCURVE",
"642 580 OFFCURVE",
"642 538 CURVE SMOOTH",
"641 0 LINE",
"581 0 LINE",
"187 556 LINE",
"187 167 LINE SMOOTH",
"187 125 OFFCURVE",
"192 75 OFFCURVE",
"194 61 CURVE",
"275 54 LINE",
"268 0 LINE",
"159 0 LINE",
"134 0 OFFCURVE",
"38 -5 OFFCURVE",
"38 -5 CURVE",
"33 45 LINE",
"111 61 LINE",
"113 74 OFFCURVE",
"120 120 OFFCURVE",
"120 137 CURVE SMOOTH",
"120 568 LINE SMOOTH",
"120 584 OFFCURVE",
"113 629 OFFCURVE",
"111 644 CURVE",
"31 656 LINE",
"36 710 LINE",
"36 710 OFFCURVE",
"131 705 OFFCURVE",
"151 705 CURVE SMOOTH",
"196 706 LINE",
"216 685 LINE",
"216 685 OFFCURVE",
"297 552 OFFCURVE",
"313 530 CURVE SMOOTH",
"575 168 LINE",
"575 568 LINE SMOOTH",
"575 584 OFFCURVE",
"569 626 OFFCURVE",
"566 644 CURVE",
"488 656 LINE",
"493 710 LINE",
"521 708 OFFCURVE",
"580 705 OFFCURVE",
"600 705 CURVE SMOOTH",
"660 705 OFFCURVE",
"731 710 OFFCURVE",
"731 710 CURVE"
);
},
{
closed = 1;
nodes = (
"405 749 LINE",
"546 836 LINE",
"522 875 LINE",
"331 788 LINE",
"364 749 LINE"
);
},
{
closed = 1;
nodes = (
"412 788 LINE",
"221 875 LINE",
"197 836 LINE",
"338 749 LINE",
"379 749 LINE"
);
}
);
width = 752;
},
{
components = (
{
name = N;
transform = "{1, 0, 0, 1, 0, 0}";
},
{
name = caron.cap;
transform = "{1, 0, 0, 1, 217, 211}";
}
);
layerId = "16643525-C5DD-48EC-8E99-463BF28F5E85";
name = Bold;
width = 810;
}
);
unicode = 0147;
},
{
color = 0;
glyphname = Ntilde;
lastChange = "2015-06-18 08:01:47 +0000";
layers = (
{
anchors = (
{
name = _top;
position = "{371, 705}";
},
{
name = bottom;
position = "{371, 0}";
},
{
name = top;
position = "{371, 705}";
}
);
layerId = UUID0;
name = Regular;
paths = (
{
closed = 1;
nodes = (
"735 651 LINE",
"657 644 LINE",
"654 630 OFFCURVE",
"642 580 OFFCURVE",
"642 538 CURVE SMOOTH",
"641 0 LINE",
"581 0 LINE",
"187 556 LINE",
"187 167 LINE SMOOTH",
"187 125 OFFCURVE",
"192 75 OFFCURVE",
"194 61 CURVE",
"275 54 LINE",
"268 0 LINE",
"159 0 LINE",
"134 0 OFFCURVE",
"38 -5 OFFCURVE",
"38 -5 CURVE",
"33 45 LINE",
"111 61 LINE",
"113 74 OFFCURVE",
"120 120 OFFCURVE",
"120 137 CURVE SMOOTH",
"120 568 LINE SMOOTH",
"120 584 OFFCURVE",
"113 629 OFFCURVE",
"111 644 CURVE",
"31 656 LINE",
"36 710 LINE",
"36 710 OFFCURVE",
"131 705 OFFCURVE",
"151 705 CURVE SMOOTH",
"196 706 LINE",
"216 685 LINE",
"216 685 OFFCURVE",
"297 552 OFFCURVE",
"313 530 CURVE SMOOTH",
"575 168 LINE",
"575 568 LINE SMOOTH",
"575 584 OFFCURVE",
"569 626 OFFCURVE",
"566 644 CURVE",
"488 656 LINE",
"493 710 LINE",
"521 708 OFFCURVE",
"580 705 OFFCURVE",
"600 705 CURVE SMOOTH",
"660 705 OFFCURVE",
"731 710 OFFCURVE",
"731 710 CURVE"
);
},
{
closed = 1;
nodes = (
"503 870 LINE",
"503 870 OFFCURVE",
"477 819 OFFCURVE",
"450 819 CURVE SMOOTH",
"410 819 OFFCURVE",
"325 860 OFFCURVE",
"285 860 CURVE SMOOTH",
"245 860 OFFCURVE",
"203 759 OFFCURVE",
"203 759 CURVE",
"239 738 LINE",
"239 738 OFFCURVE",
"265 792 OFFCURVE",
"292 792 CURVE SMOOTH",
"332 792 OFFCURVE",
"416 751 OFFCURVE",
"456 751 CURVE SMOOTH",
"496 751 OFFCURVE",
"539 849 OFFCURVE",
"539 849 CURVE"
);
}
);
width = 752;
},
{
components = (
{
name = N;
transform = "{1, 0, 0, 1, 0, 0}";
},
{
name = tilde.cap;
transform = "{1, 0, 0, 1, 207, 211}";
}
);
layerId = "16643525-C5DD-48EC-8E99-463BF28F5E85";
name = Bold;
width = 810;
}
);
leftKerningGroup = H;
rightKerningGroup = H;
unicode = 00D1;
},
{
color = 0;
glyphname = O;
lastChange = "2015-06-18 07:52:54 +0000";
layers = (
{
anchors = (
{
name = bottom;
position = "{358, 0}";
},
{
name = horn;
position = "{616, 567}";
},
{
name = top;
position = "{358, 705}";
}
);
layerId = UUID0;
name = Regular;
paths = (
{
closed = 1;
nodes = (
"686 570 OFFCURVE",
"575 720 OFFCURVE",
"358 720 CURVE SMOOTH",
"141 720 OFFCURVE",
"30 570 OFFCURVE",
"30 352 CURVE SMOOTH",
"30 135 OFFCURVE",
"141 -15 OFFCURVE",
"358 -15 CURVE SMOOTH",
"575 -15 OFFCURVE",
"686 135 OFFCURVE",
"686 352 CURVE SMOOTH"
);
},
{
closed = 1;
nodes = (
"137 527 OFFCURVE",
"209 667 OFFCURVE",
"358 667 CURVE SMOOTH",
"507 667 OFFCURVE",
"579 527 OFFCURVE",
"579 352 CURVE SMOOTH",
"579 178 OFFCURVE",
"507 38 OFFCURVE",
"358 38 CURVE SMOOTH",
"209 38 OFFCURVE",
"137 178 OFFCURVE",
"137 352 CURVE SMOOTH"
);
}
);
width = 716;
},
{
anchors = (
{
name = bottom;
position = "{406, 0}";
},
{
name = horn;
position = "{666, 567}";
},
{
name = ogonek;
position = "{559, 10}";
},
{
name = top;
position = "{405, 705}";
}
);
layerId = "16643525-C5DD-48EC-8E99-463BF28F5E85";
name = Bold;
paths = (
{
closed = 1;
nodes = (
"763 574 OFFCURVE",
"623 720 OFFCURVE",
"406 720 CURVE SMOOTH",
"189 720 OFFCURVE",
"49 574 OFFCURVE",
"49 352 CURVE SMOOTH",
"49 131 OFFCURVE",
"189 -15 OFFCURVE",
"406 -15 CURVE SMOOTH",
"623 -15 OFFCURVE",
"763 131 OFFCURVE",
"763 352 CURVE SMOOTH"
);
},
{
closed = 1;
nodes = (
"229 535 OFFCURVE",
"286 623 OFFCURVE",
"406 623 CURVE SMOOTH",
"526 623 OFFCURVE",
"583 535 OFFCURVE",
"583 352 CURVE SMOOTH",
"583 170 OFFCURVE",
"526 82 OFFCURVE",
"406 82 CURVE SMOOTH",
"286 82 OFFCURVE",
"229 170 OFFCURVE",
"229 352 CURVE SMOOTH"
);
}
);
width = 812;
}
);
leftKerningGroup = O;
rightKerningGroup = O;
unicode = 004F;
},
{
color = 0;
glyphname = OE;
lastChange = "2015-06-18 07:52:54 +0000";
layers = (
{
anchors = (
{
name = top;
position = "{513, 705}";
}
);
background = {
anchors = (
{
name = top;
position = "{513, 705}";
}
);
paths = (
{
closed = 1;
nodes = (
"551 614 LINE",
"551 97 LINE",
"381 0 LINE",
"788 0 LINE SMOOTH",
"808 0 OFFCURVE",
"902 -4 OFFCURVE",
"902 -4 CURVE",
"921 14 LINE",
"936 165 LINE",
"881 170 LINE",
"879 154 OFFCURVE",
"869 118 OFFCURVE",
"866 103 CURVE SMOOTH",
"864 94 OFFCURVE",
"855 80 OFFCURVE",
"845 66 CURVE",
"823 62 OFFCURVE",
"789 57 OFFCURVE",
"758 57 CURVE SMOOTH",
"634 57 LINE",
"632 76 OFFCURVE",
"627 127 OFFCURVE",
"627 167 CURVE SMOOTH",
"627 338 LINE",
"703 338 LINE",
"723 338 OFFCURVE",
"783 332 OFFCURVE",
"783 332 CURVE",
"792 265 LINE",
"840 271 LINE",
"840 271 OFFCURVE",
"837 330 OFFCURVE",
"837 380 CURVE SMOOTH",
"837 400 OFFCURVE",
"838 464 OFFCURVE",
"838 464 CURVE",
"792 469 LINE",
"783 403 LINE",
"783 403 OFFCURVE",
"743 394 OFFCURVE",
"723 394 CURVE",
"627 394 LINE",
"627 538 LINE SMOOTH",
"627 577 OFFCURVE",
"632 628 OFFCURVE",
"634 649 CURVE",
"745 649 LINE SMOOTH",
"773 649 OFFCURVE",
"804 646 OFFCURVE",
"826 644 CURVE",
"836 631 OFFCURVE",
"845 617 OFFCURVE",
"846 610 CURVE",
"850 595 OFFCURVE",
"855 572 OFFCURVE",
"857 556 CURVE",
"915 561 LINE",
"908 697 LINE",
"889 715 LINE",
"889 715 OFFCURVE",
"795 705 OFFCURVE",
"775 705 CURVE SMOOTH",
"381 705 LINE"
);
},
{
closed = 1;
nodes = (
"626 570 OFFCURVE",
"524 720 OFFCURVE",
"328 720 CURVE SMOOTH",
"132 720 OFFCURVE",
"30 570 OFFCURVE",
"30 352 CURVE SMOOTH",
"30 135 OFFCURVE",
"132 -15 OFFCURVE",
"328 -15 CURVE SMOOTH",
"524 -15 OFFCURVE",
"626 135 OFFCURVE",
"626 352 CURVE SMOOTH"
);
},
{
closed = 1;
nodes = (
"137 527 OFFCURVE",
"200 667 OFFCURVE",
"328 667 CURVE SMOOTH",
"456 667 OFFCURVE",
"519 527 OFFCURVE",
"519 352 CURVE SMOOTH",
"519 178 OFFCURVE",
"456 38 OFFCURVE",
"328 38 CURVE SMOOTH",
"200 38 OFFCURVE",
"137 178 OFFCURVE",
"137 352 CURVE SMOOTH"
);
}
);
};
layerId = UUID0;
leftMetricsKey = "=O";
rightMetricsKey = "=E";
name = Regular;
paths = (
{
closed = 1;
nodes = (
"531 614 LINE",
"531 97 LINE",
"361 0 LINE",
"768 0 LINE SMOOTH",
"788 0 OFFCURVE",
"882 -4 OFFCURVE",
"882 -4 CURVE",
"901 14 LINE",
"916 165 LINE",
"861 170 LINE",
"859 154 OFFCURVE",
"849 118 OFFCURVE",
"846 103 CURVE SMOOTH",
"844 94 OFFCURVE",
"835 80 OFFCURVE",
"825 66 CURVE",
"803 62 OFFCURVE",
"769 57 OFFCURVE",
"738 57 CURVE SMOOTH",
"614 57 LINE",
"612 76 OFFCURVE",
"607 127 OFFCURVE",
"607 167 CURVE SMOOTH",
"607 338 LINE",
"683 338 LINE",
"703 338 OFFCURVE",
"763 332 OFFCURVE",
"763 332 CURVE",
"772 265 LINE",
"820 271 LINE",
"820 271 OFFCURVE",
"817 330 OFFCURVE",
"817 380 CURVE SMOOTH",
"817 400 OFFCURVE",
"818 464 OFFCURVE",
"818 464 CURVE",
"772 469 LINE",
"763 403 LINE",
"763 403 OFFCURVE",
"723 394 OFFCURVE",
"703 394 CURVE",
"607 394 LINE",
"607 538 LINE SMOOTH",
"607 577 OFFCURVE",
"612 628 OFFCURVE",
"614 649 CURVE",
"725 649 LINE SMOOTH",
"753 649 OFFCURVE",
"784 646 OFFCURVE",
"806 644 CURVE",
"816 631 OFFCURVE",
"825 617 OFFCURVE",
"826 610 CURVE",
"830 595 OFFCURVE",
"835 572 OFFCURVE",
"837 556 CURVE",
"895 561 LINE",
"888 697 LINE",
"869 715 LINE",
"869 715 OFFCURVE",
"775 705 OFFCURVE",
"755 705 CURVE SMOOTH",
"361 705 LINE"
);
},
{
closed = 1;
nodes = (
"137 527 OFFCURVE",
"200 667 OFFCURVE",
"328 667 CURVE SMOOTH",
"456 667 OFFCURVE",
"519 527 OFFCURVE",
"519 352 CURVE SMOOTH",
"519 178 OFFCURVE",
"456 38 OFFCURVE",
"328 38 CURVE SMOOTH",
"200 38 OFFCURVE",
"137 178 OFFCURVE",
"137 352 CURVE SMOOTH"
);
},
{
closed = 1;
nodes = (
"561 603 LINE",
"512 677 OFFCURVE",
"433 720 OFFCURVE",
"328 720 CURVE SMOOTH",
"132 720 OFFCURVE",
"30 570 OFFCURVE",
"30 352 CURVE SMOOTH",
"30 135 OFFCURVE",
"132 -15 OFFCURVE",
"328 -15 CURVE SMOOTH",
"433 -15 OFFCURVE",
"512 28 OFFCURVE",
"561 102 CURVE"
);
}
);
width = 957;
},
{
anchors = (
{
name = top;
position = "{525, 705}";
}
);
background = {
paths = (
{
closed = 1;
nodes = (
"868 623 OFFCURVE",
"893 621 OFFCURVE",
"913 619 CURVE",
"926 583 LINE",
"928 568 OFFCURVE",
"930 554 OFFCURVE",
"932 537 CURVE",
"1004 542 LINE",
"997 697 LINE",
"978 715 LINE",
"940 710 OFFCURVE",
"883 705 OFFCURVE",
"863 705 CURVE",
"474 705 LINE",
"604 571 LINE",
"604 101 LINE",
"474 0 LINE",
"878 0 LINE SMOOTH",
"898 0 OFFCURVE",
"992 -4 OFFCURVE",
"992 -4 CURVE",
"1011 14 LINE",
"1026 190 LINE",
"956 195 LINE",
"954 179 OFFCURVE",
"948 153 OFFCURVE",
"944 138 CURVE SMOOTH",
"941 128 OFFCURVE",
"935 113 OFFCURVE",
"925 95 CURVE",
"905 91 OFFCURVE",
"877 87 OFFCURVE",
"848 87 CURVE SMOOTH",
"723 87 LINE",
"722 107 OFFCURVE",
"720 155 OFFCURVE",
"720 193 CURVE SMOOTH",
"720 316 LINE",
"782 316 LINE",
"802 316 OFFCURVE",
"846 310 OFFCURVE",
"846 310 CURVE",
"855 250 LINE",
"919 256 LINE",
"919 256 OFFCURVE",
"916 333 OFFCURVE",
"916 383 CURVE SMOOTH",
"916 403 OFFCURVE",
"917 466 OFFCURVE",
"917 466 CURVE",
"855 471 LINE",
"846 407 LINE",
"846 407 OFFCURVE",
"822 398 OFFCURVE",
"802 398 CURVE",
"720 398 LINE",
"720 542 LINE SMOOTH",
"720 558 OFFCURVE",
"723 605 OFFCURVE",
"724 623 CURVE",
"838 623 LINE"
);
},
{
closed = 1;
nodes = (
"723 574 OFFCURVE",
"591 720 OFFCURVE",
"386 720 CURVE SMOOTH",
"181 720 OFFCURVE",
"49 574 OFFCURVE",
"49 352 CURVE SMOOTH",
"49 131 OFFCURVE",
"181 -15 OFFCURVE",
"386 -15 CURVE SMOOTH",
"591 -15 OFFCURVE",
"723 131 OFFCURVE",
"723 352 CURVE SMOOTH"
);
},
{
closed = 1;
nodes = (
"229 535 OFFCURVE",
"280 623 OFFCURVE",
"386 623 CURVE SMOOTH",
"492 623 OFFCURVE",
"543 535 OFFCURVE",
"543 352 CURVE SMOOTH",
"543 170 OFFCURVE",
"492 82 OFFCURVE",
"386 82 CURVE SMOOTH",
"280 82 OFFCURVE",
"229 170 OFFCURVE",
"229 352 CURVE SMOOTH"
);
}
);
};
layerId = "16643525-C5DD-48EC-8E99-463BF28F5E85";
rightMetricsKey = "=E";
name = Bold;
paths = (
{
closed = 1;
nodes = (
"838 623 OFFCURVE",
"863 621 OFFCURVE",
"883 619 CURVE",
"896 583 LINE",
"898 568 OFFCURVE",
"900 554 OFFCURVE",
"902 537 CURVE",
"974 542 LINE",
"967 697 LINE",
"948 715 LINE",
"910 710 OFFCURVE",
"853 705 OFFCURVE",
"833 705 CURVE",
"444 705 LINE",
"574 571 LINE",
"574 101 LINE",
"444 0 LINE",
"848 0 LINE SMOOTH",
"868 0 OFFCURVE",
"962 -4 OFFCURVE",
"962 -4 CURVE",
"981 14 LINE",
"996 190 LINE",
"926 195 LINE",
"924 179 OFFCURVE",
"918 153 OFFCURVE",
"914 138 CURVE SMOOTH",
"911 128 OFFCURVE",
"905 113 OFFCURVE",
"895 95 CURVE",
"875 91 OFFCURVE",
"847 87 OFFCURVE",
"818 87 CURVE SMOOTH",
"693 87 LINE",
"692 107 OFFCURVE",
"690 155 OFFCURVE",
"690 193 CURVE SMOOTH",
"690 316 LINE",
"752 316 LINE",
"772 316 OFFCURVE",
"816 310 OFFCURVE",
"816 310 CURVE",
"825 250 LINE",
"889 256 LINE",
"889 256 OFFCURVE",
"886 333 OFFCURVE",
"886 383 CURVE SMOOTH",
"886 403 OFFCURVE",
"887 466 OFFCURVE",
"887 466 CURVE",
"825 471 LINE",
"816 407 LINE",
"816 407 OFFCURVE",
"792 398 OFFCURVE",
"772 398 CURVE",
"690 398 LINE",
"690 542 LINE SMOOTH",
"690 558 OFFCURVE",
"693 605 OFFCURVE",
"694 623 CURVE",
"808 623 LINE"
);
},
{
closed = 1;
nodes = (
"229 535 OFFCURVE",
"280 623 OFFCURVE",
"386 623 CURVE SMOOTH",
"492 623 OFFCURVE",
"543 535 OFFCURVE",
"543 352 CURVE SMOOTH",
"543 170 OFFCURVE",
"492 82 OFFCURVE",
"386 82 CURVE SMOOTH",
"280 82 OFFCURVE",
"229 170 OFFCURVE",
"229 352 CURVE SMOOTH"
);
},
{
closed = 1;
nodes = (
"653 592 LINE",
"595 673 OFFCURVE",
"502 720 OFFCURVE",
"386 720 CURVE SMOOTH",
"181 720 OFFCURVE",
"49 574 OFFCURVE",
"49 352 CURVE SMOOTH",
"49 131 OFFCURVE",
"181 -15 OFFCURVE",
"386 -15 CURVE SMOOTH",
"502 -15 OFFCURVE",
"595 32 OFFCURVE",
"653 113 CURVE"
);
}
);
width = 1042;
}
);
leftKerningGroup = O;
leftMetricsKey = "=O";
rightKerningGroup = E;
rightMetricsKey = "=E";
unicode = 0152;
},
{
color = 0;
glyphname = Oacute;
lastChange = "2015-06-18 08:01:47 +0000";
layers = (
{
anchors = (
{
name = _top;
position = "{358, 705}";
},
{
name = bottom;
position = "{358, 0}";
},
{
name = horn;
position = "{616, 567}";
},
{
name = top;
position = "{358, 705}";
}
);
layerId = UUID0;
name = Regular;
paths = (
{
closed = 1;
nodes = (
"686 570 OFFCURVE",
"575 720 OFFCURVE",
"358 720 CURVE SMOOTH",
"141 720 OFFCURVE",
"30 570 OFFCURVE",
"30 352 CURVE SMOOTH",
"30 135 OFFCURVE",
"141 -15 OFFCURVE",
"358 -15 CURVE SMOOTH",
"575 -15 OFFCURVE",
"686 135 OFFCURVE",
"686 352 CURVE SMOOTH"
);
},
{
closed = 1;
nodes = (
"137 527 OFFCURVE",
"209 667 OFFCURVE",
"358 667 CURVE SMOOTH",
"507 667 OFFCURVE",
"579 527 OFFCURVE",
"579 352 CURVE SMOOTH",
"579 178 OFFCURVE",
"507 38 OFFCURVE",
"358 38 CURVE SMOOTH",
"209 38 OFFCURVE",
"137 178 OFFCURVE",
"137 352 CURVE SMOOTH"
);
},
{
closed = 1;
nodes = (
"477 889 LINE",
"248 788 LINE",
"263 746 LINE",
"503 824 LINE"
);
}
);
width = 716;
},
{
components = (
{
name = O;
transform = "{1, 0, 0, 1, 0, 0}";
},
{
name = acute.cap;
transform = "{1, 0, 0, 1, 245, 211}";
}
);
layerId = "16643525-C5DD-48EC-8E99-463BF28F5E85";
name = Bold;
width = 812;
}
);
unicode = 00D3;
},
{
glyphname = Ocaron;
lastChange = "2015-06-18 08:01:47 +0000";
layers = (
{
anchors = (
{
name = _top_caps;
position = "{358, 396}";
},
{
name = bottom;
position = "{358, 0}";
},
{
name = horn;
position = "{616, 567}";
},
{
name = top;
position = "{358, 705}";
}
);
layerId = UUID0;
name = Regular;
paths = (
{
closed = 1;
nodes = (
"686 570 OFFCURVE",
"575 720 OFFCURVE",
"358 720 CURVE SMOOTH",
"141 720 OFFCURVE",
"30 570 OFFCURVE",
"30 352 CURVE SMOOTH",
"30 135 OFFCURVE",
"141 -15 OFFCURVE",
"358 -15 CURVE SMOOTH",
"575 -15 OFFCURVE",
"686 135 OFFCURVE",
"686 352 CURVE SMOOTH"
);
},
{
closed = 1;
nodes = (
"137 527 OFFCURVE",
"209 667 OFFCURVE",
"358 667 CURVE SMOOTH",
"507 667 OFFCURVE",
"579 527 OFFCURVE",
"579 352 CURVE SMOOTH",
"579 178 OFFCURVE",
"507 38 OFFCURVE",
"358 38 CURVE SMOOTH",
"209 38 OFFCURVE",
"137 178 OFFCURVE",
"137 352 CURVE SMOOTH"
);
},
{
closed = 1;
nodes = (
"392 749 LINE",
"533 836 LINE",
"509 875 LINE",
"318 788 LINE",
"351 749 LINE"
);
},
{
closed = 1;
nodes = (
"399 788 LINE",
"208 875 LINE",
"184 836 LINE",
"325 749 LINE",
"366 749 LINE"
);
}
);
width = 716;
},
{
components = (
{
name = O;
transform = "{1, 0, 0, 1, 0, 0}";
},
{
name = caron.cap;
transform = "{1, 0, 0, 1, 225, 211}";
}
);
layerId = "16643525-C5DD-48EC-8E99-463BF28F5E85";
name = Bold;
width = 812;
}
);
unicode = 01D1;
},
{
color = 0;
glyphname = Ocircumflex;
lastChange = "2015-06-18 08:01:47 +0000";
layers = (
{
anchors = (
{
name = _top;
position = "{358, 705}";
},
{
name = bottom;
position = "{358, 0}";
},
{
name = horn;
position = "{616, 567}";
},
{
name = top;
position = "{358, 705}";
}
);
layerId = UUID0;
name = Regular;
paths = (
{
closed = 1;
nodes = (
"686 570 OFFCURVE",
"575 720 OFFCURVE",
"358 720 CURVE SMOOTH",
"141 720 OFFCURVE",
"30 570 OFFCURVE",
"30 352 CURVE SMOOTH",
"30 135 OFFCURVE",
"141 -15 OFFCURVE",
"358 -15 CURVE SMOOTH",
"575 -15 OFFCURVE",
"686 135 OFFCURVE",
"686 352 CURVE SMOOTH"
);
},
{
closed = 1;
nodes = (
"137 527 OFFCURVE",
"209 667 OFFCURVE",
"358 667 CURVE SMOOTH",
"507 667 OFFCURVE",
"579 527 OFFCURVE",
"579 352 CURVE SMOOTH",
"579 178 OFFCURVE",
"507 38 OFFCURVE",
"358 38 CURVE SMOOTH",
"209 38 OFFCURVE",
"137 178 OFFCURVE",
"137 352 CURVE SMOOTH"
);
},
{
closed = 1;
nodes = (
"324 867 LINE",
"183 780 LINE",
"207 741 LINE",
"398 828 LINE",
"365 867 LINE"
);
},
{
closed = 1;
nodes = (
"317 828 LINE",
"508 741 LINE",
"532 780 LINE",
"391 867 LINE",
"350 867 LINE"
);
}
);
width = 716;
},
{
components = (
{
name = O;
transform = "{1, 0, 0, 1, 0, 0}";
},
{
name = circumflex.cap;
transform = "{1, 0, 0, 1, 225, 211}";
}
);
layerId = "16643525-C5DD-48EC-8E99-463BF28F5E85";
name = Bold;
width = 812;
}
);
unicode = 00D4;
},
{
color = 0;
glyphname = Odieresis;
lastChange = "2015-06-18 08:01:47 +0000";
layers = (
{
anchors = (
{
name = _top;
position = "{358, 705}";
},
{
name = bottom;
position = "{358, 0}";
},
{
name = horn;
position = "{616, 567}";
},
{
name = top;
position = "{358, 705}";
}
);
layerId = UUID0;
name = Regular;
paths = (
{
closed = 1;
nodes = (
"686 570 OFFCURVE",
"575 720 OFFCURVE",
"358 720 CURVE SMOOTH",
"141 720 OFFCURVE",
"30 570 OFFCURVE",
"30 352 CURVE SMOOTH",
"30 135 OFFCURVE",
"141 -15 OFFCURVE",
"358 -15 CURVE SMOOTH",
"575 -15 OFFCURVE",
"686 135 OFFCURVE",
"686 352 CURVE SMOOTH"
);
},
{
closed = 1;
nodes = (
"137 527 OFFCURVE",
"209 667 OFFCURVE",
"358 667 CURVE SMOOTH",
"507 667 OFFCURVE",
"579 527 OFFCURVE",
"579 352 CURVE SMOOTH",
"579 178 OFFCURVE",
"507 38 OFFCURVE",
"358 38 CURVE SMOOTH",
"209 38 OFFCURVE",
"137 178 OFFCURVE",
"137 352 CURVE SMOOTH"
);
},
{
closed = 1;
nodes = (
"440 860 OFFCURVE",
"422 836 OFFCURVE",
"422 800 CURVE SMOOTH",
"422 764 OFFCURVE",
"440 741 OFFCURVE",
"476 741 CURVE SMOOTH",
"512 741 OFFCURVE",
"530 764 OFFCURVE",
"530 800 CURVE SMOOTH",
"530 839 OFFCURVE",
"511 860 OFFCURVE",
"476 860 CURVE SMOOTH"
);
},
{
closed = 1;
nodes = (
"204 860 OFFCURVE",
"186 836 OFFCURVE",
"186 800 CURVE SMOOTH",
"186 764 OFFCURVE",
"204 741 OFFCURVE",
"240 741 CURVE SMOOTH",
"276 741 OFFCURVE",
"294 764 OFFCURVE",
"294 800 CURVE SMOOTH",
"294 839 OFFCURVE",
"275 860 OFFCURVE",
"240 860 CURVE SMOOTH"
);
}
);
width = 716;
},
{
components = (
{
name = O;
transform = "{1, 0, 0, 1, 0, 0}";
},
{
name = dieresis.cap;
transform = "{1, 0, 0, 1, 225, 261}";
}
);
layerId = "16643525-C5DD-48EC-8E99-463BF28F5E85";
name = Bold;
width = 812;
}
);
leftKerningGroup = O;
rightKerningGroup = O;
unicode = 00D6;
},
{
color = 0;
glyphname = Ograve;
lastChange = "2015-06-18 08:01:47 +0000";
layers = (
{
anchors = (
{
name = _top;
position = "{358, 705}";
},
{
name = bottom;
position = "{358, 0}";
},
{
name = horn;
position = "{616, 567}";
},
{
name = top;
position = "{358, 705}";
}
);
layerId = UUID0;
name = Regular;
paths = (
{
closed = 1;
nodes = (
"686 570 OFFCURVE",
"575 720 OFFCURVE",
"358 720 CURVE SMOOTH",
"141 720 OFFCURVE",
"30 570 OFFCURVE",
"30 352 CURVE SMOOTH",
"30 135 OFFCURVE",
"141 -15 OFFCURVE",
"358 -15 CURVE SMOOTH",
"575 -15 OFFCURVE",
"686 135 OFFCURVE",
"686 352 CURVE SMOOTH"
);
},
{
closed = 1;
nodes = (
"137 527 OFFCURVE",
"209 667 OFFCURVE",
"358 667 CURVE SMOOTH",
"507 667 OFFCURVE",
"579 527 OFFCURVE",
"579 352 CURVE SMOOTH",
"579 178 OFFCURVE",
"507 38 OFFCURVE",
"358 38 CURVE SMOOTH",
"209 38 OFFCURVE",
"137 178 OFFCURVE",
"137 352 CURVE SMOOTH"
);
},
{
closed = 1;
nodes = (
"466 746 LINE",
"481 788 LINE",
"252 889 LINE",
"226 824 LINE"
);
}
);
width = 716;
},
{
components = (
{
name = O;
transform = "{1, 0, 0, 1, 0, 0}";
},
{
name = grave.cap;
transform = "{1, 0, 0, 1, 208, 211}";
}
);
layerId = "16643525-C5DD-48EC-8E99-463BF28F5E85";
name = Bold;
width = 812;
}
);
leftKerningGroup = O;
rightKerningGroup = O;
unicode = 00D2;
},
{
color = 0;
glyphname = Ohungarumlaut;
lastChange = "2015-06-18 08:01:47 +0000";
layers = (
{
anchors = (
{
name = _top;
position = "{358, 705}";
},
{
name = bottom;
position = "{358, 0}";
},
{
name = horn;
position = "{616, 567}";
},
{
name = top;
position = "{358, 705}";
}
);
layerId = UUID0;
name = Regular;
paths = (
{
closed = 1;
nodes = (
"686 570 OFFCURVE",
"575 720 OFFCURVE",
"358 720 CURVE SMOOTH",
"141 720 OFFCURVE",
"30 570 OFFCURVE",
"30 352 CURVE SMOOTH",
"30 135 OFFCURVE",
"141 -15 OFFCURVE",
"358 -15 CURVE SMOOTH",
"575 -15 OFFCURVE",
"686 135 OFFCURVE",
"686 352 CURVE SMOOTH"
);
},
{
closed = 1;
nodes = (
"137 527 OFFCURVE",
"209 667 OFFCURVE",
"358 667 CURVE SMOOTH",
"507 667 OFFCURVE",
"579 527 OFFCURVE",
"579 352 CURVE SMOOTH",
"579 178 OFFCURVE",
"507 38 OFFCURVE",
"358 38 CURVE SMOOTH",
"209 38 OFFCURVE",
"137 178 OFFCURVE",
"137 352 CURVE SMOOTH"
);
},
{
closed = 1;
nodes = (
"399 919 LINE",
"188 785 LINE",
"215 742 LINE",
"434 859 LINE"
);
},
{
closed = 1;
nodes = (
"611 919 LINE",
"400 785 LINE",
"427 742 LINE",
"646 859 LINE"
);
}
);
width = 716;
},
{
components = (
{
name = O;
transform = "{1, 0, 0, 1, 0, 0}";
},
{
name = hungarumlaut.cap;
transform = "{1, 0, 0, 1, 245, 211}";
}
);
layerId = "16643525-C5DD-48EC-8E99-463BF28F5E85";
name = Bold;
width = 812;
}
);
leftKerningGroup = O;
rightKerningGroup = O;
unicode = 0150;
},
{
color = 0;
glyphname = Omacron;
lastChange = "2015-06-18 08:01:47 +0000";
layers = (
{
anchors = (
{
name = _top;
position = "{358, 705}";
},
{
name = bottom;
position = "{358, 0}";
},
{
name = horn;
position = "{616, 567}";
},
{
name = top;
position = "{358, 705}";
}
);
layerId = UUID0;
name = Regular;
paths = (
{
closed = 1;
nodes = (
"686 570 OFFCURVE",
"575 720 OFFCURVE",
"358 720 CURVE SMOOTH",
"141 720 OFFCURVE",
"30 570 OFFCURVE",
"30 352 CURVE SMOOTH",
"30 135 OFFCURVE",
"141 -15 OFFCURVE",
"358 -15 CURVE SMOOTH",
"575 -15 OFFCURVE",
"686 135 OFFCURVE",
"686 352 CURVE SMOOTH"
);
},
{
closed = 1;
nodes = (
"137 527 OFFCURVE",
"209 667 OFFCURVE",
"358 667 CURVE SMOOTH",
"507 667 OFFCURVE",
"579 527 OFFCURVE",
"579 352 CURVE SMOOTH",
"579 178 OFFCURVE",
"507 38 OFFCURVE",
"358 38 CURVE SMOOTH",
"209 38 OFFCURVE",
"137 178 OFFCURVE",
"137 352 CURVE SMOOTH"
);
},
{
closed = 1;
nodes = (
"514 755 LINE",
"519 815 LINE",
"197 815 LINE",
"197 755 LINE"
);
}
);
width = 716;
},
{
components = (
{
name = O;
transform = "{1, 0, 0, 1, 0, 0}";
},
{
name = macron.cap;
transform = "{1, 0, 0, 1, 225, 211}";
}
);
layerId = "16643525-C5DD-48EC-8E99-463BF28F5E85";
name = Bold;
width = 812;
}
);
leftKerningGroup = O;
rightKerningGroup = O;
unicode = 014C;
},
{
color = 0;
glyphname = Oslash;
lastChange = "2015-06-18 08:01:47 +0000";
layers = (
{
anchors = (
{
name = bottom;
position = "{358, 0}";
},
{
name = horn;
position = "{616, 567}";
},
{
name = top;
position = "{391, 705}";
}
);
background = {
paths = (
{
closed = 1;
nodes = (
"709 570 OFFCURVE",
"598 720 OFFCURVE",
"381 720 CURVE",
"164 720 OFFCURVE",
"53 570 OFFCURVE",
"53 352 CURVE",
"53 135 OFFCURVE",
"164 -15 OFFCURVE",
"381 -15 CURVE SMOOTH",
"598 -15 OFFCURVE",
"709 135 OFFCURVE",
"709 352 CURVE"
);
},
{
closed = 1;
nodes = (
"160 527 OFFCURVE",
"232 667 OFFCURVE",
"381 667 CURVE",
"530 667 OFFCURVE",
"602 527 OFFCURVE",
"602 352 CURVE",
"602 178 OFFCURVE",
"530 38 OFFCURVE",
"381 38 CURVE SMOOTH",
"232 38 OFFCURVE",
"160 178 OFFCURVE",
"160 352 CURVE"
);
}
);
};
layerId = UUID0;
name = Regular;
paths = (
{
closed = 1;
nodes = (
"653 815 LINE",
"611 838 LINE",
"111 -113 LINE",
"151 -136 LINE"
);
},
{
closed = 1;
nodes = (
"686 570 OFFCURVE",
"575 720 OFFCURVE",
"358 720 CURVE SMOOTH",
"141 720 OFFCURVE",
"30 570 OFFCURVE",
"30 352 CURVE SMOOTH",
"30 135 OFFCURVE",
"141 -15 OFFCURVE",
"358 -15 CURVE SMOOTH",
"575 -15 OFFCURVE",
"686 135 OFFCURVE",
"686 352 CURVE SMOOTH"
);
},
{
closed = 1;
nodes = (
"137 527 OFFCURVE",
"209 667 OFFCURVE",
"358 667 CURVE SMOOTH",
"507 667 OFFCURVE",
"579 527 OFFCURVE",
"579 352 CURVE SMOOTH",
"579 178 OFFCURVE",
"507 38 OFFCURVE",
"358 38 CURVE SMOOTH",
"209 38 OFFCURVE",
"137 178 OFFCURVE",
"137 352 CURVE SMOOTH"
);
}
);
width = 762;
},
{
anchors = (
{
name = top;
position = "{401, 705}";
}
);
background = {
paths = (
{
closed = 1;
nodes = (
"763 578 OFFCURVE",
"623 724 OFFCURVE",
"406 724 CURVE",
"189 724 OFFCURVE",
"49 578 OFFCURVE",
"49 352 CURVE",
"49 127 OFFCURVE",
"189 -19 OFFCURVE",
"406 -19 CURVE SMOOTH",
"623 -19 OFFCURVE",
"763 127 OFFCURVE",
"763 352 CURVE"
);
},
{
closed = 1;
nodes = (
"229 539 OFFCURVE",
"286 627 OFFCURVE",
"406 627 CURVE",
"526 627 OFFCURVE",
"583 539 OFFCURVE",
"583 352 CURVE",
"583 166 OFFCURVE",
"526 78 OFFCURVE",
"406 78 CURVE SMOOTH",
"286 78 OFFCURVE",
"229 166 OFFCURVE",
"229 352 CURVE"
);
}
);
};
components = (
{
name = O;
transform = "{1, 0, 0, 1, -1, 0}";
}
);
layerId = "16643525-C5DD-48EC-8E99-463BF28F5E85";
name = Bold;
paths = (
{
closed = 1;
nodes = (
"685 809 LINE",
"626 838 LINE",
"129 -108 LINE",
"186 -137 LINE"
);
}
);
width = 812;
}
);
leftKerningGroup = O;
rightKerningGroup = O;
unicode = 00D8;
},
{
color = 0;
glyphname = Otilde;
lastChange = "2015-06-18 08:01:47 +0000";
layers = (
{
anchors = (
{
name = _top;
position = "{358, 705}";
},
{
name = bottom;
position = "{358, 0}";
},
{
name = horn;
position = "{616, 567}";
},
{
name = top;
position = "{358, 705}";
}
);
layerId = UUID0;
name = Regular;
paths = (
{
closed = 1;
nodes = (
"686 570 OFFCURVE",
"575 720 OFFCURVE",
"358 720 CURVE SMOOTH",
"141 720 OFFCURVE",
"30 570 OFFCURVE",
"30 352 CURVE SMOOTH",
"30 135 OFFCURVE",
"141 -15 OFFCURVE",
"358 -15 CURVE SMOOTH",
"575 -15 OFFCURVE",
"686 135 OFFCURVE",
"686 352 CURVE SMOOTH"
);
},
{
closed = 1;
nodes = (
"137 527 OFFCURVE",
"209 667 OFFCURVE",
"358 667 CURVE SMOOTH",
"507 667 OFFCURVE",
"579 527 OFFCURVE",
"579 352 CURVE SMOOTH",
"579 178 OFFCURVE",
"507 38 OFFCURVE",
"358 38 CURVE SMOOTH",
"209 38 OFFCURVE",
"137 178 OFFCURVE",
"137 352 CURVE SMOOTH"
);
},
{
closed = 1;
nodes = (
"490 870 LINE",
"490 870 OFFCURVE",
"464 819 OFFCURVE",
"437 819 CURVE SMOOTH",
"397 819 OFFCURVE",
"312 860 OFFCURVE",
"272 860 CURVE SMOOTH",
"232 860 OFFCURVE",
"190 759 OFFCURVE",
"190 759 CURVE",
"226 738 LINE",
"226 738 OFFCURVE",
"252 792 OFFCURVE",
"279 792 CURVE SMOOTH",
"319 792 OFFCURVE",
"403 751 OFFCURVE",
"443 751 CURVE SMOOTH",
"483 751 OFFCURVE",
"526 849 OFFCURVE",
"526 849 CURVE"
);
}
);
width = 716;
},
{
components = (
{
name = O;
transform = "{1, 0, 0, 1, 0, 0}";
},
{
name = tilde.cap;
transform = "{1, 0, 0, 1, 215, 211}";
}
);
layerId = "16643525-C5DD-48EC-8E99-463BF28F5E85";
name = Bold;
width = 812;
}
);
leftKerningGroup = O;
rightKerningGroup = O;
unicode = 00D5;
},
{
color = 0;
glyphname = P;
lastChange = "2015-06-18 07:52:54 +0000";
layers = (
{
background = {
paths = (
{
closed = 1;
nodes = (
"276 715 OFFCURVE",
"176 705 OFFCURVE",
"125 705 CURVE",
"125 648 LINE",
"125 648 OFFCURVE",
"251 665 OFFCURVE",
"286 665 CURVE SMOOTH",
"390 665 OFFCURVE",
"457 610 OFFCURVE",
"457 502 CURVE SMOOTH",
"457 394 OFFCURVE",
"389 341 OFFCURVE",
"285 341 CURVE SMOOTH",
"243 341 OFFCURVE",
"144 354 OFFCURVE",
"144 354 CURVE",
"144 296 LINE",
"144 296 OFFCURVE",
"235 291 OFFCURVE",
"305 291 CURVE SMOOTH",
"439 291 OFFCURVE",
"551 367 OFFCURVE",
"551 502 CURVE SMOOTH",
"551 644 OFFCURVE",
"466 715 OFFCURVE",
"328 715 CURVE SMOOTH"
);
},
{
closed = 1;
nodes = (
"297 710 LINE",
"297 710 OFFCURVE",
"219 705 OFFCURVE",
"159 705 CURVE SMOOTH",
"139 705 OFFCURVE",
"44 710 OFFCURVE",
"44 710 CURVE",
"39 656 LINE",
"116 644 LINE",
"118 631 OFFCURVE",
"125 585 OFFCURVE",
"125 568 CURVE SMOOTH",
"125 137 LINE SMOOTH",
"125 120 OFFCURVE",
"118 74 OFFCURVE",
"116 61 CURVE",
"37 45 LINE",
"42 -5 LINE",
"42 -5 OFFCURVE",
"152 0 OFFCURVE",
"177 0 CURVE",
"316 0 LINE",
"323 54 LINE",
"223 61 LINE",
"221 75 OFFCURVE",
"216 125 OFFCURVE",
"216 167 CURVE SMOOTH",
"216 538 LINE SMOOTH",
"216 580 OFFCURVE",
"221 630 OFFCURVE",
"223 644 CURVE",
"301 651 LINE"
);
}
);
};
layerId = UUID0;
leftMetricsKey = "=H";
name = Regular;
paths = (
{
closed = 1;
nodes = (
"273 710 OFFCURVE",
"214 705 OFFCURVE",
"159 705 CURVE",
"159 652 LINE",
"159 652 OFFCURVE",
"251 660 OFFCURVE",
"286 660 CURVE SMOOTH",
"390 660 OFFCURVE",
"457 605 OFFCURVE",
"457 502 CURVE SMOOTH",
"457 394 OFFCURVE",
"389 341 OFFCURVE",
"285 341 CURVE SMOOTH",
"243 341 OFFCURVE",
"144 354 OFFCURVE",
"144 354 CURVE",
"144 296 LINE",
"144 296 OFFCURVE",
"235 291 OFFCURVE",
"305 291 CURVE SMOOTH",
"439 291 OFFCURVE",
"551 367 OFFCURVE",
"551 502 CURVE SMOOTH",
"551 639 OFFCURVE",
"466 710 OFFCURVE",
"328 710 CURVE SMOOTH"
);
},
{
closed = 1;
nodes = (
"159 705 LINE",
"121 705 OFFCURVE",
"91 707 OFFCURVE",
"44 710 CURVE",
"39 656 LINE",
"116 644 LINE",
"118 631 OFFCURVE",
"125 585 OFFCURVE",
"125 568 CURVE SMOOTH",
"125 137 LINE SMOOTH",
"125 120 OFFCURVE",
"118 74 OFFCURVE",
"116 61 CURVE",
"37 45 LINE",
"42 -5 LINE",
"42 -5 OFFCURVE",
"152 0 OFFCURVE",
"177 0 CURVE",
"316 0 LINE",
"323 54 LINE",
"223 61 LINE",
"221 75 OFFCURVE",
"216 125 OFFCURVE",
"216 167 CURVE SMOOTH",
"216 538 LINE SMOOTH",
"216 580 OFFCURVE",
"223 650 OFFCURVE",
"225 664 CURVE"
);
}
);
width = 571;
},
{
background = {
paths = (
{
closed = 1;
nodes = (
"306 710 OFFCURVE",
"222 705 OFFCURVE",
"167 705 CURVE",
"121 614 LINE",
"169 618 OFFCURVE",
"283 628 OFFCURVE",
"303 628 CURVE SMOOTH",
"396 628 OFFCURVE",
"436 586 OFFCURVE",
"436 497 CURVE SMOOTH",
"436 405 OFFCURVE",
"379 353 OFFCURVE",
"288 353 CURVE SMOOTH",
"251 353 OFFCURVE",
"165 353 OFFCURVE",
"165 353 CURVE",
"165 271 LINE",
"165 271 OFFCURVE",
"252 271 OFFCURVE",
"326 271 CURVE SMOOTH",
"468 271 OFFCURVE",
"597 354 OFFCURVE",
"597 496 CURVE SMOOTH",
"597 631 OFFCURVE",
"501 710 OFFCURVE",
"361 710 CURVE SMOOTH"
);
},
{
closed = 1;
nodes = (
"167 705 LINE",
"127 705 OFFCURVE",
"99 707 OFFCURVE",
"47 710 CURVE",
"42 635 LINE",
"107 623 LINE",
"109 607 OFFCURVE",
"116 562 OFFCURVE",
"116 512 CURVE SMOOTH",
"116 163 LINE SMOOTH",
"116 143 OFFCURVE",
"108 87 OFFCURVE",
"107 77 CURVE",
"41 65 LINE",
"46 -5 LINE",
"46 -5 OFFCURVE",
"166 0 OFFCURVE",
"196 0 CURVE",
"350 0 LINE",
"355 71 LINE",
"280 77 LINE",
"278 91 OFFCURVE",
"271 143 OFFCURVE",
"271 193 CURVE SMOOTH",
"271 542 LINE SMOOTH",
"271 562 OFFCURVE",
"274 620 OFFCURVE",
"277 646 CURVE"
);
}
);
};
layerId = "16643525-C5DD-48EC-8E99-463BF28F5E85";
name = Bold;
paths = (
{
closed = 1;
nodes = (
"306 710 OFFCURVE",
"222 705 OFFCURVE",
"167 705 CURVE",
"121 614 LINE",
"169 618 OFFCURVE",
"283 628 OFFCURVE",
"303 628 CURVE SMOOTH",
"396 628 OFFCURVE",
"436 586 OFFCURVE",
"436 497 CURVE SMOOTH",
"436 405 OFFCURVE",
"379 353 OFFCURVE",
"288 353 CURVE SMOOTH",
"251 353 OFFCURVE",
"165 353 OFFCURVE",
"165 353 CURVE",
"165 271 LINE",
"165 271 OFFCURVE",
"252 271 OFFCURVE",
"326 271 CURVE SMOOTH",
"468 271 OFFCURVE",
"597 354 OFFCURVE",
"597 496 CURVE SMOOTH",
"597 631 OFFCURVE",
"501 710 OFFCURVE",
"361 710 CURVE SMOOTH"
);
},
{
closed = 1;
nodes = (
"167 705 LINE",
"137 705 OFFCURVE",
"47 710 OFFCURVE",
"47 710 CURVE",
"42 635 LINE",
"107 623 LINE",
"109 607 OFFCURVE",
"116 562 OFFCURVE",
"116 542 CURVE SMOOTH",
"116 163 LINE SMOOTH",
"116 143 OFFCURVE",
"108 87 OFFCURVE",
"107 77 CURVE",
"41 65 LINE",
"46 -5 LINE",
"46 -5 OFFCURVE",
"166 0 OFFCURVE",
"196 0 CURVE",
"350 0 LINE",
"355 71 LINE",
"280 77 LINE",
"278 91 OFFCURVE",
"271 153 OFFCURVE",
"271 193 CURVE SMOOTH",
"271 512 LINE SMOOTH",
"271 552 OFFCURVE",
"275 618 OFFCURVE",
"278 643 CURVE"
);
}
);
width = 630;
}
);
leftKerningGroup = H;
leftMetricsKey = "=H";
rightKerningGroup = P;
unicode = 0050;
},
{
color = 0;
glyphname = Q;
lastChange = "2015-06-18 07:52:54 +0000";
layers = (
{
background = {
paths = (
{
closed = 1;
nodes = (
"646 -224 LINE",
"705 -132 LINE",
"705 -132 OFFCURVE",
"563 -71 OFFCURVE",
"547 -60 CURVE SMOOTH",
"460 1 LINE",
"603 45 OFFCURVE",
"675 177 OFFCURVE",
"675 352 CURVE SMOOTH",
"675 570 OFFCURVE",
"564 720 OFFCURVE",
"347 720 CURVE SMOOTH",
"130 720 OFFCURVE",
"19 570 OFFCURVE",
"19 352 CURVE SMOOTH",
"19 135 OFFCURVE",
"130 -15 OFFCURVE",
"347 -15 CURVE SMOOTH",
"360 -15 OFFCURVE",
"372 -14 OFFCURVE",
"384 -13 CURVE"
);
},
{
closed = 1;
nodes = (
"126 527 OFFCURVE",
"198 667 OFFCURVE",
"347 667 CURVE SMOOTH",
"496 667 OFFCURVE",
"568 527 OFFCURVE",
"568 352 CURVE SMOOTH",
"568 178 OFFCURVE",
"496 38 OFFCURVE",
"347 38 CURVE SMOOTH",
"198 38 OFFCURVE",
"126 178 OFFCURVE",
"126 352 CURVE SMOOTH"
);
}
);
};
layerId = UUID0;
name = Regular;
paths = (
{
closed = 1;
nodes = (
"646 -224 LINE",
"705 -132 LINE",
"705 -132 OFFCURVE",
"563 -71 OFFCURVE",
"547 -60 CURVE SMOOTH",
"460 1 LINE",
"384 -13 LINE"
);
},
{
closed = 1;
nodes = (
"675 570 OFFCURVE",
"564 720 OFFCURVE",
"347 720 CURVE SMOOTH",
"130 720 OFFCURVE",
"19 570 OFFCURVE",
"19 352 CURVE SMOOTH",
"19 135 OFFCURVE",
"130 -15 OFFCURVE",
"347 -15 CURVE SMOOTH",
"564 -15 OFFCURVE",
"675 135 OFFCURVE",
"675 352 CURVE SMOOTH"
);
},
{
closed = 1;
nodes = (
"126 527 OFFCURVE",
"198 667 OFFCURVE",
"347 667 CURVE SMOOTH",
"496 667 OFFCURVE",
"568 527 OFFCURVE",
"568 352 CURVE SMOOTH",
"568 178 OFFCURVE",
"496 38 OFFCURVE",
"347 38 CURVE SMOOTH",
"198 38 OFFCURVE",
"126 178 OFFCURVE",
"126 352 CURVE SMOOTH"
);
}
);
width = 700;
},
{
background = {
paths = (
{
closed = 1;
nodes = (
"706 -224 LINE",
"796 -100 LINE",
"796 -100 OFFCURVE",
"654 -42 OFFCURVE",
"638 -32 CURVE SMOOTH",
"569 14 LINE",
"691 69 OFFCURVE",
"764 190 OFFCURVE",
"764 352 CURVE SMOOTH",
"764 578 OFFCURVE",
"624 724 OFFCURVE",
"407 724 CURVE SMOOTH",
"190 724 OFFCURVE",
"50 578 OFFCURVE",
"50 352 CURVE SMOOTH",
"50 127 OFFCURVE",
"190 -19 OFFCURVE",
"407 -19 CURVE SMOOTH",
"414 -19 OFFCURVE",
"421 -19 OFFCURVE",
"428 -19 CURVE"
);
},
{
closed = 1;
nodes = (
"230 539 OFFCURVE",
"287 627 OFFCURVE",
"407 627 CURVE SMOOTH",
"527 627 OFFCURVE",
"584 539 OFFCURVE",
"584 352 CURVE SMOOTH",
"584 166 OFFCURVE",
"527 78 OFFCURVE",
"407 78 CURVE SMOOTH",
"287 78 OFFCURVE",
"230 166 OFFCURVE",
"230 352 CURVE SMOOTH"
);
}
);
};
layerId = "16643525-C5DD-48EC-8E99-463BF28F5E85";
name = Bold;
paths = (
{
closed = 1;
nodes = (
"706 -224 LINE",
"796 -100 LINE",
"796 -100 OFFCURVE",
"653 -42 OFFCURVE",
"638 -32 CURVE SMOOTH",
"542 33 LINE",
"401 1 LINE"
);
},
{
closed = 1;
nodes = (
"763 574 OFFCURVE",
"623 720 OFFCURVE",
"406 720 CURVE",
"189 720 OFFCURVE",
"49 574 OFFCURVE",
"49 352 CURVE",
"49 131 OFFCURVE",
"189 -15 OFFCURVE",
"406 -15 CURVE SMOOTH",
"623 -15 OFFCURVE",
"763 131 OFFCURVE",
"763 352 CURVE"
);
},
{
closed = 1;
nodes = (
"229 535 OFFCURVE",
"286 623 OFFCURVE",
"406 623 CURVE",
"526 623 OFFCURVE",
"583 535 OFFCURVE",
"583 352 CURVE",
"583 170 OFFCURVE",
"526 82 OFFCURVE",
"406 82 CURVE SMOOTH",
"286 82 OFFCURVE",
"229 170 OFFCURVE",
"229 352 CURVE"
);
}
);
width = 814;
}
);
leftKerningGroup = O;
rightKerningGroup = O;
unicode = 0051;
},
{
color = 0;
glyphname = R;
lastChange = "2015-06-18 07:52:54 +0000";
layers = (
{
anchors = (
{
name = bottom;
position = "{337, 0}";
},
{
name = top;
position = "{307, 705}";
}
);
background = {
paths = (
{
closed = 1;
nodes = (
"272 715 OFFCURVE",
"214 705 OFFCURVE",
"159 705 CURVE",
"159 650 LINE SMOOTH",
"159 650 OFFCURVE",
"250 665 OFFCURVE",
"285 665 CURVE SMOOTH",
"388 665 OFFCURVE",
"454 612 OFFCURVE",
"454 507 CURVE SMOOTH",
"454 402 OFFCURVE",
"387 351 OFFCURVE",
"284 351 CURVE SMOOTH",
"242 351 OFFCURVE",
"144 364 OFFCURVE",
"144 364 CURVE",
"144 306 LINE",
"144 306 OFFCURVE",
"234 301 OFFCURVE",
"304 301 CURVE SMOOTH",
"437 301 OFFCURVE",
"548 376 OFFCURVE",
"548 508 CURVE SMOOTH",
"548 646 OFFCURVE",
"464 715 OFFCURVE",
"327 715 CURVE SMOOTH"
);
},
{
closed = 1;
nodes = (
"288 345 LINE",
"409 116 LINE",
"422 92 OFFCURVE",
"464 0 OFFCURVE",
"464 0 CURVE",
"544 0 OFFCURVE",
"622 0 OFFCURVE",
"622 0 CURVE",
"629 54 LINE",
"557 61 LINE",
"541 83 OFFCURVE",
"517 116 OFFCURVE",
"508 131 CURVE",
"502 140 OFFCURVE",
"439 243 OFFCURVE",
"386 349 CURVE"
);
},
{
closed = 1;
nodes = (
"159 705 LINE",
"139 705 OFFCURVE",
"44 710 OFFCURVE",
"44 710 CURVE",
"39 656 LINE",
"116 644 LINE",
"118 631 OFFCURVE",
"125 585 OFFCURVE",
"125 568 CURVE SMOOTH",
"125 137 LINE SMOOTH",
"125 120 OFFCURVE",
"118 74 OFFCURVE",
"116 61 CURVE",
"37 45 LINE",
"42 -5 LINE",
"42 -5 OFFCURVE",
"152 0 OFFCURVE",
"177 0 CURVE",
"306 0 LINE",
"313 54 LINE",
"223 61 LINE",
"221 75 OFFCURVE",
"216 125 OFFCURVE",
"216 167 CURVE SMOOTH",
"216 538 LINE SMOOTH",
"216 580 OFFCURVE",
"223 656 OFFCURVE",
"225 670 CURVE"
);
}
);
};
layerId = UUID0;
leftMetricsKey = "=H";
name = Regular;
paths = (
{
closed = 1;
nodes = (
"272 710 OFFCURVE",
"214 705 OFFCURVE",
"159 705 CURVE",
"159 650 LINE SMOOTH",
"159 650 OFFCURVE",
"250 660 OFFCURVE",
"285 660 CURVE SMOOTH",
"388 660 OFFCURVE",
"454 607 OFFCURVE",
"454 507 CURVE SMOOTH",
"454 402 OFFCURVE",
"387 351 OFFCURVE",
"284 351 CURVE SMOOTH",
"242 351 OFFCURVE",
"144 364 OFFCURVE",
"144 364 CURVE",
"144 306 LINE",
"144 306 OFFCURVE",
"234 301 OFFCURVE",
"304 301 CURVE SMOOTH",
"437 301 OFFCURVE",
"548 376 OFFCURVE",
"548 508 CURVE SMOOTH",
"548 641 OFFCURVE",
"464 710 OFFCURVE",
"327 710 CURVE SMOOTH"
);
},
{
closed = 1;
nodes = (
"288 345 LINE",
"409 116 LINE",
"422 92 OFFCURVE",
"464 0 OFFCURVE",
"464 0 CURVE",
"544 0 OFFCURVE",
"622 0 OFFCURVE",
"622 0 CURVE",
"629 54 LINE",
"557 61 LINE",
"541 83 OFFCURVE",
"517 116 OFFCURVE",
"508 131 CURVE",
"502 140 OFFCURVE",
"439 243 OFFCURVE",
"386 349 CURVE"
);
},
{
closed = 1;
nodes = (
"159 705 LINE",
"139 705 OFFCURVE",
"44 710 OFFCURVE",
"44 710 CURVE",
"39 656 LINE",
"116 644 LINE",
"118 631 OFFCURVE",
"125 585 OFFCURVE",
"125 568 CURVE SMOOTH",
"125 137 LINE SMOOTH",
"125 120 OFFCURVE",
"118 74 OFFCURVE",
"116 61 CURVE",
"37 45 LINE",
"42 -5 LINE",
"42 -5 OFFCURVE",
"152 0 OFFCURVE",
"177 0 CURVE",
"306 0 LINE",
"313 54 LINE",
"223 61 LINE",
"221 75 OFFCURVE",
"216 125 OFFCURVE",
"216 167 CURVE SMOOTH",
"216 538 LINE SMOOTH",
"216 580 OFFCURVE",
"223 656 OFFCURVE",
"225 670 CURVE"
);
}
);
width = 634;
},
{
anchors = (
{
name = bottom;
position = "{327, 0}";
},
{
name = top;
position = "{327, 705}";
}
);
background = {
paths = (
{
closed = 1;
nodes = (
"301 710 OFFCURVE",
"222 705 OFFCURVE",
"167 705 CURVE",
"116 614 LINE",
"165 618 OFFCURVE",
"289 628 OFFCURVE",
"308 628 CURVE SMOOTH",
"398 628 OFFCURVE",
"429 580 OFFCURVE",
"429 497 CURVE SMOOTH",
"429 407 OFFCURVE",
"385 361 OFFCURVE",
"295 361 CURVE SMOOTH",
"259 361 OFFCURVE",
"157 361 OFFCURVE",
"157 361 CURVE",
"157 290 LINE",
"157 290 OFFCURVE",
"274 277 OFFCURVE",
"315 277 CURVE SMOOTH",
"459 277 OFFCURVE",
"590 366 OFFCURVE",
"590 504 CURVE SMOOTH",
"590 631 OFFCURVE",
"495 710 OFFCURVE",
"356 710 CURVE SMOOTH"
);
},
{
closed = 1;
nodes = (
"295 345 LINE",
"413 116 LINE",
"426 92 OFFCURVE",
"462 0 OFFCURVE",
"462 0 CURVE",
"575 0 OFFCURVE",
"653 0 OFFCURVE",
"653 0 CURVE",
"658 71 LINE",
"610 75 LINE",
"597 96 OFFCURVE",
"582 119 OFFCURVE",
"575 131 CURVE",
"570 140 OFFCURVE",
"501 243 OFFCURVE",
"452 349 CURVE"
);
},
{
closed = 1;
nodes = (
"167 705 LINE",
"137 705 OFFCURVE",
"47 710 OFFCURVE",
"47 710 CURVE",
"42 635 LINE",
"107 623 LINE",
"109 607 OFFCURVE",
"116 562 OFFCURVE",
"116 512 CURVE SMOOTH",
"116 163 LINE SMOOTH",
"116 143 OFFCURVE",
"108 87 OFFCURVE",
"107 77 CURVE",
"41 65 LINE",
"46 -5 LINE",
"46 -5 OFFCURVE",
"166 0 OFFCURVE",
"196 0 CURVE",
"340 0 LINE",
"345 71 LINE",
"280 77 LINE",
"278 91 OFFCURVE",
"271 143 OFFCURVE",
"271 193 CURVE SMOOTH",
"271 542 LINE SMOOTH",
"271 562 OFFCURVE",
"274 620 OFFCURVE",
"277 646 CURVE"
);
}
);
};
layerId = "16643525-C5DD-48EC-8E99-463BF28F5E85";
name = Bold;
paths = (
{
closed = 1;
nodes = (
"301 710 OFFCURVE",
"222 705 OFFCURVE",
"167 705 CURVE",
"116 614 LINE",
"165 618 OFFCURVE",
"289 628 OFFCURVE",
"308 628 CURVE SMOOTH",
"398 628 OFFCURVE",
"429 580 OFFCURVE",
"429 497 CURVE SMOOTH",
"429 407 OFFCURVE",
"385 361 OFFCURVE",
"295 361 CURVE SMOOTH",
"259 361 OFFCURVE",
"157 361 OFFCURVE",
"157 361 CURVE",
"157 290 LINE",
"157 290 OFFCURVE",
"274 277 OFFCURVE",
"315 277 CURVE SMOOTH",
"459 277 OFFCURVE",
"590 366 OFFCURVE",
"590 504 CURVE SMOOTH",
"590 631 OFFCURVE",
"495 710 OFFCURVE",
"356 710 CURVE SMOOTH"
);
},
{
closed = 1;
nodes = (
"295 345 LINE",
"413 116 LINE",
"426 92 OFFCURVE",
"462 0 OFFCURVE",
"462 0 CURVE",
"575 0 OFFCURVE",
"653 0 OFFCURVE",
"653 0 CURVE",
"658 71 LINE",
"610 75 LINE",
"597 96 OFFCURVE",
"582 119 OFFCURVE",
"575 131 CURVE",
"570 140 OFFCURVE",
"501 243 OFFCURVE",
"452 349 CURVE"
);
},
{
closed = 1;
nodes = (
"167 705 LINE",
"137 705 OFFCURVE",
"47 710 OFFCURVE",
"47 710 CURVE",
"42 635 LINE",
"107 623 LINE",
"109 607 OFFCURVE",
"116 562 OFFCURVE",
"116 542 CURVE SMOOTH",
"116 163 LINE SMOOTH",
"116 143 OFFCURVE",
"108 87 OFFCURVE",
"107 77 CURVE",
"41 65 LINE",
"46 -5 LINE",
"46 -5 OFFCURVE",
"166 0 OFFCURVE",
"196 0 CURVE",
"340 0 LINE",
"345 71 LINE",
"280 77 LINE",
"278 91 OFFCURVE",
"271 153 OFFCURVE",
"271 193 CURVE SMOOTH",
"271 512 LINE SMOOTH",
"271 552 OFFCURVE",
"275 618 OFFCURVE",
"278 643 CURVE"
);
}
);
width = 677;
}
);
leftKerningGroup = H;
leftMetricsKey = "=H";
rightKerningGroup = R;
unicode = 0052;
},
{
color = 0;
glyphname = Racute;
lastChange = "2015-06-18 08:01:47 +0000";
layers = (
{
anchors = (
{
name = _top;
position = "{307, 705}";
},
{
name = bottom;
position = "{337, 0}";
},
{
name = top;
position = "{307, 705}";
}
);
layerId = UUID0;
name = Regular;
paths = (
{
closed = 1;
nodes = (
"272 710 OFFCURVE",
"214 705 OFFCURVE",
"159 705 CURVE",
"159 650 LINE SMOOTH",
"159 650 OFFCURVE",
"250 660 OFFCURVE",
"285 660 CURVE SMOOTH",
"388 660 OFFCURVE",
"454 607 OFFCURVE",
"454 507 CURVE SMOOTH",
"454 402 OFFCURVE",
"387 351 OFFCURVE",
"284 351 CURVE SMOOTH",
"242 351 OFFCURVE",
"144 364 OFFCURVE",
"144 364 CURVE",
"144 306 LINE",
"144 306 OFFCURVE",
"234 301 OFFCURVE",
"304 301 CURVE SMOOTH",
"437 301 OFFCURVE",
"548 376 OFFCURVE",
"548 508 CURVE SMOOTH",
"548 641 OFFCURVE",
"464 710 OFFCURVE",
"327 710 CURVE SMOOTH"
);
},
{
closed = 1;
nodes = (
"288 345 LINE",
"409 116 LINE",
"422 92 OFFCURVE",
"464 0 OFFCURVE",
"464 0 CURVE",
"544 0 OFFCURVE",
"622 0 OFFCURVE",
"622 0 CURVE",
"629 54 LINE",
"557 61 LINE",
"541 83 OFFCURVE",
"517 116 OFFCURVE",
"508 131 CURVE",
"502 140 OFFCURVE",
"439 243 OFFCURVE",
"386 349 CURVE"
);
},
{
closed = 1;
nodes = (
"159 705 LINE",
"139 705 OFFCURVE",
"44 710 OFFCURVE",
"44 710 CURVE",
"39 656 LINE",
"116 644 LINE",
"118 631 OFFCURVE",
"125 585 OFFCURVE",
"125 568 CURVE SMOOTH",
"125 137 LINE SMOOTH",
"125 120 OFFCURVE",
"118 74 OFFCURVE",
"116 61 CURVE",
"37 45 LINE",
"42 -5 LINE",
"42 -5 OFFCURVE",
"152 0 OFFCURVE",
"177 0 CURVE",
"306 0 LINE",
"313 54 LINE",
"223 61 LINE",
"221 75 OFFCURVE",
"216 125 OFFCURVE",
"216 167 CURVE SMOOTH",
"216 538 LINE SMOOTH",
"216 580 OFFCURVE",
"223 656 OFFCURVE",
"225 670 CURVE"
);
},
{
closed = 1;
nodes = (
"426 889 LINE",
"197 788 LINE",
"212 746 LINE",
"452 824 LINE"
);
}
);
width = 634;
},
{
components = (
{
name = R;
transform = "{1, 0, 0, 1, 0, 0}";
},
{
name = acute.cap;
transform = "{1, 0, 0, 1, 167, 211}";
}
);
layerId = "16643525-C5DD-48EC-8E99-463BF28F5E85";
name = Bold;
width = 677;
}
);
unicode = 0154;
},
{
color = 0;
glyphname = Rcaron;
lastChange = "2015-06-18 08:01:47 +0000";
layers = (
{
anchors = (
{
name = _top_caps;
position = "{307, 396}";
},
{
name = bottom;
position = "{337, 0}";
},
{
name = top;
position = "{307, 705}";
}
);
layerId = UUID0;
name = Regular;
paths = (
{
closed = 1;
nodes = (
"272 710 OFFCURVE",
"214 705 OFFCURVE",
"159 705 CURVE",
"159 650 LINE SMOOTH",
"159 650 OFFCURVE",
"250 660 OFFCURVE",
"285 660 CURVE SMOOTH",
"388 660 OFFCURVE",
"454 607 OFFCURVE",
"454 507 CURVE SMOOTH",
"454 402 OFFCURVE",
"387 351 OFFCURVE",
"284 351 CURVE SMOOTH",
"242 351 OFFCURVE",
"144 364 OFFCURVE",
"144 364 CURVE",
"144 306 LINE",
"144 306 OFFCURVE",
"234 301 OFFCURVE",
"304 301 CURVE SMOOTH",
"437 301 OFFCURVE",
"548 376 OFFCURVE",
"548 508 CURVE SMOOTH",
"548 641 OFFCURVE",
"464 710 OFFCURVE",
"327 710 CURVE SMOOTH"
);
},
{
closed = 1;
nodes = (
"288 345 LINE",
"409 116 LINE",
"422 92 OFFCURVE",
"464 0 OFFCURVE",
"464 0 CURVE",
"544 0 OFFCURVE",
"622 0 OFFCURVE",
"622 0 CURVE",
"629 54 LINE",
"557 61 LINE",
"541 83 OFFCURVE",
"517 116 OFFCURVE",
"508 131 CURVE",
"502 140 OFFCURVE",
"439 243 OFFCURVE",
"386 349 CURVE"
);
},
{
closed = 1;
nodes = (
"159 705 LINE",
"139 705 OFFCURVE",
"44 710 OFFCURVE",
"44 710 CURVE",
"39 656 LINE",
"116 644 LINE",
"118 631 OFFCURVE",
"125 585 OFFCURVE",
"125 568 CURVE SMOOTH",
"125 137 LINE SMOOTH",
"125 120 OFFCURVE",
"118 74 OFFCURVE",
"116 61 CURVE",
"37 45 LINE",
"42 -5 LINE",
"42 -5 OFFCURVE",
"152 0 OFFCURVE",
"177 0 CURVE",
"306 0 LINE",
"313 54 LINE",
"223 61 LINE",
"221 75 OFFCURVE",
"216 125 OFFCURVE",
"216 167 CURVE SMOOTH",
"216 538 LINE SMOOTH",
"216 580 OFFCURVE",
"223 656 OFFCURVE",
"225 670 CURVE"
);
},
{
closed = 1;
nodes = (
"341 749 LINE",
"482 836 LINE",
"458 875 LINE",
"267 788 LINE",
"300 749 LINE"
);
},
{
closed = 1;
nodes = (
"348 788 LINE",
"157 875 LINE",
"133 836 LINE",
"274 749 LINE",
"315 749 LINE"
);
}
);
width = 634;
},
{
components = (
{
name = R;
transform = "{1, 0, 0, 1, 0, 0}";
},
{
name = caron.cap;
transform = "{1, 0, 0, 1, 147, 211}";
}
);
layerId = "16643525-C5DD-48EC-8E99-463BF28F5E85";
name = Bold;
width = 677;
}
);
leftKerningGroup = H;
rightKerningGroup = R;
unicode = 0158;
},
